<?xml version="1.0" encoding="UTF-8"?>
<svg width="15px" height="15px" viewBox="0 0 15 15" version="1.1" xmlns="http://www.w3.org/2000/svg" xmlns:xlink="http://www.w3.org/1999/xlink">
    <title>编组 56</title>
    <g id="页面-1" stroke="none" stroke-width="1" fill="none" fill-rule="evenodd">
        <g id="客户360首页-基础信息" transform="translate(-1148.000000, -782.000000)">
            <rect id="矩形备份" stroke="#EAECF2" fill="#F2F3F7" x="-0.5" y="-1.5" width="1281" height="1686"></rect>
            <polygon id="矩形备份-3" fill="#FFFFFF" points="188 761 1268 761 1268 992 188 992"></polygon>
            <g id="编组-55备份" transform="translate(188.000000, 777.000000)"></g>
            <g id="编组-56" transform="translate(1148.000000, 782.000000)" fill="#61698C" fill-rule="nonzero">
                <g id="编组" transform="translate(1.000000, 1.000000)">
                    <path d="M4.26478397,8.73513488 C4.13493699,8.60538695 4.0619812,8.42935022 4.0619812,8.24578734 C4.0619812,8.06222445 4.13493699,7.88618772 4.26478397,7.7564398 L11.8184361,0.204516609 C11.9473706,0.0742867311 12.12282,0.000706723147 12.3060763,4.9232073e-06 C12.4893326,-0.0006868883 12.6653364,0.0715567695 12.7952575,0.200802386 L12.7980431,0.20358805 C13.067319,0.472868481 13.067319,0.912074138 12.7980431,1.18228313 L5.24160537,8.73513488 C5.11221437,8.86458703 4.93668713,8.93731745 4.75365894,8.93731745 C4.57063074,8.93731745 4.39510351,8.86458703 4.26571251,8.73513488 L4.26478397,8.73513488 Z M12.3152036,5.47312747 C12.6921898,5.47312747 12.9986072,5.77769293 12.9995459,6.15468553 L12.9995459,12.3184217 C13.0005268,12.499162 12.9292949,12.6728132 12.8016669,12.8007921 C12.6740389,12.928771 12.5005856,13.0004776 12.3198463,12.99999 L0.680629425,12.99999 C0.499976902,13.0009725 0.326422787,12.9297102 0.198593068,12.8020527 C0.0707633476,12.6743952 -0.000734687484,12.5009356 5.69333622e-06,12.3202788 L5.69333622e-06,0.680864393 C-0.00073131015,0.500284569 0.0706102381,0.326872908 0.198211182,0.199095479 C0.325812126,0.0713180505 0.499123289,-0.00026137948 0.679700895,0.000232331244 L6.84518954,0.000232331244 C7.22124721,0.000232331244 7.52673602,0.304800348 7.52673602,0.681792952 L7.52673602,0.684578616 C7.52722922,0.865585521 7.45579838,1.03937471 7.32815761,1.16771419 C7.20051684,1.29605368 7.02712191,1.36843046 6.84611807,1.36892233 L6.84518954,1.36892233 L1.36867568,1.3652081 L1.36867568,11.6312923 L11.6318001,11.6312923 L11.6318001,6.15282843 C11.6318001,5.77769293 11.9363604,5.47219893 12.312418,5.47219893 L12.3152036,5.47219893 L12.3152036,5.47312747 Z" id="形状"></path>
                </g>
            </g>
        </g>
    </g>
</svg>