<?xml version="1.0" encoding="UTF-8"?>
<svg width="22px" height="22px" viewBox="0 0 22 22" version="1.1" xmlns="http://www.w3.org/2000/svg" xmlns:xlink="http://www.w3.org/1999/xlink">
    <title>icon_tg_selected</title>
    <g id="页面-1" stroke="none" stroke-width="1" fill="none" fill-rule="evenodd">
        <g id="客户360icon更新" transform="translate(-249.000000, -392.000000)">
            <g id="编组-137备份-5" transform="translate(212.000000, 28.000000)">
                <g id="icon_tg_selected" transform="translate(37.000000, 364.000000)">
                    <g id="编组-2" opacity="0">
                        <g id="编组">
                            <rect id="矩形" fill="#D8D8D8" x="0" y="0" width="22" height="22"></rect>
                            <rect id="矩形" stroke="#979797" stroke-width="0.5" x="3.25" y="3.25" width="15.5" height="15.5"></rect>
                        </g>
                    </g>
                    <g id="编组-3" transform="translate(2.058868, 2.058868)">
                        <path d="M5.2308754,15.8265712 L4.05098266,15.8442005 C3.005432,15.8598224 2.13675887,15.0635614 2.04571474,14.0384809 L2.0380633,13.8312811 L2.0380633,13.8312811 L2.05569254,12.6513883 C2.0639269,12.1002771 1.84436057,11.5701971 1.44884352,11.1863252 L0.6020676,10.3644808 C-0.142652943,9.64168697 -0.198688336,8.47660317 0.446188614,7.68757313 L0.6020676,7.51778295 L0.6020676,7.51778295 L1.44884352,6.69593854 C1.84436057,6.31206664 2.0639269,5.78198662 2.05569254,5.2308754 L2.0380633,4.05098266 C2.02244132,3.005432 2.81870238,2.13675887 3.84378285,2.04571474 L4.05098266,2.0380633 L4.05098266,2.0380633 L5.2308754,2.05569254 C5.78198662,2.0639269 6.31206664,1.84436057 6.69593854,1.44884352 L7.51778295,0.6020676 C8.24057679,-0.142652943 9.40566058,-0.198688336 10.1946906,0.446188614 L10.3644808,0.6020676 L10.3644808,0.6020676 L11.1863252,1.44884352 C11.5701971,1.84436057 12.1002771,2.0639269 12.6513883,2.05569254 L13.8312811,2.0380633 C14.8768318,2.02244132 15.7455049,2.81870238 15.836549,3.84378285 L15.8442005,4.05098266 L15.8442005,4.05098266 L15.8265712,5.2308754 C15.8183368,5.78198662 16.0379032,6.31206664 16.4334202,6.69593854 L17.2801962,7.51778295 C18.0249167,8.24057679 18.0809521,9.40566058 17.4360751,10.1946906 L17.2801962,10.3644808 L17.2801962,10.3644808 L16.4334202,11.1863252 C16.0379032,11.5701971 15.8183368,12.1002771 15.8265712,12.6513883 L15.8442005,13.8312811 C15.8598224,14.8768318 15.0635614,15.7455049 14.0384809,15.836549 L13.8312811,15.8442005 L13.8312811,15.8442005 L12.6513883,15.8265712 C12.1002771,15.8183368 11.5701971,16.0379032 11.1863252,16.4334202 L10.3644808,17.2801962 C9.64168697,18.0249167 8.47660317,18.0809521 7.68757313,17.4360751 L7.51778295,17.2801962 L7.51778295,17.2801962 L6.69593854,16.4334202 C6.31206664,16.0379032 5.78198662,15.8183368 5.2308754,15.8265712 Z" id="星形" fill="#1A2243"></path>
                        <path d="M7.00137603,6.44335014 L7.001,9.411 L12.1628234,9.41191297 L12.1628234,10.411913 L6.50137603,10.411913 C6.25591614,10.411913 6.05176766,10.2350378 6.0094317,10.0017886 L6.00137603,9.91191297 L6.00137603,6.44335014 L7.00137603,6.44335014 Z" id="路径" fill="#FFFFFF" fill-rule="nonzero" transform="translate(9.082100, 8.427632) rotate(-45.000000) translate(-9.082100, -8.427632) "></path>
                    </g>
                </g>
            </g>
        </g>
    </g>
</svg>