<?xml version="1.0" encoding="UTF-8"?>
<svg width="22px" height="22px" viewBox="0 0 22 22" version="1.1" xmlns="http://www.w3.org/2000/svg" xmlns:xlink="http://www.w3.org/1999/xlink">
    <title>icon_bdrz_normal</title>
    <g id="页面-1" stroke="none" stroke-width="1" fill="none" fill-rule="evenodd">
        <g id="客户360icon更新" transform="translate(-61.000000, -492.000000)">
            <g id="编组-137备份-6" transform="translate(24.000000, 28.000000)">
                <g id="icon_bdrz_normal" transform="translate(37.000000, 464.000000)">
                    <g id="编组-13备份-10" opacity="0">
                        <g id="编组">
                            <rect id="矩形" fill="#D8D8D8" x="0" y="0" width="22" height="22"></rect>
                            <rect id="矩形" stroke="#979797" stroke-width="0.5" x="3.25" y="3.25" width="15.5" height="15.5"></rect>
                        </g>
                    </g>
                    <g id="编组-3" transform="translate(3.000000, 1.995401)">
                        <path d="M14,2.00459897 C15.1045695,2.00459897 16,2.90002947 16,4.00459897 L16,15.004599 C16,16.1091685 15.1045695,17.004599 14,17.004599 L2,17.004599 C0.8954305,17.004599 0,16.1091685 0,15.004599 L0,4.00459897 C0,2.90002947 0.8954305,2.00459897 2,2.00459897 L14,2.00459897 Z M14,3.00459897 L2,3.00459897 C1.48716416,3.00459897 1.06449284,3.39063916 1.00672773,3.88797785 L1,4.00459897 L1,15.004599 C1,15.5174348 1.38604019,15.9401061 1.88337887,15.9978712 L2,16.004599 L14,16.004599 C14.5128358,16.004599 14.9355072,15.6185588 14.9932723,15.1212201 L15,15.004599 L15,4.00459897 C15,3.49176313 14.6139598,3.06909181 14.1166211,3.01132671 L14,3.00459897 Z" id="矩形备份" fill="#61698C" fill-rule="nonzero"></path>
                        <path d="M5,0 L11,0 C12.1045695,0 13,0.8954305 13,2 L13,3 C13,4.1045695 12.1045695,5 11,5 L5,5 C3.8954305,5 3,4.1045695 3,3 L3,2 C3,0.8954305 3.8954305,0 5,0 Z" id="矩形" fill="#FFFFFF"></path>
                        <path d="M11,0 C12.1045695,0 13,0.8954305 13,2 L13,3 C13,4.1045695 12.1045695,5 11,5 L5,5 C3.8954305,5 3,4.1045695 3,3 L3,2 C3,0.8954305 3.8954305,0 5,0 L11,0 Z M11,1 L5,1 C4.48716416,1 4.06449284,1.38604019 4.00672773,1.88337887 L4,2 L4,3 C4,3.51283584 4.38604019,3.93550716 4.88337887,3.99327227 L5,4 L11,4 C11.5128358,4 11.9355072,3.61395981 11.9932723,3.11662113 L12,3 L12,2 C12,1.48716416 11.6139598,1.06449284 11.1166211,1.00672773 L11,1 Z" id="矩形" fill="#61698C" fill-rule="nonzero"></path>
                        <rect id="矩形" fill="#61698C" x="3" y="8.00459897" width="10" height="1"></rect>
                        <rect id="矩形备份-3" fill="#61698C" x="3" y="12.004599" width="7" height="1"></rect>
                    </g>
                </g>
            </g>
        </g>
    </g>
</svg>