<?xml version="1.0" encoding="UTF-8"?>
<svg width="22px" height="22px" viewBox="0 0 22 22" version="1.1" xmlns="http://www.w3.org/2000/svg" xmlns:xlink="http://www.w3.org/1999/xlink">
    <title>icon_kh_selected</title>
    <g id="页面-1" stroke="none" stroke-width="1" fill="none" fill-rule="evenodd">
        <g id="客户360icon更新" transform="translate(-249.000000, -42.000000)">
            <g id="编组-137备份-5" transform="translate(212.000000, 28.000000)">
                <g id="icon_kh_selected" transform="translate(37.000000, 14.000000)">
                    <g id="编组-34" opacity="0">
                        <rect id="矩形" fill="#D8D8D8" x="0" y="0" width="22" height="22"></rect>
                        <rect id="矩形" stroke="#979797" stroke-width="0.5" x="3.25" y="3.25" width="15.5" height="15.5"></rect>
                    </g>
                    <g id="编组-33" transform="translate(3.000000, 2.008261)">
                        <path d="M8.01362123,0.5 C9.0877192,0.5 10.0601324,0.935364224 10.7640211,1.63925294 C11.4679098,2.34314166 11.9032741,3.31555487 11.9032741,4.38965284 C11.9032741,5.71116692 11.2441759,6.8786581 10.2369791,7.58168452 L10.2369791,7.58168452 L8.93334353,8.49162606 L12,8.4917393 C12.9664983,8.4917393 13.8414983,8.88349014 14.4748737,9.51686557 C15.1082492,10.150241 15.5,11.025241 15.5,11.9917393 L15.5,11.9917393 L15.5,14.9917393 C15.5,15.4059529 15.3321068,15.7809529 15.0606602,16.0523995 C14.7892136,16.3238461 14.4142136,16.4917393 14,16.4917393 L14,16.4917393 L2,16.4917393 C1.58578644,16.4917393 1.21078644,16.3238461 0.939339828,16.0523995 C0.667893219,15.7809529 0.5,15.4059529 0.5,14.9917393 L0.5,14.9917393 L0.5,11.9917393 C0.5,11.025241 0.891750844,10.150241 1.52512627,9.51686557 C2.15850169,8.88349014 3.03350169,8.4917393 4.00001813,8.4917393 L4.00001813,8.4917393 L7.09390045,8.49162712 L5.7902634,7.58168452 C4.78306659,6.8786581 4.12396839,5.71116692 4.12396839,4.38965284 C4.12396839,3.31555487 4.55933261,2.34314166 5.26322133,1.63925294 C5.96711005,0.935364224 6.93952326,0.5 8.01362123,0.5 Z" id="路径" stroke="#1A2243" fill="#1A2243"></path>
                        <rect id="矩形" fill="#FFFFFF" x="7.38888889" y="9.98966232" width="1.22222222" height="4.01082722"></rect>
                    </g>
                </g>
            </g>
        </g>
    </g>
</svg>