<?xml version="1.0" encoding="UTF-8"?>
<svg width="22px" height="22px" viewBox="0 0 22 22" version="1.1" xmlns="http://www.w3.org/2000/svg" xmlns:xlink="http://www.w3.org/1999/xlink">
    <title>icon_hx_normal</title>
    <g id="页面-1" stroke="none" stroke-width="1" fill="none" fill-rule="evenodd">
        <g id="客户360icon更新" transform="translate(-61.000000, -192.000000)">
            <g id="编组-137备份-6" transform="translate(24.000000, 28.000000)">
                <g id="icon_hx_normal" transform="translate(37.000000, 164.000000)">
                    <g opacity="0" id="编组-2">
                        <g id="编组">
                            <rect id="矩形" fill="#D8D8D8" x="0" y="0" width="22" height="22"></rect>
                            <rect id="矩形" stroke="#979797" stroke-width="0.5" x="3.25" y="3.25" width="15.5" height="15.5"></rect>
                        </g>
                    </g>
                    <g transform="translate(3.000000, 3.000000)">
                        <path d="M8,3.11090261 C6.68472948,3.11090261 5.61849205,4.17714004 5.61849205,5.49241056 C5.61849205,6.80768107 6.68472948,7.8739185 8,7.8739185 C9.31527052,7.8739185 10.3815079,6.80768107 10.3815079,5.49241056 C10.3815079,4.17714004 9.31527052,3.11090261 8,3.11090261 Z M8,4.11090261 C8.76298577,4.11090261 9.38150795,4.72942479 9.38150795,5.49241056 C9.38150795,6.25539633 8.76298577,6.8739185 8,6.8739185 C7.23701423,6.8739185 6.61849205,6.25539633 6.61849205,5.49241056 C6.61849205,4.72942479 7.23701423,4.11090261 8,4.11090261 Z" id="椭圆形备份-2" fill="#61698C" fill-rule="nonzero"></path>
                        <path d="M14,0.5 C14.4142136,0.5 14.7892136,0.667893219 15.0606602,0.939339828 C15.3321068,1.21078644 15.5,1.58578644 15.5,2 L15.5,2 L15.5,14 C15.5,14.4142136 15.3321068,14.7892136 15.0606602,15.0606602 C14.7892136,15.3321068 14.4142136,15.5 14,15.5 L14,15.5 L2,15.5 C1.58578644,15.5 1.21078644,15.3321068 0.939339828,15.0606602 C0.667893219,14.7892136 0.5,14.4142136 0.5,14 L0.5,14 L0.5,2 C0.5,1.58578644 0.667893219,1.21078644 0.939339828,0.939339828 C1.21078644,0.667893219 1.58578644,0.5 2,0.5 L2,0.5 Z" id="矩形" stroke="#61698C"></path>
                        <path d="M8.00291903,9.01602677 C5.23378997,9.01602677 2.98896734,11.2608494 2.98896734,14.0299785 L2.98896734,15.472098 C2.98896734,15.7482404 3.21282496,15.972098 3.48896734,15.972098 L12.5168707,15.972098 C12.7930131,15.972098 13.0168707,15.7482404 13.0168707,15.472098 L13.0168707,14.0299785 C13.0168707,11.2608494 10.7720481,9.01602677 8.00291903,9.01602677 Z M8.2032557,10.0209391 C10.3270287,10.1253278 12.0168707,11.8803113 12.0168707,14.0299785 L12.016,14.972 L3.988,14.972 L3.98896734,14.0299785 C3.98896734,11.8131342 5.78607472,10.0160268 8.00291903,10.0160268 L8.2032557,10.0209391 Z" id="矩形" fill="#61698C" fill-rule="nonzero"></path>
                    </g>
                </g>
            </g>
        </g>
    </g>
</svg>