<?xml version="1.0" encoding="UTF-8"?>
<svg width="22px" height="22px" viewBox="0 0 22 22" version="1.1" xmlns="http://www.w3.org/2000/svg" xmlns:xlink="http://www.w3.org/1999/xlink">
    <title>icon_jy_normal</title>
    <g id="页面-1" stroke="none" stroke-width="1" fill="none" fill-rule="evenodd">
        <g id="客户360icon更新" transform="translate(-61.000000, -342.000000)">
            <g id="编组-137备份-6" transform="translate(24.000000, 28.000000)">
                <g id="icon_jy_normal" transform="translate(37.000000, 314.000000)">
                    <g id="编组-13备份-9" opacity="0">
                        <g id="编组">
                            <rect id="矩形" fill="#D8D8D8" x="0" y="0" width="22" height="22"></rect>
                            <rect id="矩形" stroke="#979797" stroke-width="0.5" x="3.25" y="3.25" width="15.5" height="15.5"></rect>
                        </g>
                    </g>
                    <g id="编组-3" transform="translate(2.500000, 2.500000)" fill="#61698C" fill-rule="nonzero">
                        <path d="M8.5,0 C13.1944204,0 17,3.80557963 17,8.5 C17,13.1944204 13.1944204,17 8.5,17 C3.80557963,17 0,13.1944204 0,8.5 C0,3.80557963 3.80557963,0 8.5,0 Z M8.5,1 C4.35786438,1 1,4.35786438 1,8.5 C1,12.6421356 4.35786438,16 8.5,16 C12.6421356,16 16,12.6421356 16,8.5 C16,4.35786438 12.6421356,1 8.5,1 Z" id="椭圆形"></path>
                        <path d="M7.49779075,4.5 L7.49779075,11.9934887 C7.49779075,12.3908421 7.06386916,12.6185228 6.74182767,12.4234666 L6.67473014,12.3751061 L3.70915819,9.86458253 L4.35527942,9.10134773 L6.497,10.914 L6.49779075,4.5 L7.49779075,4.5 Z" id="路径-6"></path>
                        <path d="M13.2857896,4.5 L13.2857896,11.9934887 C13.2857896,12.3908421 12.851868,12.6185228 12.5298265,12.4234666 L12.462729,12.3751061 L9.49715707,9.86458253 L10.1432783,9.10134773 L12.2849989,10.914 L12.2857896,4.5 L13.2857896,4.5 Z" id="路径-6备份" transform="translate(11.391473, 8.497225) scale(-1, -1) translate(-11.391473, -8.497225) "></path>
                    </g>
                </g>
            </g>
        </g>
    </g>
</svg>