<?xml version="1.0" encoding="UTF-8"?>
<svg width="22px" height="22px" viewBox="0 0 22 22" version="1.1" xmlns="http://www.w3.org/2000/svg" xmlns:xlink="http://www.w3.org/1999/xlink">
    <title>icon_hx_selected</title>
    <g id="页面-1" stroke="none" stroke-width="1" fill="none" fill-rule="evenodd">
        <g id="客户360icon更新" transform="translate(-249.000000, -192.000000)">
            <g id="编组-137备份-5" transform="translate(212.000000, 28.000000)">
                <g id="icon_hx_selected" transform="translate(37.000000, 164.000000)">
                    <g id="编组-13备份-7" opacity="0">
                        <g id="编组">
                            <rect id="矩形" fill="#D8D8D8" x="0" y="0" width="22" height="22"></rect>
                            <rect id="矩形" stroke="#979797" stroke-width="0.5" x="3.25" y="3.25" width="15.5" height="15.5"></rect>
                        </g>
                    </g>
                    <g id="编组-3" transform="translate(3.000000, 3.000000)">
                        <path d="M2,0 L14,0 C15.1045695,0 16,0.8954305 16,2 L16,14 C16,15.1045695 15.1045695,16 14,16 L2,16 C0.8954305,16 0,15.1045695 0,14 L0,2 C0,0.8954305 0.8954305,0 2,0 Z" id="矩形" fill="#1A2243"></path>
                        <path d="M8.00291903,9.01602677 C5.23378997,9.01602677 2.98896734,11.2608494 2.98896734,14.0299785 L2.98896734,16.5466406 C2.98896734,16.822783 3.21282496,17.0466406 3.48896734,17.0466406 L12.5168707,17.0466406 C12.7930131,17.0466406 13.0168707,16.822783 13.0168707,16.5466406 L13.0168707,14.0299785 C13.0168707,11.2608494 10.7720481,9.01602677 8.00291903,9.01602677 Z M8.2032557,10.0209391 C10.3270287,10.1253278 12.0168707,11.8803113 12.0168707,14.0299785 L12.016,16.046 L3.988,16.046 L3.98896734,14.0299785 C3.98896734,11.8131342 5.78607472,10.0160268 8.00291903,10.0160268 L8.2032557,10.0209391 Z" id="矩形" fill="#FFFFFF" fill-rule="nonzero"></path>
                        <path d="M8,3.11090261 C6.68472948,3.11090261 5.61849205,4.17714004 5.61849205,5.49241056 C5.61849205,6.80768107 6.68472948,7.8739185 8,7.8739185 C9.31527052,7.8739185 10.3815079,6.80768107 10.3815079,5.49241056 C10.3815079,4.17714004 9.31527052,3.11090261 8,3.11090261 Z M8,4.11090261 C8.76298577,4.11090261 9.38150795,4.72942479 9.38150795,5.49241056 C9.38150795,6.25539633 8.76298577,6.8739185 8,6.8739185 C7.23701423,6.8739185 6.61849205,6.25539633 6.61849205,5.49241056 C6.61849205,4.72942479 7.23701423,4.11090261 8,4.11090261 Z" id="椭圆形备份-2" fill="#FFFFFF" fill-rule="nonzero"></path>
                    </g>
                </g>
            </g>
        </g>
    </g>
</svg>