<?xml version="1.0" encoding="UTF-8"?>
<svg width="22px" height="22px" viewBox="0 0 22 22" version="1.1" xmlns="http://www.w3.org/2000/svg" xmlns:xlink="http://www.w3.org/1999/xlink">
    <title>icon_zhfx_normal</title>
    <g id="页面-1" stroke="none" stroke-width="1" fill="none" fill-rule="evenodd">
        <g id="客户360icon更新" transform="translate(-61.000000, -242.000000)">
            <g id="编组-137备份-6" transform="translate(24.000000, 28.000000)">
                <g id="icon_zhfx_normal" transform="translate(37.000000, 214.000000)">
                    <g id="编组-13备份-6" opacity="0">
                        <g id="编组">
                            <rect id="矩形" fill="#D8D8D8" x="0" y="0" width="22" height="22"></rect>
                            <rect id="矩形" stroke="#979797" stroke-width="0.5" x="3.25" y="3.25" width="15.5" height="15.5"></rect>
                        </g>
                    </g>
                    <g id="编组-3" transform="translate(2.563325, 2.563325)" fill="#61698C" fill-rule="nonzero">
                        <path d="M8.43667497,-6.18456397e-11 C13.0961219,-6.18456397e-11 16.8733499,3.77722805 16.8733499,8.43667497 C16.8733499,13.0961219 13.0961219,16.8733499 8.43667497,16.8733499 C3.77722805,16.8733499 -9.09494702e-13,13.0961219 -9.09494702e-13,8.43667497 C-9.09494702e-13,3.77722805 3.77722805,-6.18456397e-11 8.43667497,-6.18456397e-11 Z M8.43667497,1 C4.3295128,1 1,4.3295128 1,8.43667497 C1,12.5438372 4.3295128,15.8733499 8.43667497,15.8733499 C12.5438372,15.8733499 15.8733499,12.5438372 15.8733499,8.43667497 C15.8733499,4.3295128 12.5438372,1 8.43667497,1 Z" id="椭圆形"></path>
                        <path d="M8.43610948,0.436674988 L8.43610948,7.93807914 C8.43610948,8.18353902 8.61298464,8.38768751 8.84623385,8.43002347 L8.93610948,8.43807914 L16.436675,8.43807914 L16.436675,9.43807914 L8.93610948,9.43807914 C8.15641336,9.43807914 7.5156608,8.84319105 7.44297606,8.08253915 L7.43610948,7.93807914 L7.43610948,0.436674988 L8.43610948,0.436674988 Z" id="路径-26"></path>
                    </g>
                </g>
            </g>
        </g>
    </g>
</svg>