<?xml version="1.0" encoding="UTF-8"?>
<svg width="22px" height="22px" viewBox="0 0 22 22" version="1.1" xmlns="http://www.w3.org/2000/svg" xmlns:xlink="http://www.w3.org/1999/xlink">
    <title>icon_kh_normal</title>
    <g id="页面-1" stroke="none" stroke-width="1" fill="none" fill-rule="evenodd">
        <g id="客户360icon更新" transform="translate(-61.000000, -42.000000)">
            <g id="编组-137备份-6" transform="translate(24.000000, 28.000000)">
                <g id="icon_kh_normal" transform="translate(37.000000, 14.000000)">
                    <g id="编组-34" opacity="0">
                        <rect id="矩形" fill="#D8D8D8" x="0" y="0" width="22" height="22"></rect>
                        <rect id="矩形" stroke="#979797" stroke-width="0.5" x="3.25" y="3.25" width="15.5" height="15.5"></rect>
                    </g>
                    <g id="编组-33" transform="translate(3.000000, 2.008261)" fill="#61698C">
                        <path d="M8.01362123,2.39808173e-14 C10.4379595,2.39808173e-14 12.4032741,1.96531452 12.4032741,4.38965284 C12.4032741,5.88083792 11.6597266,7.19835818 10.5231605,7.99168477 L12,7.9917393 C14.209139,7.9917393 16,9.7826003 16,11.9917393 L16,14.9917393 C16,16.0963088 15.1045695,16.9917393 14,16.9917393 L2,16.9917393 C0.8954305,16.9917393 0,16.0963088 0,14.9917393 L0,11.9917393 C0,9.7826003 1.790861,7.9917393 4,7.9917393 L5.50408199,7.99168477 C4.36751587,7.19835818 3.62396839,5.88083792 3.62396839,4.38965284 C3.62396839,1.96531452 5.58928291,2.39808173e-14 8.01362123,2.39808173e-14 Z M8.01362123,1 C6.14156766,1 4.62396839,2.51759927 4.62396839,4.38965284 C4.62396839,5.51219861 5.17249444,6.54072418 6.07644481,7.17168428 C6.84662682,7.70927364 6.51227917,8.89197118 5.61869015,8.98575823 L5.50411825,8.99168477 L4,8.9917393 C2.40231912,8.9917393 1.09633912,10.2406593 1.00509269,11.8154665 L1,11.9917393 L1,14.9917393 C1,15.5045751 1.38604019,15.9272465 1.88337887,15.9850116 L2,15.9917393 L14,15.9917393 C14.5128358,15.9917393 14.9355072,15.6056991 14.9932723,15.1083604 L15,14.9917393 L15,11.9917393 C15,10.3940584 13.75108,9.08807842 12.1762397,8.99683199 L11.9999631,8.9917393 L10.5231235,8.99168477 C9.54474286,8.99164864 9.14852501,7.731673 9.95079764,7.17168428 C10.854748,6.54072418 11.4032741,5.51219861 11.4032741,4.38965284 C11.4032741,2.51759927 9.8856748,1 8.01362123,1 Z" id="路径" fill-rule="nonzero"></path>
                        <rect id="矩形" x="7.38888889" y="9.98966232" width="1.22222222" height="4.01082722"></rect>
                    </g>
                </g>
            </g>
        </g>
    </g>
</svg>