<?xml version="1.0" encoding="UTF-8"?>
<svg width="22px" height="22px" viewBox="0 0 22 22" version="1.1" xmlns="http://www.w3.org/2000/svg" xmlns:xlink="http://www.w3.org/1999/xlink">
    <title>icon_cc_normal</title>
    <g id="页面-1" stroke="none" stroke-width="1" fill="none" fill-rule="evenodd">
        <g id="客户360icon更新" transform="translate(-61.000000, -92.000000)">
            <g id="编组-137备份-6" transform="translate(24.000000, 28.000000)">
                <g id="icon_cc_normal" transform="translate(37.000000, 64.000000)">
                    <g id="编组-2" opacity="0">
                        <g id="编组">
                            <rect id="矩形" fill="#D8D8D8" x="0" y="0" width="22" height="22"></rect>
                            <circle id="椭圆形" stroke="#979797" stroke-width="0.5" cx="11" cy="11" r="7.69444444"></circle>
                            <rect id="矩形" stroke="#979797" stroke-width="0.5" x="3.25" y="3.25" width="15.5" height="15.5"></rect>
                        </g>
                    </g>
                    <g id="编组-11" transform="translate(3.000000, 2.250288)">
                        <path d="M7.25150072,0.673648525 C7.72364311,0.442117158 8.27635689,0.442117158 8.74849928,0.673648525 L8.74849928,0.673648525 L14.5484993,3.51787929 C14.839693,3.66067621 15.0775682,3.8801031 15.2426449,4.14491124 C15.4077217,4.40971939 15.5,4.7199088 15.5,5.04423077 L15.5,5.04423077 L15.5,14.7497125 C15.5,15.163926 15.3321068,15.538926 15.0606602,15.8103726 C14.7892136,16.0818192 14.4142136,16.2497125 14,16.2497125 L14,16.2497125 L2,16.2497125 C1.58578644,16.2497125 1.21078644,16.0818192 0.939339828,15.8103726 C0.667893219,15.538926 0.5,15.163926 0.5,14.7497125 L0.5,14.7497125 L0.5,5.04423077 C0.5,4.7199088 0.592278321,4.40971939 0.757355072,4.14491124 C0.922431822,3.8801031 1.160307,3.66067621 1.45150072,3.51787929 L1.45150072,3.51787929 Z" id="矩形" stroke="#61698C"></path>
                        <path d="M7.49944227,5.86908834 C7.74490216,5.86908834 7.94905064,6.0459635 7.9913866,6.2792127 L7.99944227,6.36908834 L7.999,9.722 L12.6378362,9.7228838 L12.6378362,10.7228838 L7.49944227,10.7228838 C7.25398238,10.7228838 7.0498339,10.5460086 7.00749794,10.3127594 L6.99944227,10.2228838 L6.999,6.869 L3.6456468,6.86908834 L3.6456468,5.86908834 L7.49944227,5.86908834 Z" id="路径-35" fill="#61698C" fill-rule="nonzero" transform="translate(8.141742, 8.295986) rotate(-45.000000) translate(-8.141742, -8.295986) "></path>
                        <rect id="矩形" fill="#61698C" x="3" y="12.8377276" width="10" height="1"></rect>
                    </g>
                </g>
            </g>
        </g>
    </g>
</svg>