<?xml version="1.0" encoding="UTF-8"?>
<svg width="22px" height="22px" viewBox="0 0 22 22" version="1.1" xmlns="http://www.w3.org/2000/svg" xmlns:xlink="http://www.w3.org/1999/xlink">
    <title>icon_cc_selected</title>
    <g id="页面-1" stroke="none" stroke-width="1" fill="none" fill-rule="evenodd">
        <g id="客户360icon更新" transform="translate(-249.000000, -92.000000)">
            <g id="编组-137备份-5" transform="translate(212.000000, 28.000000)">
                <g id="icon_cc_selected" transform="translate(37.000000, 64.000000)">
                    <g opacity="0" id="编组">
                        <g>
                            <rect id="矩形" fill="#D8D8D8" x="0" y="0" width="22" height="22"></rect>
                            <circle id="椭圆形" stroke="#979797" stroke-width="0.5" cx="11" cy="11" r="7.69444444"></circle>
                            <rect id="矩形" stroke="#979797" stroke-width="0.5" x="3.25" y="3.25" width="15.5" height="15.5"></rect>
                        </g>
                    </g>
                    <g transform="translate(3.000000, 2.250288)">
                        <path d="M1.23135387,3.06895239 L7.03135387,0.22472162 C7.64236168,-0.0749072067 8.35763832,-0.0749072067 8.96864613,0.22472162 L14.7686461,3.06895239 C15.522324,3.43854441 16,4.2048092 16,5.04423077 L16,14.7497125 C16,15.854282 15.1045695,16.7497125 14,16.7497125 L2,16.7497125 C0.8954305,16.7497125 0,15.854282 0,14.7497125 L0,5.04423077 C0,4.2048092 0.477676016,3.43854441 1.23135387,3.06895239 Z" id="矩形" fill="#1A2243"></path>
                        <rect id="矩形" fill="#FFFFFF" x="3" y="12.7497125" width="10" height="1"></rect>
                        <path d="M7.49944227,5.86908834 C7.74490216,5.86908834 7.94905064,6.0459635 7.9913866,6.2792127 L7.99944227,6.36908834 L7.999,9.722 L12.6378362,9.7228838 L12.6378362,10.7228838 L7.49944227,10.7228838 C7.25398238,10.7228838 7.0498339,10.5460086 7.00749794,10.3127594 L6.99944227,10.2228838 L6.999,6.869 L3.6456468,6.86908834 L3.6456468,5.86908834 L7.49944227,5.86908834 Z" id="路径-35" fill="#FFFFFF" fill-rule="nonzero" transform="translate(8.141742, 8.295986) rotate(-45.000000) translate(-8.141742, -8.295986) "></path>
                    </g>
                </g>
            </g>
        </g>
    </g>
</svg>