<?xml version="1.0" encoding="UTF-8"?>
<svg width="22px" height="22px" viewBox="0 0 22 22" version="1.1" xmlns="http://www.w3.org/2000/svg" xmlns:xlink="http://www.w3.org/1999/xlink">
    <title>icon_tg_normal</title>
    <g id="页面-1" stroke="none" stroke-width="1" fill="none" fill-rule="evenodd">
        <g id="客户360icon更新" transform="translate(-61.000000, -392.000000)">
            <g id="编组-137备份-6" transform="translate(24.000000, 28.000000)">
                <g id="编组-4" transform="translate(37.000000, 364.000000)">
                    <g id="编组-2" opacity="0">
                        <g id="编组">
                            <rect id="矩形" fill="#D8D8D8" x="0" y="0" width="22" height="22"></rect>
                            <rect id="矩形" stroke="#979797" stroke-width="0.5" x="3.25" y="3.25" width="15.5" height="15.5"></rect>
                        </g>
                    </g>
                    <g id="编组-3" transform="translate(2.058868, 2.058868)" fill="#61698C" fill-rule="nonzero">
                        <path d="M10.1946906,0.446188614 L10.3644808,0.6020676 L11.1863252,1.44884352 C11.5701971,1.84436057 12.1002771,2.0639269 12.6513883,2.05569254 L13.8312811,2.0380633 C14.8768318,2.02244132 15.7455049,2.81870238 15.836549,3.84378285 L15.8442005,4.05098266 L15.8265712,5.2308754 C15.8183368,5.78198662 16.0379032,6.31206664 16.4334202,6.69593854 L17.2801962,7.51778295 C18.0249167,8.24057679 18.0809521,9.40566058 17.4360751,10.1946906 L17.2801962,10.3644808 L16.4334202,11.1863252 C16.0379032,11.5701971 15.8183368,12.1002771 15.8265712,12.6513883 L15.8442005,13.8312811 C15.8598224,14.8768318 15.0635614,15.7455049 14.0384809,15.836549 L13.8312811,15.8442005 L12.6513883,15.8265712 C12.1002771,15.8183368 11.5701971,16.0379032 11.1863252,16.4334202 L10.3644808,17.2801962 C9.64168697,18.0249167 8.47660317,18.0809521 7.68757313,17.4360751 L7.51778295,17.2801962 L6.69593854,16.4334202 C6.31206664,16.0379032 5.78198662,15.8183368 5.2308754,15.8265712 L4.05098266,15.8442005 C3.005432,15.8598224 2.13675887,15.0635614 2.04571474,14.0384809 L2.0380633,13.8312811 L2.05569254,12.6513883 C2.0639269,12.1002771 1.84436057,11.5701971 1.44884352,11.1863252 L0.6020676,10.3644808 C-0.142652943,9.64168697 -0.198688336,8.47660317 0.446188614,7.68757313 L0.6020676,7.51778295 L1.44884352,6.69593854 C1.84436057,6.31206664 2.0639269,5.78198662 2.05569254,5.2308754 L2.0380633,4.05098266 C2.02244132,3.005432 2.81870238,2.13675887 3.84378285,2.04571474 L4.05098266,2.0380633 L5.2308754,2.05569254 C5.78198662,2.0639269 6.31206664,1.84436057 6.69593854,1.44884352 L7.51778295,0.6020676 C8.24057679,-0.142652943 9.40566058,-0.198688336 10.1946906,0.446188614 Z M9.46010987,1.14761802 C9.10964267,0.92917037 8.65403598,0.954611547 8.32879921,1.21377947 L8.23537479,1.29853149 L7.41353038,2.1453074 C6.88570652,2.68914335 6.17359951,3.01120808 5.4218365,3.05159506 L5.21593568,3.05558093 L4.08788535,3.03738216 L3.93225117,3.04179373 C3.46181014,3.08357669 3.09130461,3.45605161 3.04314685,3.91865392 L3.03795169,4.03604293 L3.05558093,5.21593568 C3.06690319,5.9737136 2.79110164,6.70498346 2.28808283,7.26511808 L2.1453074,7.41353038 L1.33870721,8.19406845 L1.22047914,8.32040342 C0.926419402,8.68019604 0.928694754,9.1957041 1.21377947,9.55346454 L1.29853149,9.64688896 L2.1453074,10.4687334 C2.68914335,10.9965572 3.01120808,11.7086642 3.05159506,12.4604273 L3.05558093,12.6663281 L3.03738216,13.7943784 L3.04179373,13.9500126 C3.08357669,14.4204536 3.45605161,14.7909591 3.91865392,14.8391169 L4.03604293,14.8443121 L5.21593568,14.8266828 C5.9737136,14.8153606 6.70498346,15.0911621 7.26511808,15.5941809 L7.41353038,15.7369564 L8.19406845,16.5435565 L8.32040342,16.6617846 C8.68019604,16.9558444 9.1957041,16.953569 9.55346454,16.6684843 L9.64688896,16.5837323 L10.4687334,15.7369564 C10.9965572,15.1931204 11.7086642,14.8710557 12.4604273,14.8306687 L12.6663281,14.8266828 L13.7943784,14.8448816 L13.9500126,14.84047 C14.4204536,14.7986871 14.7909591,14.4262121 14.8391169,13.9636098 L14.8443121,13.8462208 L14.8266828,12.6663281 C14.8153606,11.9085502 15.0911621,11.1772803 15.5941809,10.6171457 L15.7369564,10.4687334 L16.5435565,9.6881953 L16.6617846,9.56186034 C16.9558444,9.20206771 16.953569,8.68655965 16.6684843,8.32879921 L16.5837323,8.23537479 L15.7369564,7.41353038 C15.1931204,6.88570652 14.8710557,6.17359951 14.8306687,5.4218365 L14.8266828,5.21593568 L14.8448816,4.08788535 L14.84047,3.93225117 C14.7986871,3.46181014 14.4262121,3.09130461 13.9636098,3.04314685 L13.8462208,3.03795169 L12.6663281,3.05558093 C11.9085502,3.06690319 11.1772803,2.79110164 10.6171457,2.28808283 L10.4687334,2.1453074 L9.6881953,1.33870721 L9.554,1.215 L9.46010987,1.14761802 Z" id="星形"></path>
                        <path d="M7.00137603,6.44335014 L7.001,9.411 L12.1628234,9.41191297 L12.1628234,10.411913 L6.50137603,10.411913 C6.25591614,10.411913 6.05176766,10.2350378 6.0094317,10.0017886 L6.00137603,9.91191297 L6.00137603,6.44335014 L7.00137603,6.44335014 Z" id="路径" transform="translate(9.082100, 8.427632) rotate(-45.000000) translate(-9.082100, -8.427632) "></path>
                    </g>
                </g>
            </g>
        </g>
    </g>
</svg>