<?xml version="1.0" standalone="no"?>
<!DOCTYPE svg PUBLIC "-//W3C//DTD SVG 1.1//EN" "http://www.w3.org/Graphics/SVG/1.1/DTD/svg11.dtd" >
<!--
2013-9-30: Created.
-->
<svg>
<metadata>
Created by iconfont
</metadata>
<defs>

<font id="iconfont" horiz-adv-x="1024" >
  <font-face
    font-family="iconfont"
    font-weight="500"
    font-stretch="normal"
    units-per-em="1024"
    ascent="896"
    descent="-128"
  />
    <missing-glyph />
    
    <glyph glyph-name="comment" unicode="&#59198;" d="M705.194667 608.085333H318.805333c-15.274667 0-27.562667-12.373333-27.562666-27.562666 0-15.274667 12.373333-27.562667 27.562666-27.562667h386.474667c15.274667 0 27.562667 12.373333 27.562667 27.562667 0 15.189333-12.373333 27.562667-27.648 27.562666z m0-223.317333H318.805333c-15.274667 0-27.562667-12.373333-27.562666-27.562667s12.373333-27.562667 27.562666-27.562666h386.474667c15.274667 0 27.562667 12.288 27.562667 27.562666s-12.373333 27.562667-27.648 27.562667zM852.224 853.333333H171.776c-71.168 0-129.024-59.477333-129.024-132.522666v-765.781334l0.170667-5.632c1.024-23.722667 17.322667-31.146667 22.357333-32.853333 3.669333-1.28 7.253333-1.877333 10.837333-1.877333 24.32 0 48.810667 28.757333 98.901334 87.552 30.976 36.437333 88.661333 104.106667 107.264 108.373333h570.026666c71.168 0 129.024 59.477333 129.024 132.522667V720.810667c-0.085333 73.045333-57.941333 132.522667-129.109333 132.522666z m73.813333-610.218666c0-42.666667-33.109333-77.397333-73.813333-77.397334h-570.026667c-37.717333 0-81.578667-48.298667-149.248-127.744-10.837333-12.714667-23.466667-27.562667-34.986666-40.362666V720.810667c0 42.666667 33.109333 77.397333 73.813333 77.397333h680.448c40.704 0 73.813333-34.730667 73.813333-77.397333v-477.696z"  horiz-adv-x="1024" />

    
    <glyph glyph-name="state" unicode="&#59214;" d="M974.848 138.752c-59.392 200.704-247.125333 340.906667-456.618667 340.906667-61.525333 0-121.173333-12.117333-176.213333-34.218667L234.666667 600.32c27.733333 21.845333 45.568 55.637333 45.568 93.610667 0 65.621333-53.418667 119.04-119.04 119.04S42.154667 759.552 42.154667 693.930667 95.573333 574.890667 161.194667 574.890667c10.496 0 20.736 1.365333 30.464 3.925333l106.496-153.685333C186.368 366.506667 98.816 264.533333 61.610667 138.752c-12.8-43.264-4.608-88.917333 22.528-125.269333 27.392-36.608 69.205333-57.6 114.858666-57.6h638.549334c45.568 0 87.466667 20.992 114.858666 57.6 27.050667 36.352 35.242667 82.005333 22.442667 125.269333zM89.770667 693.930667c0 39.424 32 71.424 71.424 71.424s71.424-32 71.424-71.424-32-71.424-71.424-71.424c-39.509333 0-71.424 32-71.424 71.424z m747.690666-690.432H198.997333c-63.317333 0-109.653333 61.013333-91.733333 121.770666 52.48 177.322667 216.576 306.773333 410.965333 306.773334s358.485333-129.365333 410.965334-306.773334c18.005333-60.757333-28.330667-121.770667-91.733334-121.770666z"  horiz-adv-x="1024" />

    
    <glyph glyph-name="shareLine1" unicode="&#59215;" d="M918.101333 581.546667L645.802667 853.930667l-34.048-34.048 272.384-272.384c7.850667-7.850667 13.738667-17.237333 17.237333-27.477334-521.728-11.946667-831.573333-236.117333-831.573333-604.757333h48.128c0 338.688 291.669333 544.853333 783.104 556.629333-3.584-9.813333-9.216-18.858667-16.896-26.453333L611.754667 172.970667l34.048-34.048L918.101333 411.306667c22.784 22.698667 35.242667 52.906667 35.242667 85.077333 0.085333 32.256-12.458667 62.464-35.242667 85.162667z"  horiz-adv-x="1024" />

    
    <glyph glyph-name="feedback" unicode="&#59216;" d="M938.496 810.922667c-27.392 27.306667-63.744 42.410667-102.485333 42.410666s-75.093333-15.104-102.485334-42.410666c-27.392-27.392-42.410667-63.744-42.410666-102.485334 0-38.741333 15.104-75.093333 42.410666-102.485333 27.392-27.392 63.744-42.410667 102.485334-42.410667s75.093333 15.104 102.485333 42.410667c27.392 27.392 42.410667 63.744 42.410667 102.485333 0 38.741333-15.104 75.093333-42.410667 102.485334z m-34.218667-170.752c-18.858667-18.858667-43.605333-28.330667-68.266666-28.330667-24.746667 0-49.408 9.472-68.266667 28.330667-37.717333 37.717333-37.717333 98.901333 0 136.618666 18.858667 18.858667 43.605333 28.330667 68.266667 28.330667 24.746667 0 49.408-9.472 68.266666-28.330667 37.802667-37.802667 37.802667-98.901333 0-136.618666zM187.136 204.458667c-38.741333 0-75.093333-15.104-102.485333-42.410667-27.392-27.392-42.410667-63.744-42.410667-102.485333 0-38.741333 15.104-75.093333 42.410667-102.485334 27.392-27.392 63.744-42.410667 102.485333-42.410666s75.093333 15.104 102.485333 42.410666c27.392 27.392 42.410667 63.744 42.410667 102.485334 0 38.741333-15.104 75.093333-42.410667 102.485333-27.392 27.306667-63.829333 42.410667-102.485333 42.410667z m68.266667-213.162667c-18.858667-18.858667-43.605333-28.330667-68.266667-28.330667-24.746667 0-49.408 9.472-68.266667 28.330667-37.802667 37.717333-37.802667 98.816-0.085333 136.533333 18.858667 18.858667 43.605333 28.330667 68.266667 28.330667 24.746667 0 49.408-9.472 68.266666-28.330667 37.802667-37.717333 37.802667-98.816 0.085334-136.533333z m273.237333 546.389333L357.888 366.933333c-37.632-37.632-37.632-98.986667 0-136.618666 18.858667-18.858667 43.52-28.245333 68.352-28.245334 24.746667 0 49.493333 9.472 68.266667 28.245334L665.258667 401.066667c37.632 37.632 37.632 98.986667 0 136.618666-37.632 37.546667-98.986667 37.632-136.618667 0zM631.125333 435.2L460.373333 264.448c-18.773333-18.858667-49.408-18.858667-68.352 0-18.858667 18.858667-18.773333 49.493333 0 68.266667L562.773333 503.466667c18.773333 18.858667 49.408 18.944 68.352 0 18.773333-18.773333 18.773333-49.408 0-68.266667z"  horiz-adv-x="1024" />

    
    <glyph glyph-name="maintain" unicode="&#59217;" d="M789.504-81.92c-49.066667 0-98.133333 18.517333-135.424 55.637333L482.304 144.298667c-151.381333-34.304-306.261333 30.976-388.949333 164.949333-50.005333 81.066667-64 181.76-38.4 276.138667l10.581333 38.826666 179.541333-178.346666c5.12-5.034667 13.397333-5.034667 18.432 0l186.282667 185.088c5.034667 5.034667 5.034667 13.226667 0 18.261333l-177.92 176.64 39.424 10.325333C437.333333 869.290667 566.613333 835.157333 657.237333 745.045333c86.613333-86.016 122.538667-211.712 95.573334-331.093333l172.117333-170.922667c36.181333-35.925333 56.149333-83.797333 56.149333-134.570666 0-50.858667-19.968-98.730667-56.149333-134.656-37.376-37.12-86.442667-55.722667-135.424-55.722667zM510.549333 182.016l176.554667-175.36c56.405333-55.978667 148.224-55.978667 204.629333 0 27.306667 27.221333 42.410667 63.317333 42.410667 101.717333s-15.018667 74.496-42.410667 101.717334L700.501333 398.592l3.584 13.312c28.928 107.52-1.706667 222.549333-79.957333 300.288-68.778667 68.352-163.242667 99.413333-259.242667 87.125333l118.016-117.248c23.296-23.210667 23.296-60.928 0-84.138666L296.618667 412.928c-22.613333-22.442667-62.037333-22.528-84.650667 0L91.904 532.138667c-9.216-69.376 5.205333-139.946667 41.301333-198.485334 74.410667-120.405333 215.381333-177.066667 350.890667-140.885333l13.312 3.498667 13.141333-14.250667z"  horiz-adv-x="1024" />

    
    <glyph glyph-name="icon-lessthan" unicode="&#59431;" d="M135.552 512l582.784 291.392a32 32 0 0 1-28.672 57.216l-640-320a32 32 0 0 1 0-57.216l640-320a32 32 0 1 1 28.672 57.216L135.552 512z"  horiz-adv-x="1365" />

    
    <glyph glyph-name="icon-equal" unicode="&#59445;" d="M288 608h832a32 32 0 1 0 0-64h-832a32 32 0 0 0 0 64z m0-256h832a32 32 0 1 0 0-64h-832a32 32 0 1 0 0 64z"  horiz-adv-x="1408" />

    
    <glyph glyph-name="icon-GE" unicode="&#59446;" d="M585.856 608l-565.76 226.304a32 32 0 0 0 23.808 59.392l640-256a32 32 0 0 0 0-59.392l-640-256a32 32 0 1 0-23.744 59.392L585.856 608z m-565.76-418.304l640 256a32 32 0 1 0 23.808-59.392l-640-256a32 32 0 1 0-23.808 59.392z"  horiz-adv-x="1365" />

    
    <glyph glyph-name="icon-loadingS" unicode="&#59447;" d="M512 864a32 32 0 0 0 0-64A416 416 0 1 1 928 384a32 32 0 1 0 64 0A480 480 0 1 0 512 864z"  horiz-adv-x="1024" />

    
    <glyph glyph-name="icon-matchrange" unicode="&#59449;" d="M928 672h-832v-128a32 32 0 1 0-64 0v320a32 32 0 0 0 64 0v-128h832v128a32 32 0 1 0 64 0v-320a32 32 0 1 0-64 0v128z"  horiz-adv-x="2730" />

    
    <glyph glyph-name="icon-inclusion" unicode="&#59450;" d="M455.111111 640h341.333333v-512H455.111111zM290.588444 526.222222h44.600889l91.477334-284.444444h-41.870223L362.951111 313.116444H262.769778L240.981333 241.777778H199.111111l91.477333 284.444444z m-16.099555-174.876444h76.8l-37.546667 124.700444H312.32l-37.888-124.700444zM512 526.222222h128.284444c27.875556 0 49.834667-6.769778 65.536-20.309333 14.506667-12.743111 21.959111-29.866667 21.959112-51.427556 0-15.928889-3.925333-29.468444-11.377778-40.618666a69.176889 69.176889 0 0 0-32.142222-23.495111c18.432-3.584 32.142222-11.150222 41.528888-22.755556 9.102222-11.093333 13.767111-26.624 13.767112-45.738667 0-28.728889-9.784889-49.834667-29.013334-63.374222-16.497778-11.150222-40.049778-16.725333-69.859555-16.725333H512v284.444444z m45.909333-38.229333v-81.294222H628.053333c19.626667 0 33.393778 3.584 41.585778 9.955555 7.850667 6.826667 12.174222 17.521778 12.174222 32.256 0 13.596444-4.323556 23.552-12.174222 29.525334-8.590222 6.371556-21.959111 9.557333-40.789333 9.557333H557.909333z m0-119.523556v-88.462222h76.117334c17.237333 0 31.004444 2.844444 40.789333 8.362667 12.515556 7.168 18.830222 18.318222 18.830222 34.304 0 16.327111-4.721778 27.875556-13.710222 35.043555-9.443556 7.168-24.348444 10.752-44.714667 10.752h-77.368889zM943.559111 526.222222c29.297778 0 53.76-8.419556 72.590222-25.315555 18.147556-16.099556 29.013333-38.343111 32.824889-65.934223h-39.822222c-4.152889 18.033778-11.832889 31.061333-23.324444 39.480889-11.207111 8.476444-25.543111 12.288-42.951112 12.288-26.168889 0-45.738667-9.614222-58.993777-29.525333-12.231111-17.635556-18.204444-42.154667-18.204445-73.614222 0-32.199111 5.973333-57.116444 17.863111-74.353778 12.913778-18.375111 33.109333-27.989333 60.359111-27.989333 17.806222 0 32.426667 5.006222 43.633778 14.222222 11.832889 10.296889 20.252444 26.055111 25.144889 46.705778h39.765333c-5.575111-32.199111-18.488889-57.116444-39.082666-75.093334a101.148444 101.148444 0 0 0-69.12-25.315555c-41.528889 0-72.590222 14.563556-92.842667 42.951111-17.806222 24.519111-26.510222 57.457778-26.510222 98.872889 0 40.675556 9.102222 73.955556 27.591111 99.328 20.935111 29.127111 51.313778 43.292444 91.022222 43.292444z"  horiz-adv-x="1308" />

    
    <glyph glyph-name="icon-match-forwards1" unicode="&#59451;" d="M0 864h704v-576H0zM166.912 736h50.176L320 416h-47.104L248.32 496.256H135.616L111.104 416H64l102.912 320z m-18.112-196.736h86.4l-42.24 140.288H191.36l-42.624-140.288zM384 736h144.32c31.36 0 56.064-7.616 73.728-22.848 16.32-14.336 24.704-33.6 24.704-57.856 0-17.92-4.416-33.152-12.8-45.696a77.824 77.824 0 0 0-36.16-26.432c20.736-4.032 36.16-12.544 46.72-25.6 10.24-12.48 15.488-29.952 15.488-51.456 0-32.32-11.008-56.064-32.64-71.296-18.56-12.544-45.056-18.816-78.592-18.816H384v320z m51.648-43.008v-91.456H514.56c22.08 0 37.568 4.032 46.784 11.2 8.832 7.68 13.696 19.712 13.696 36.288 0 15.296-4.864 26.496-13.696 33.216-9.664 7.168-24.704 10.752-45.888 10.752H435.648z m0-134.464v-99.52h85.632c19.392 0 34.88 3.2 45.888 9.408 14.08 8.064 21.184 20.608 21.184 38.592 0 18.368-5.312 31.36-15.424 39.424-10.624 8.064-27.392 12.096-50.304 12.096h-87.04zM869.504 736c32.96 0 60.48-9.472 81.664-28.48 20.416-18.112 32.64-43.136 36.928-74.176h-44.8c-4.672 20.288-13.312 34.944-26.24 44.416-12.608 9.536-28.736 13.824-48.32 13.824-29.44 0-51.456-10.816-66.368-33.216-13.76-19.84-20.48-47.424-20.48-82.816 0-36.224 6.72-64.256 20.096-83.648 14.528-20.672 37.248-31.488 67.904-31.488 20.032 0 36.48 5.632 49.088 16 13.312 11.584 22.784 29.312 28.288 52.544h44.736c-6.272-36.224-20.8-64.256-43.968-84.48a113.792 113.792 0 0 0-77.76-28.48c-46.72 0-81.664 16.384-104.448 48.32-20.032 27.584-29.824 64.64-29.824 111.232 0 45.76 10.24 83.2 31.04 111.744 23.552 32.768 57.728 48.704 102.4 48.704z"  horiz-adv-x="1638" />

    
    <glyph glyph-name="icon-matchbackwards" unicode="&#59452;" d="M320 864h704v-576H320zM134.912 736h50.176l102.912-320h-47.104L216.32 496.256H103.616L79.104 416H32l102.912 320z m-18.112-196.736h86.4l-42.24 140.288H159.36l-42.624-140.288zM384 736h144.32c31.36 0 56.064-7.616 73.728-22.848 16.32-14.336 24.704-33.6 24.704-57.856 0-17.92-4.416-33.152-12.8-45.696a77.824 77.824 0 0 0-36.16-26.432c20.736-4.032 36.16-12.544 46.72-25.6 10.24-12.48 15.488-29.952 15.488-51.456 0-32.32-11.008-56.064-32.64-71.296-18.56-12.544-45.056-18.816-78.592-18.816H384v320z m51.648-43.008v-91.456H514.56c22.08 0 37.568 4.032 46.784 11.2 8.832 7.68 13.696 19.712 13.696 36.288 0 15.296-4.864 26.496-13.696 33.216-9.664 7.168-24.704 10.752-45.888 10.752H435.648z m0-134.464v-99.52h85.632c19.392 0 34.88 3.2 45.888 9.408 14.08 8.064 21.184 20.608 21.184 38.592 0 18.368-5.312 31.36-15.424 39.424-10.624 8.064-27.392 12.096-50.304 12.096h-87.04zM837.504 736c32.96 0 60.48-9.472 81.664-28.48 20.416-18.112 32.64-43.136 36.928-74.176h-44.8c-4.672 20.288-13.312 34.944-26.24 44.416-12.608 9.536-28.736 13.824-48.32 13.824-29.44 0-51.456-10.816-66.368-33.216-13.76-19.84-20.48-47.424-20.48-82.816 0-36.224 6.72-64.256 20.096-83.648 14.528-20.672 37.248-31.488 67.904-31.488 20.032 0 36.48 5.632 49.088 16 13.312 11.584 22.784 29.312 28.288 52.544H960c-6.272-36.224-20.8-64.256-43.968-84.48a113.792 113.792 0 0 0-77.76-28.48c-46.72 0-81.664 16.384-104.448 48.32-20.032 27.584-29.824 64.64-29.824 111.232 0 45.76 10.24 83.2 31.04 111.744 23.552 32.768 57.728 48.704 102.4 48.704z"  horiz-adv-x="1638" />

    
    <glyph glyph-name="home" unicode="&#59137;" d="M960.426667 424.789333l-405.333334 412.586667c-25.173333 21.248-61.866667 21.248-87.04 0l-405.333333-412.672c-17.664-14.421333-23.210667-39.082667-13.312-59.648 10.666667-21.504 32.938667-34.730667 56.832-33.792h93.696V18.773333c0-27.648 10.922667-54.101333 30.464-73.642666 19.456-19.541333 45.909333-30.549333 73.472-30.549334h150.442667V178.688c0 31.573333 25.770667 57.429333 57.258666 57.429333 31.488 0 57.258667-25.856 57.258667-57.429333V-85.333333h150.442667c27.562667 0 53.930667 11.008 73.472 30.549333 19.456 19.541333 30.464 45.994667 30.464 73.642667V331.349333h93.696c23.978667-0.938667 46.165333 12.288 56.832 33.792 9.898667 20.565333 4.352 45.312-13.312 59.648z m-448.853334-28.672c-32.085333 0-58.197333 26.112-58.197333 58.368 0 32.256 26.026667 58.368 58.197333 58.368 32.085333 0 58.197333-26.112 58.197334-58.368-0.085333-32.256-26.112-58.368-58.197334-58.368z"  horiz-adv-x="1024" />

    
    <glyph glyph-name="preservation" unicode="&#59107;" d="M805.632-41.813333H218.368c-73.386667 0-133.034667 59.648-133.034667 133.034666V678.485333c0 73.386667 59.648 133.034667 133.034667 133.034667h587.264c73.386667 0 133.034667-59.648 133.034667-133.034667v-587.264c0-73.386667-59.648-133.034667-133.034667-133.034666zM218.368 726.186667c-26.282667 0-47.701333-21.418667-47.701333-47.701334v-587.264c0-26.282667 21.418667-47.701333 47.701333-47.701333h587.264c26.282667 0 47.701333 21.418667 47.701333 47.701333V678.485333c0 26.282667-21.418667 47.701333-47.701333 47.701334H218.368zM259.157333 314.538667h504.832v-85.333334H259.157333zM757.930667 409.941333H266.069333V747.264h85.333334v-251.989333h321.194666V766.890667h85.333334z"  horiz-adv-x="1024" />

    
    <glyph glyph-name="icon-uploading" unicode="&#59416;" d="M509.8496 876.8a32 32 0 0 0 0-64 426.6496 426.6496 0 1 1 426.7008-426.6496 32 32 0 1 0 64 0A490.6496 490.6496 0 1 0 509.8496 876.8zM896 554.6496A42.6496 42.6496 0 1 0 896 640a42.6496 42.6496 0 0 0 0-85.3504z m-170.6496 170.7008a42.6496 42.6496 0 1 0 0 85.2992 42.6496 42.6496 0 0 0 0-85.2992z"  horiz-adv-x="1024" />

    
    <glyph glyph-name="wode" unicode="&#59525;" d="M961.95781437-57.30181405999997a37.96322062 37.96322062 0 0 0-38.02321781-37.87322438 37.96322062 37.96322062 0 0 0-38.03821687 37.87322438c0 201.80054062-164.90227031 365.99784375-367.58776875 365.99784375-202.68549938 0-367.58776969-164.19730312-367.58776969-365.99784375a37.94822156 37.94822156 0 0 0-38.02321781-37.87322438A37.96322062 37.96322062 0 0 0 74.67440562-57.30181405999997c0 213.23000437 152.51285062 391.63164187 354.62837719 432.77471344-96.02549906 35.92331625-164.49728906 127.94400281-164.49728906 236.10393281 0 139.40346563 113.49967969 252.40816875 253.50311719 252.40816875 140.01843656 0 253.51811625-113.00470312 253.51811625-252.40816875 0-108.15993-68.47179-200.18061656-164.49728906-236.10393282C809.42996469 334.32982875000005 961.95781437 155.92819125000005 961.95781437-57.30181405999997zM695.7652925 611.57683219c0 97.42043344-79.60126875 176.69171719-177.45668156 176.69171812-97.84041375 0-177.45668156-79.27128375-177.4566825-176.69171812 0-97.42043344 79.61626781-176.69171719 177.4566825-176.69171719 97.85541281 0 177.45668156 79.27128375 177.45668156 176.69171719zM276.5649425 44.37841968999999a260.65778156 260.65778156 0 0 0 56.21736469 83.06610656c11.81944594 11.75944875 24.88383375 22.49894531 38.80318125 31.85850656a34.34839031 34.34839031 0 0 0 47.5177725-9.14957156 34.01840531 34.01840531 0 0 0-9.19456875-47.33778094 195.23084812 195.23084812 0 0 1-52.42254281-52.16755406 191.96100187 191.96100187 0 0 1-33.10344844-107.94994031 34.15339875 34.15339875 0 0 0-34.22839594-34.06340344 34.15339875 34.15339875 0 0 0-34.228395 34.06340344 259.00785938 259.00785938 0 0 0 20.6390325 101.68023375z"  horiz-adv-x="1024" />

    
    <glyph glyph-name="icon-user" unicode="&#59417;" d="M409.984 405.12a256.064 256.064 0 1 0 204.032 0A480.192 480.192 0 0 0 992-64a32 32 0 1 0-64 0 416 416 0 1 1-832 0 32 32 0 1 0-64 0c0 230.08 161.92 422.4 377.984 469.12zM512 448a192 192 0 1 1 0 384 192 192 0 0 1 0-384z m352-512a32 32 0 1 0-64 0c0 62.976-20.224 122.816-57.088 172.16a32 32 0 1 0 51.2 38.336A350.528 350.528 0 0 0 864-64z"  horiz-adv-x="1024" />

    
    <glyph glyph-name="kyc" unicode="&#59108;" d="M858.88 811.690667H724.992C710.826667 835.925333 684.885333 852.48 654.848 852.48H366.592c-30.037333 0-55.978667-16.469333-70.144-40.789333H161.962667c-44.970667 0-81.408-36.437333-81.408-81.322667v-735.232c0-44.8 36.522667-81.322667 81.408-81.322667H859.306667c44.970667 0.085333 81.408 36.437333 81.408 81.322667V730.368c-0.085333 45.056-36.778667 81.408-81.834667 81.322667z m-204.202667-41.216l0.170667-81.237334-288.085333 0.426667v80.810667l-0.170667 0.426666 288.085333-0.426666z m-492.288-775.338667l-0.341333 734.890667H285.013333v-40.448c0-45.226667 36.608-82.005333 81.578667-82.005334h288.256c45.226667 0.170667 81.749333 36.864 81.578667 82.005334v40.448l122.624 0.341333 0.341333-734.976-697.002667-0.256zM724.821333 471.04c-16.64 15.189333-42.496 14.08-57.770666-2.56L473.258667 256.938667l-79.36 88.746666c-15.018667 16.810667-40.874667 18.261333-57.685334 3.242667-16.810667-15.018667-18.346667-40.789333-3.242666-57.6l109.482666-122.453333c7.68-8.618667 18.688-13.568 30.293334-13.653334h0.256c11.434667 0 22.442667 4.778667 30.122666 13.226667l224.426667 244.906667c15.104 16.64 13.994667 42.496-2.730667 57.685333z"  horiz-adv-x="1024" />

    
    <glyph glyph-name="icon-unequal" unicode="&#59418;" d="M355.648 352l110.848 192H32a32 32 0 0 0 0 64h471.424l141.056 244.288a32 32 0 0 0 55.424-32L577.344 608H864a32 32 0 1 0 0-64H540.416l-110.848-192H864a32 32 0 1 0 0-64H392.576l-140.672-243.648a32 32 0 0 0-55.424 32L318.72 288H32a32 32 0 1 0 0 64h323.648z"  horiz-adv-x="1170" />

    
    <glyph glyph-name="accountAnalysis" unicode="&#59109;" d="M939.690667 15.872H776.448v81.664c90.112 0 163.242667 73.045333 163.242667 163.242667V668.842667c0 90.112-73.130667 163.242667-163.242667 163.242666H245.845333c-90.197333 0-163.242667-73.130667-163.242666-163.242666v-408.149334c0-90.197333 73.130667-163.242667 163.242666-163.242666v-81.664H82.602667c-22.528 0-40.789333-18.261333-40.789334-40.789334s18.261333-40.789333 40.789334-40.789333h857.002666c22.528 0 40.789333 18.261333 40.789334 40.789333 0.085333 22.613333-18.176 40.874667-40.704 40.874667zM164.266667 260.693333V668.842667c0 45.056 36.608 81.664 81.578666 81.664h530.517334c44.970667 0 81.578667-36.608 81.578666-81.664v-408.149334c0-44.970667-36.608-81.578667-81.578666-81.578666H245.845333c-44.970667 0-81.578667 36.608-81.578666 81.578666z m530.517333-244.821333H327.509333v81.664h367.274667v-81.664z m-81.578667 571.306667c-28.16 0-54.101333-9.557333-74.837333-25.514667l-89.429333 75.264c-3.925333 17.664-19.285333 30.976-37.888 31.914667l-4.266667 3.584-2.986667-3.584h-76.288c-22.528 0-40.789333-18.261333-40.789333-40.789334s18.261333-40.789333 40.789333-40.789333h53.76l112.64-94.805333c-2.048-8.874667-3.157333-18.176-3.157333-27.648 0-15.872 3.072-31.061333 8.533333-45.056l-101.376-77.397334h-70.4c-22.528 0-40.789333-18.261333-40.789333-40.789333s18.261333-40.789333 40.789333-40.789333h81.664c4.266667 0 8.277333 0.682667 12.117334 1.792l1.536-1.621334 7.338666 5.632c2.56 1.536 4.949333 3.328 7.082667 5.376l114.176 87.125334c18.176-10.666667 39.253333-16.725333 61.781333-16.725334 67.584 0 122.453333 54.784 122.453334 122.453334-0.085333 67.584-54.869333 122.368-122.453334 122.368z m0-183.637334c-1.109333 0-2.218667 0-3.328 0.085334l3.498667 2.645333-54.613333 58.794667-6.570667-5.034667c-0.085333 1.536-0.170667 3.157333-0.170667 4.693333 0 2.816 0.170667 5.546667 0.597334 8.192l37.802666 44.970667-2.816 2.389333c7.850667 3.669333 16.554667 5.632 25.685334 5.632 33.792 0 61.184-27.477333 61.184-61.184s-27.562667-61.184-61.269334-61.184zM409.088 505.6H286.72v-81.664h122.453333v81.664z"  horiz-adv-x="1024" />

    
    <glyph glyph-name="icon-checkcopy" unicode="&#59422;" d="M368.649103 257.38209l543.058008 543.058008c20.032807 20.032807 52.736967 19.670768 73.131812-0.724078a51.712 51.712 0 0 0 0.784417-73.192151l-579.261875-579.261876a51.712 51.712 0 0 0-73.192152 0.784418L37.625077 443.590647c-20.394845 20.394845-20.696544 53.159345-0.724077 73.131811 20.032807 20.032807 52.736967 19.670768 73.131812-0.724077l258.616291-258.616291z"  horiz-adv-x="1365" />

    
    <glyph glyph-name="customerInfo" unicode="&#59110;" d="M536.064 176.981333c0-19.370667 15.616-35.157333 34.730667-35.157333H906.24c19.114667 0 34.730667 15.786667 34.730667 35.157333s-15.530667 35.157333-34.730667 35.157334H570.794667c-19.114667 0-34.730667-15.786667-34.730667-35.157334z m148.053333 214.016c47.018667 50.944 72.96 117.418667 72.96 187.221334C757.077333 729.429333 636.074667 852.48 487.338667 852.48S217.6 729.429333 217.6 578.218667c0-95.232 48.896-183.552 128.512-233.386667-75.349333-30.122667-139.946667-81.322667-187.477333-148.821333-51.029333-72.448-77.994667-157.866667-77.994667-247.04 0-19.370667 15.530667-35.157333 34.730667-35.157334 19.114667 0 34.730667 15.786667 34.730666 35.157334 0 195.754667 156.501333 355.072 348.842667 355.072 2.474667 0 5.12 0.341333 7.850667 1.024 67.584 4.864 130.645333 35.413333 177.322666 85.930666z m-196.778666-16.810666c-110.506667 0-200.362667 91.477333-200.362667 204.032 0 112.469333 89.856 203.946667 200.362667 203.946666s200.362667-91.477333 200.362666-204.032c0-54.442667-20.906667-105.642667-58.794666-144.298666-37.888-38.4-88.234667-59.648-141.568-59.648z m418.901333-357.632H570.794667c-19.114667 0-34.730667-15.786667-34.730667-35.157334 0-19.370667 15.616-35.157333 34.730667-35.157333H906.24c19.114667 0 34.730667 15.786667 34.730667 35.157333 0 19.456-15.616 35.157333-34.730667 35.157334z"  horiz-adv-x="1024" />

    
    <glyph glyph-name="icon-error" unicode="&#59423;" d="M512-128C229.248-128 0 101.248 0 384S229.248 896 512 896s512-229.248 512-512-229.248-512-512-512z m46.208 503.466667l181.034667 181.034666a36.565333 36.565333 0 1 1-51.754667 51.712l-180.992-181.034666-181.034667 181.034666a36.565333 36.565333 0 0 1-51.712-51.712l181.034667-181.034666-181.034667-181.034667a36.565333 36.565333 0 1 1 51.712-51.712l181.034667 181.034667 180.992-181.034667a36.565333 36.565333 0 0 1 51.754667 51.712L558.208 375.466667z"  horiz-adv-x="1024" />

    
    <glyph glyph-name="position1" unicode="&#59111;" d="M777.898667 767.146667c-22.613333 0-40.96-19.114667-40.96-42.666667s18.346667-42.666667 40.96-42.666667c45.141333 0 81.92-38.229333 81.92-85.333333v-512c0-47.104-36.778667-85.333333-81.92-85.333333H245.248c-45.141333 0-81.92 38.229333-81.92 85.333333V596.48c0 47.104 36.778667 85.333333 81.92 85.333333 22.613333 0 40.96 19.114667 40.96 42.666667s-18.346667 42.666667-40.96 42.666667c-90.368 0-163.925333-76.544-163.925333-170.666667v-512c0-94.122667 73.472-170.666667 163.925333-170.666667h532.650667c90.368 0 163.925333 76.544 163.925333 170.666667V596.48c0 94.122667-73.557333 170.666667-163.925333 170.666667zM368.128 596.48c22.613333 0 40.96 19.114667 40.96 42.666667V809.813333c0 23.552-18.346667 42.666667-40.96 42.666667s-40.96-19.114667-40.96-42.666667v-170.666666c0-23.552 18.346667-42.666667 40.96-42.666667z m286.805333 0c22.613333 0 40.96 19.114667 40.96 42.666667V809.813333c0 23.552-18.346667 42.666667-40.96 42.666667s-40.96-19.114667-40.96-42.666667v-170.666666c0-23.552 18.346667-42.666667 40.96-42.666667z m-163.84 85.333333h40.96c22.613333 0 40.96 19.114667 40.96 42.666667s-18.346667 42.666667-40.96 42.666667h-40.96c-22.613333 0-40.96-19.114667-40.96-42.666667s18.346667-42.666667 40.96-42.666667z m14.592-457.557333c-0.938667 0-76.714667 87.978667-103.850666 118.016v0.085333l-0.938667 1.962667-7.509333 7.765333c0 0.938667-0.938667 1.962667-0.938667 1.962667-10.325333 10.666667-26.197333 10.666667-35.584 0L236.885333 230.826667c-9.386667-9.728-9.386667-26.112 0-35.84 9.386667-9.642667 25.258667-9.642667 34.645334 0l102.144 103.765333c35.584-40.618667 112.384-126.805333 134.826666-124.842667 19.114667 0.768 122.965333 108.202667 166.314667 153.941334l69.546667-72.106667 10.325333 205.568-184.405333-25.173333 69.717333-72.277334c-39.424-42.666667-129.962667-138.837333-134.314667-139.605333z"  horiz-adv-x="1024" />

    
    <glyph glyph-name="icon-arrow-right" unicode="&#59424;" d="M360.0384 395.5712l405.0944 391.168a51.2 51.2 0 0 1-71.0656 73.728L252.1088 433.664a51.2 51.2 0 0 1-1.3312-72.3968l426.8032-441.9584a51.2 51.2 0 1 1 73.728 71.0656L360.0384 395.5712z"  horiz-adv-x="1024" />

    
    <glyph glyph-name="profile" unicode="&#59112;" d="M502.954667 493.824c15.36 0 30.378667 6.229333 41.216 17.152 10.837333 10.922667 17.066667 25.941333 17.066666 41.386667s-6.229333 30.464-17.066666 41.386666c-10.837333 10.922667-25.856 17.152-41.216 17.152-15.36 0-30.378667-6.229333-41.216-17.152-10.837333-10.922667-17.066667-25.941333-17.066667-41.386666s6.229333-30.464 17.066667-41.386667c10.837333-10.922667 25.856-17.152 41.216-17.152z m205.482666 0c15.36 0 30.378667 6.229333 41.216 17.152 10.837333 10.922667 16.981333 25.941333 16.981334 41.386667 0 15.36-6.229333 30.464-16.981334 41.386666-10.837333 10.922667-25.856 17.152-41.216 17.152-15.36 0-30.378667-6.229333-41.216-17.152-10.837333-10.922667-17.066667-25.941333-17.066666-41.386666 0-15.36 6.229333-30.464 17.066666-41.386667 10.922667-10.922667 25.941333-17.152 41.216-17.152z m-411.050666 0c15.36 0 30.378667 6.229333 41.216 17.152 10.837333 10.922667 16.981333 25.941333 16.981333 41.386667 0 15.36-6.229333 30.464-17.066667 41.386666-10.837333 10.922667-25.856 17.152-41.216 17.152-15.36 0-30.378667-6.229333-41.216-17.152-10.837333-10.922667-16.981333-25.941333-16.981333-41.386666s6.229333-30.464 16.981333-41.386667c11.008-10.922667 26.026667-17.152 41.301334-17.152zM271.36 293.376h342.528c18.346667 0 33.877333 15.616 33.877333 34.048 0 18.432-15.530667 34.048-33.877333 34.048H271.36c-18.688 0-33.877333-15.274667-33.877333-34.048 0-18.517333 15.530667-34.048 33.877333-34.048z m628.053333 516.864c-15.530667 22.186667-37.376 36.522667-61.525333 40.448-11.349333 1.877333-22.442667 1.792-33.194667 1.792H201.386667c-29.269333 0-58.453333-14.933333-76.202667-39.082667-16.128-21.845333-24.661333-47.445333-24.661333-73.898666v-712.874667c0-27.306667 9.130667-53.674667 26.538666-76.288 17.322667-22.528 45.824-36.608 74.496-36.608h606.890667c10.581333 0 21.418667 0.170667 32.597333 2.304 20.821333 3.925333 42.410667 18.005333 56.234667 36.778667 16.128 21.845333 24.405333 46.506667 24.661333 73.386666V738.304c-0.170667 25.770667-8.106667 51.285333-22.528 71.936z m-45.568-789.162667c-0.170667-0.768-0.341333-1.792-0.512-3.072-0.170667-1.28-0.512-3.328-0.682666-3.84-0.512-1.962667-1.109333-4.096-1.877334-6.485333l-0.256-0.512c-0.682667-1.536-1.536-3.072-2.56-4.949333-0.256-0.512-1.450667-2.304-2.048-3.242667-0.426667-0.597333-0.768-1.194667-1.024-1.621333-1.024-1.194667-2.048-2.389333-3.157333-3.498667-0.512-0.512-2.474667-2.218667-3.328-2.986667l-0.597333-0.597333c-1.450667-1.024-2.986667-1.962667-4.864-3.072l-0.512-0.256-0.512-0.256c-0.256-0.085333-0.597333-0.256-0.682667-0.256-1.792-0.682667-3.84-1.194667-6.570667-1.877333-0.768-0.085333-1.536-0.085333-2.218666-0.085334H200.021333c-0.768 0-1.536 0.085333-2.304 0.085334l-0.768 0.170666c-2.133333 0.426667-4.352 1.194667-6.4 1.877334l-2.304 1.28c-1.621333 0.938667-3.242667 2.048-4.778666 3.157333l-0.085334 0.085333c-1.28 1.194667-2.56 2.389333-3.669333 3.669334-0.426667 0.426667-1.706667 2.133333-2.474667 3.072-0.426667 0.512-0.768 0.938667-1.024 1.365333l-2.56 4.352c-0.341333 0.597333-1.28 2.901333-1.792 4.010667-0.256 0.597333-0.512 1.109333-0.682666 1.536-0.597333 1.877333-1.194667 4.010667-1.792 6.570666-0.341333 1.28-0.512 2.56-0.768 3.925334-0.170667 2.133333-0.256 4.437333-0.256 6.656V740.010667c0 1.877333 0.085333 3.754667 0.256 6.314666 0.085333 0.512 0.170667 1.024 0.256 1.365334v0.170666c0.341333 1.706667 0.682667 3.413333 1.365333 5.802667 0.170667 0.597333 0.938667 2.730667 1.28 3.925333 0.256 0.768 0.512 1.536 0.682667 2.133334 0.682667 1.450667 1.450667 2.901333 2.218666 4.352 0.256 0.426667 1.194667 1.877333 1.792 2.730666 0.682667 1.024 1.109333 1.706667 1.536 2.304 1.28 1.450667 2.56 2.901333 4.010667 4.352 0.597333 0.597333 1.194667 1.194667 1.877333 1.792 2.048 1.536 4.266667 2.816 6.058667 3.84 0.170667 0.085333 0.341333 0.170667 0.597333 0.341334l0.170667 0.085333c0.341333 0.170667 0.682667 0.256 0.938667 0.341333 1.536 0.512 2.986667 1.024 4.522666 1.365334 0.426667 0 0.938667 0.085333 1.621334 0.170666 1.024 0.085333 3.413333 0.426667 4.096 0.426667h619.52c0.853333 0 1.792 0 2.56-0.085333 0.341333 0 0.597333 0 0.938666-0.085334 0.341333-0.085333 0.682667-0.085333 1.024-0.170666 2.304-0.512 4.522667-1.194667 6.485334-1.962667 1.194667-0.597333 2.389333-1.28 3.328-1.877333 0.426667-0.256 1.962667-1.450667 2.816-2.048 0.597333-0.426667 1.194667-0.853333 1.706666-1.194667 1.024-0.938667 2.048-2.048 2.986667-3.072l0.170667-0.170667c0.512-0.512 2.133333-2.645333 2.816-3.498666l0.597333-0.768c0.938667-1.536 1.962667-3.328 3.157333-5.632 0.426667-0.853333 0.853333-1.792 1.365334-2.816 0.768-2.218667 1.536-4.778667 2.304-8.021334 0.256-1.28 0.512-2.645333 0.768-3.925333 0.170667-2.133333 0.256-4.437333 0.256-6.741333v-713.557334c-0.341333-1.536-0.426667-3.328-0.597334-5.12zM750.933333 223.402667H271.36c-18.346667 0-33.877333-15.616-33.877333-34.048 0-18.773333 15.189333-34.048 33.877333-34.048h479.573333c18.688 0 33.877333 15.274667 33.877334 34.048 0 18.432-15.530667 34.048-33.877334 34.048z"  horiz-adv-x="1024" />

    
    <glyph glyph-name="icon-arrow-left02" unicode="&#59427;" d="M149.1968 391.168l391.168-405.1968a51.2 51.2 0 1 0-73.6256-71.0656L39.936 356.864a51.2 51.2 0 0 0 1.3312 72.3968L483.2256 856.064a51.2 51.2 0 0 0 71.0656-73.728L149.1968 391.168zM577.8432 384l378.1632-391.5776a51.2 51.2 0 1 0-73.728-71.168l-413.696 428.4416a51.2 51.2 0 0 0 1.2288 72.3968L898.2528 835.9936a51.2 51.2 0 1 0 71.168-73.728L577.8432 384.2048z"  horiz-adv-x="1024" />

    
    <glyph glyph-name="customerTag" unicode="&#59113;" d="M97.450667 692.394667v-198.741334h71.765333c35.925333 110.421333 121.429333 196.010667 231.936 231.936V780.8c-104.874667-30.378667-196.010667-99.413333-248.490667-193.28V692.394667c33.109333 11.008 55.210667 41.386667 55.210667 77.312 0 46.933333-35.925333 82.858667-82.858667 82.858666-46.933333 0-82.858667-35.925333-82.858666-82.858666 0.085333-35.925333 22.186667-66.304 55.296-77.312z m756.48-198.826667h57.941333C881.493333 598.442667 812.458667 689.578667 718.592 742.058667h102.144c11.008-33.109333 41.386667-55.210667 77.312-55.210667 46.933333 0 82.858667 35.925333 82.858667 82.858667 0 46.933333-35.925333 82.858667-82.858667 82.858666-35.925333 0-66.218667-22.101333-77.312-55.210666H621.994667v-71.765334c110.421333-36.010667 196.010667-121.6 231.936-232.021333z m71.765333-419.669333v198.826666h-71.765333c-35.925333-110.421333-121.429333-196.010667-231.936-231.936v-57.941333c104.874667 30.378667 196.010667 99.413333 248.490666 193.28v-102.144c-33.109333-11.008-55.210667-41.386667-55.210666-77.312 0-46.933333 35.925333-82.858667 82.858666-82.858667 46.933333 0 82.858667 35.925333 82.858667 82.858667-0.085333 35.84-22.186667 66.218667-55.296 77.226667zM760.064 383.146667c0 138.069333-110.421333 248.490667-248.490667 248.490666v-55.210666C619.264 576.426667 704.853333 490.837333 704.853333 383.146667S619.264 189.866667 511.573333 189.866667 318.293333 275.456 318.293333 383.146667h-55.210666c0-138.069333 110.421333-248.490667 248.490666-248.490667S760.064 245.077333 760.064 383.146667zM169.216 272.725333h-55.210667c30.378667-104.874667 99.413333-196.010667 193.28-248.490666h-104.96c-11.008 33.109333-41.386667 55.210667-77.312 55.210666-46.933333 0-82.858667-35.925333-82.858666-82.858666 0-46.933333 35.925333-82.858667 82.858666-82.858667 35.925333 0 66.304 22.101333 77.312 55.210667H401.066667v71.765333c-110.336 36.010667-195.925333 121.6-231.850667 232.021333z m342.357333 0c60.757333 0 110.421333 49.664 110.421334 110.421334s-49.664 110.421333-110.421334 110.421333S401.152 443.904 401.152 383.146667s49.664-110.421333 110.421333-110.421334z m0 165.632c30.378667 0 55.210667-24.832 55.210667-55.210666s-24.832-55.210667-55.210667-55.210667-55.210667 24.832-55.210666 55.210667 24.832 55.210667 55.210666 55.210666z"  horiz-adv-x="1024" />

    
    <glyph glyph-name="icon-d-arrow-right" unicode="&#59428;" d="M446.3616 391.168L41.2672 782.336a51.2 51.2 0 0 0 71.0656 73.728l441.9584-426.8032a51.2 51.2 0 0 0 1.3312-72.3968L128.8192-85.0944a51.2 51.2 0 0 0-73.728 71.0656L446.464 391.168zM848.384 384L456.8064 762.368a51.2 51.2 0 0 0 71.0656 73.6256l428.544-413.696a51.2 51.2 0 0 0 1.2288-72.4992l-413.696-428.4416a51.2 51.2 0 0 0-73.728 71.168l378.1632 391.5776z"  horiz-adv-x="1024" />

    
    <glyph glyph-name="marketing" unicode="&#59114;" d="M777.898667 767.146667c-22.613333 0-40.96-19.114667-40.96-42.666667s18.346667-42.666667 40.96-42.666667c45.141333 0 81.92-38.314667 81.92-85.333333v-512c0-47.104-36.778667-85.333333-81.92-85.333333H245.248c-45.141333 0-81.92 38.314667-81.92 85.333333V596.48c0 47.104 36.778667 85.333333 81.92 85.333333 22.613333 0 40.96 19.114667 40.96 42.666667s-18.346667 42.666667-40.96 42.666667c-90.368 0-163.925333-76.544-163.925333-170.666667v-512c0-94.122667 73.472-170.666667 163.925333-170.666667h532.650667c90.368 0 163.925333 76.544 163.925333 170.666667V596.48c0 94.122667-73.557333 170.666667-163.925333 170.666667zM368.128 596.48c22.613333 0 40.96 19.114667 40.96 42.666667V809.813333c0 23.552-18.346667 42.666667-40.96 42.666667s-40.96-19.114667-40.96-42.666667v-170.666666c0-23.552 18.346667-42.666667 40.96-42.666667z m286.805333 0c22.613333 0 40.96 19.114667 40.96 42.666667V809.813333c0 23.552-18.346667 42.666667-40.96 42.666667s-40.96-19.114667-40.96-42.666667v-170.666666c0-23.552 18.346667-42.666667 40.96-42.666667z m-163.84 85.333333h40.96c22.613333 0 40.96 19.114667 40.96 42.666667s-18.346667 42.666667-40.96 42.666667h-40.96c-22.613333 0-40.96-19.114667-40.96-42.666667s18.346667-42.666667 40.96-42.666667z m-81.92-512c0-23.552 18.346667-42.666667 40.96-42.666666h286.805334c22.613333 0 40.96 19.114667 40.96 42.666666s-18.346667 42.666667-40.96 42.666667H450.133333c-22.613333 0-40.96-19.114667-40.96-42.666667zM286.208 425.813333c-22.613333 0-40.96-19.114667-40.96-42.666666s18.346667-42.666667 40.96-42.666667h286.805333c22.613333 0 40.96 19.114667 40.96 42.666667s-18.346667 42.666667-40.96 42.666666H286.208z"  horiz-adv-x="1024" />

    
    <glyph glyph-name="icon-d-arrow-left" unicode="&#59432;" d="M149.1968 391.168l391.168-405.1968a51.2 51.2 0 1 0-73.6256-71.0656L39.936 356.864a51.2 51.2 0 0 0 1.3312 72.3968L483.2256 856.064a51.2 51.2 0 0 0 71.0656-73.728L149.1968 391.168zM577.8432 384l378.1632-391.5776a51.2 51.2 0 1 0-73.728-71.168l-413.696 428.4416a51.2 51.2 0 0 0 1.2288 72.3968L898.2528 835.9936a51.2 51.2 0 1 0 71.168-73.728L577.8432 384.2048z"  horiz-adv-x="1024" />

    
    <glyph glyph-name="serviceInfo" unicode="&#59115;" d="M236.458667 539.562667C236.458667 453.205333 306.346667 383.146667 392.448 383.146667s155.989333 70.058667 155.989333 156.416-69.802667 156.416-155.989333 156.416-155.989333-69.973333-155.989333-156.416z m233.984 0c0-43.093333-34.986667-78.250667-77.994667-78.250667s-77.994667 35.072-77.994667 78.250667c0 43.093333 34.986667 78.250667 77.994667 78.250666s77.994667-35.072 77.994667-78.250666z m350.378666-312.832c-21.504 0-38.997333-17.493333-38.997333-39.082667v-117.333333c0-43.093333-34.986667-78.250667-77.994667-78.250667H236.458667c-43.008 0-77.994667 35.072-77.994667 78.250667V696.064c0 43.093333 34.986667 78.250667 77.994667 78.250667h467.370666c43.008 0 77.994667-35.072 77.994667-78.250667v-75.776c0-21.589333 17.408-39.082667 38.997333-39.082667 21.589333 0 38.997333 17.493333 38.997334 39.082667v75.776c0 86.272-69.973333 156.416-155.989334 156.416H236.458667C150.442667 852.48 80.554667 782.336 80.554667 696.064v-625.749333c0-86.272 69.973333-156.416 155.989333-156.416h467.370667c86.016 0 155.989333 70.144 155.989333 156.416V187.562667c-0.085333 21.674667-17.578667 39.168-39.082667 39.168z m105.130667 301.397333c-15.189333 15.274667-39.936 15.274667-55.125333 0L481.109333 137.045333c-15.274667-15.274667-15.274667-40.021333 0-55.296 7.594667-7.68 17.578667-11.434667 27.562667-11.434666s19.968 3.84 27.562667 11.434666l389.802666 391.082667c15.189333 15.274667 15.189333 40.021333-0.085333 55.296z"  horiz-adv-x="1024" />

    
    <glyph glyph-name="yj" unicode="&#59453;" d="M212.48 469.504c0 104.96 55.808 201.728 146.432 253.952 90.624 52.224 202.24 52.224 292.864 0C742.4 670.72 797.696 573.952 797.696 469.504c0-104.448-55.808-201.728-146.432-253.952a293.30432 293.30432 0 0 0-292.864 0c-90.112 52.224-145.92 148.992-145.92 253.952zM560.128 28.672c20.48 0 36.864-16.384 36.864-36.864s-16.384-36.864-36.864-36.864H450.048c-20.48 0-36.864 16.384-36.864 36.864s16.384 36.864 36.864 36.864h110.08zM624.64 139.264c20.48 0 36.864-16.384 36.864-36.864s-16.384-36.864-36.864-36.864H385.536c-20.48 0-36.864 16.384-36.864 36.864s16.384 36.864 36.864 36.864H624.64z"  horiz-adv-x="1024" />

    
    <glyph glyph-name="phone" unicode="&#59116;" d="M510.72 852.48c-259.242667 0-469.333333-210.090667-469.333333-469.333333s210.090667-469.333333 469.333333-469.333334 469.333333 210.090667 469.333333 469.333334-210.090667 469.333333-469.333333 469.333333z m227.669333-721.834667c-56.32-102.4-158.890667-71.168-158.890666-71.168-299.605333 192.170667-302.933333 534.954667-302.933334 534.954667l6.314667 50.602667 5.717333 12.970666c31.061333 30.122667 101.802667 48.042667 101.802667 48.042667 41.472 18.944 52.138667-13.909333 52.138667-13.909333l35.413333-179.797334c-7.168-26.453333-66.389333-39.082667-66.389333-39.082666-22.016-3.498667-16.213333-20.224-16.213334-20.224 23.978667-94.805333 102.058667-179.626667 102.058667-179.626667 28.245333-35.925333 53.845333-7.765333 53.845333-7.765333 31.061333 31.402667 59.306667 12.629333 59.306667 12.629333l134.997333-121.173333-7.168-26.453334z"  horiz-adv-x="1024" />

    
    <glyph glyph-name="info" unicode="&#59454;" d="M511.484 896C408.363 871.25 2.062 556.73 2.062 536.105V-35.19c0-50.53 41.25-91.779 91.779-91.779h835.287c50.53 0 91.778 41.249 91.778 91.779V536.105C1021.938 546.417 615.637 896 511.484 896z m383.614-556.858l-286.68-224.806c-26.81-25.78-61.872-39.186-96.934-39.186-35.061 0-70.122 13.406-96.934 39.186L128.902 339.142c-18.562 15.468-22.686 42.28-7.218 61.873 15.468 18.562 42.28 22.687 61.873 7.219l290.804-227.9 2.062-2.062c20.624-20.624 53.623-20.624 73.216 0l4.125 3.094 288.742 226.868c18.561 14.437 46.404 11.343 61.873-7.219 13.405-18.562 10.312-46.405-9.281-61.873z"  horiz-adv-x="1024" />

    
    <glyph glyph-name="income" unicode="&#59117;" d="M510.72 852.650667c-259.242667 0-469.333333-210.090667-469.333333-469.333334s210.090667-469.333333 469.333333-469.333333 469.333333 210.090667 469.333333 469.333333-210.090667 469.333333-469.333333 469.333334z m195.584-552.362667c21.589333 0 39.082667-14.848 39.082667-33.194667s-17.493333-33.194667-39.082667-33.194666H549.802667v-99.584c0-18.346667-17.493333-33.194667-39.082667-33.194667-21.589333 0-39.082667 14.848-39.082667 33.194667V233.984H315.136c-21.589333 0-39.082667 14.848-39.082667 33.194667S293.546667 300.373333 315.136 300.373333h156.416V399.872H315.136c-21.589333 0-39.082667 14.848-39.082667 33.194667s17.493333 33.194667 39.082667 33.194666h156.416c-3.072 2.218667-5.717333 4.778667-7.850667 7.594667L360.106667 614.570667c-11.434667 15.530667-5.888 36.096 12.544 45.824 18.346667 9.728 42.496 4.949333 54.016-10.581334l84.053333-114.176L595.626667 649.728c11.434667 15.616 35.584 20.309333 54.016 10.581333 18.346667-9.728 23.978667-30.208 12.544-45.824L558.421333 473.856c-2.389333-2.901333-5.290667-5.461333-8.618666-7.594667h156.416c21.589333 0 39.082667-14.848 39.082666-33.194666s-17.493333-33.194667-39.082666-33.194667H549.802667v-99.584h156.501333z"  horiz-adv-x="1024" />

    
    <glyph glyph-name="sales" unicode="&#59455;" d="M92.672 782.336h727.04c31.232 0 56.32-25.6 55.808-56.832v-796.672c0.512-31.232-24.576-56.832-55.808-56.832H92.672c-31.232 0-56.32 25.6-55.808 56.832V725.504c-0.512 31.232 24.576 56.32 55.808 56.832z m111.616-540.16V71.68c0-15.872 12.8-28.672 28.672-28.672 14.848 0 27.136 12.288 27.136 27.136V242.688a27.533 27.533 0 0 1-27.648 27.648c-15.36 0-28.16-12.8-28.16-28.16z m223.744-57.856v-112.128c0-15.872 12.8-29.184 29.184-29.184 14.848 0 26.624 11.776 26.624 26.624V186.88c0 14.848-11.776 26.624-26.624 26.624-15.872 0-29.184-13.312-29.184-29.184z m223.744 170.496v-282.112c0-16.384 13.312-30.208 30.208-30.208 14.336 0 25.6 11.776 25.6 25.6v289.28c0 14.848-11.776 26.624-26.624 26.624-15.872 0-29.184-13.312-29.184-29.184z m-183.808 25.6L707.584 524.8a26.757 26.757 0 0 1 9.216 36.864c-8.192 13.824-26.624 18.432-40.448 10.24L475.648 450.56c-5.12-3.072-12.288-2.56-16.384 2.048L352.256 563.712c-5.632 5.632-14.336 6.656-20.992 2.048l-134.656-90.624c-13.824-9.216-17.408-27.648-8.192-41.472 8.192-12.288 25.088-15.872 37.376-7.68l99.328 67.584c5.632 3.584 12.8 3.072 17.92-2.048l105.472-109.568c5.12-4.608 13.312-5.632 19.456-1.536z m491.52-394.24c-15.36 0-28.16 12.8-28.16 28.16v768c0.512 31.232-24.576 56.832-55.808 56.832H175.104c-14.848 0-26.624 11.776-26.624 26.624C148.48 882.688 161.792 896 178.688 896H875.52c62.464-0.512 112.64-51.2 112.128-113.664v-768.512c0-15.36-12.8-28.16-28.16-27.648z"  horiz-adv-x="1024" />

    
    <glyph glyph-name="about" unicode="&#59118;" d="M511.573333 852.48c-259.328 0-469.333333-210.005333-469.333333-469.333333s210.005333-469.333333 469.333333-469.333334 469.333333 210.005333 469.333334 469.333334-210.005333 469.333333-469.333334 469.333333z m46.933334-797.866667h-93.866667V148.48h93.866667v-93.866667z m96.938666 363.52l-41.984-43.178666c-33.792-33.792-54.954667-62.208-54.954666-132.608h-93.866667v23.466666c0 51.882667 21.162667 98.816 54.869333 132.864l58.453334 59.136c16.896 16.896 27.477333 40.362667 27.477333 66.218667 0 51.882667-41.984 93.866667-93.866667 93.866667s-93.866667-41.984-93.866666-93.866667h-93.866667c0 103.68 83.968 187.733333 187.733333 187.733333s187.733333-84.053333 187.733334-187.733333c0-41.386667-16.64-78.677333-43.861334-105.898667z m0 0"  horiz-adv-x="1024" />

    
    <glyph glyph-name="yuny" unicode="&#59456;" d="M906.667 768a32 32 0 0 0 0-64h-32v-469.333a64 64 0 0 0-64-64H706.688l94.784-94.763a32 32 0 1 0-45.27-45.27L616.172 170.668H408L268.075 30.72a32 32 0 0 0-45.248 45.248l94.656 94.699h-104.15a64 64 0 0 0-64 64V704h-32a32 32 0 0 0 0 64h789.334zM758.763 566.55a32 32 0 0 1-45.248 0L586.837 439.914 481.771 545.024l-0.192 0.192a32.15 32.15 0 0 1-5.014 4.096l-2.73 1.621a31.957 31.957 0 0 1-11.819 3.52l-3.072 0.128a32.48 32.48 0 0 1-6.101-0.576l-2.987-0.725c-4.97-1.493-9.621-4.16-13.525-8.064L265.493 374.421a32 32 0 1 1 45.27-45.226l148.181 148.138 105.259-105.322a31.91 31.91 0 0 1 22.613-9.387l3.093 0.15a31.885 31.885 0 0 1 19.542 9.237L758.784 521.3l2.176 2.432a32 32 0 0 1-2.197 42.816z"  horiz-adv-x="1024" />

    
    <glyph glyph-name="modifyList" unicode="&#59119;" d="M971.264 735.573333c2.901333-6.4 5.205333-13.909333 6.912-22.528 1.792-8.618667 2.645333-17.493333 2.645333-26.794666s-1.792-18.602667-5.376-27.818667c-3.584-9.301333-9.301333-18.261333-17.066666-26.794667-8.533333-8.618667-16.213333-16.042667-22.954667-22.528-6.741333-6.4-12.629333-12.117333-17.664-17.152-5.717333-5.717333-11.008-10.752-16.042667-15.018666L702.293333 777.386667c8.533333 7.850667 18.688 17.322667 30.378667 28.416 11.776 11.093333 21.504 19.797333 29.354667 26.282666 9.984 7.850667 20.309333 13.397333 30.976 16.64 10.666667 3.242667 21.162667 4.693333 31.488 4.266667 10.325333-0.341333 20.309333-1.962667 29.866666-4.864 9.642667-2.816 18.005333-6.058667 25.088-9.642667 14.933333-7.850667 31.488-21.589333 49.664-41.301333 18.176-19.626667 32.256-40.106667 42.154667-61.610667zM139.605333 212.565333c4.266667 4.266667 14.250667 14.506667 29.866667 30.549334 15.616 16.042667 35.242667 35.925333 58.709333 59.477333l77.909334 78.250667L392.704 467.626667l229.546667 230.4 199.594666-201.386667-229.546666-230.485333L506.88 179.370667c-28.501333-27.904-54.101333-53.418667-76.885333-76.629334-22.784-23.210667-41.642667-42.325333-56.576-57.344s-23.808-23.552-26.709334-25.685333c-7.082667-6.4-15.274667-13.226667-24.576-20.394667-9.216-7.168-18.858667-12.885333-28.842666-17.152-9.984-5.034667-24.576-11.093333-43.776-18.261333-19.2-7.168-39.338667-14.08-60.330667-20.906667s-40.96-12.714667-59.818667-17.664c-18.858667-4.949333-32.938667-8.192-42.154666-9.642666-19.2-2.133333-32 0.682667-38.485334 8.533333-6.4 7.850667-8.192 21.077333-5.376 39.68 1.450667 9.984 4.778667 24.490667 10.154667 43.434667 5.376 18.944 11.008 38.570667 17.066667 58.965333 6.058667 20.394667 11.946667 39.082667 17.578666 56.234667 5.717333 17.152 10.325333 28.928 13.909334 35.328 4.266667 9.984 9.045333 19.114667 14.421333 27.306666 5.546667 8.277333 13.226667 17.408 23.125333 27.392z m356.010667-202.154666h95.488v-95.402667H495.616v95.402667z m193.962667 0H785.066667v-95.402667H689.578667v95.402667z m194.730666 0h95.488v-95.402667h-95.488v95.402667z m0 0"  horiz-adv-x="1024" />

    
    <glyph glyph-name="penghua-01" unicode="&#59471;" d="M204.8 896C245.76 896 281.6 860.16 281.6 819.2v-870.4c0-40.96-35.84-76.8-76.8-76.8S128-92.16 128-51.2v870.4C128 860.16 163.84 896 204.8 896zM512 747.52c40.96 0 76.8-35.84 76.8-76.8v-573.44c0-40.96-35.84-76.8-76.8-76.8S435.2 56.32 435.2 97.28V670.72c0 40.96 35.84 76.8 76.8 76.8zM819.2 568.32c40.96 0 76.8-35.84 76.8-76.8V281.6c0-40.96-35.84-76.8-76.8-76.8S742.4 240.64 742.4 281.6V491.52c0 40.96 35.84 76.8 76.8 76.8z"  horiz-adv-x="1024" />

    
    <glyph glyph-name="customerList" unicode="&#59120;" d="M510.72 852.48c-259.242667 0-469.333333-210.090667-469.333333-469.333333s210.090667-469.333333 469.333333-469.333334 469.333333 210.090667 469.333333 469.333334-210.090667 469.333333-469.333333 469.333333z m0-188.245333c86.101333 0 147.456-87.125333 139.946667-179.456-7.168-88.234667-70.912-148.565333-139.946667-148.565334s-132.778667 60.330667-139.946667 148.565334c-7.509333 92.330667 53.76 179.456 139.946667 179.456zM698.88 107.776c-48.810667-5.888-118.186667-5.888-188.16-5.888-68.352 0-133.034667 0-187.221333 5.888-70.144 7.594667-93.952 17.578667-93.952 43.52 0 75.861333 125.354667 137.301333 279.893333 137.301333s282.453333-61.44 282.453333-137.301333c0-25.941333-23.978667-35.242667-93.013333-43.52z"  horiz-adv-x="1024" />

    
    <glyph glyph-name="modify1" unicode="&#59121;" d="M548.352 539.562667c0 86.442667-69.802667 156.416-155.989333 156.416S236.373333 625.92 236.373333 539.562667c0.085333-86.357333 69.973333-156.416 156.074667-156.416s155.904 70.058667 155.904 156.416z m-155.904-78.165334c-43.008 0-77.994667 35.072-77.994667 78.250667 0 43.093333 34.986667 78.250667 77.994667 78.250667 43.008 0 77.994667-35.072 77.994667-78.250667s-34.986667-78.250667-77.994667-78.250667z m428.373333-234.666666c-21.504 0-38.997333-17.493333-38.997333-39.082667v-117.333333c0-43.093333-34.986667-78.250667-77.994667-78.250667H236.458667c-43.008 0-77.994667 35.072-77.994667 78.250667V696.064c0 43.093333 34.986667 78.250667 77.994667 78.250667h467.370666c43.008 0 77.994667-35.072 77.994667-78.250667v-75.776c0-21.589333 17.408-39.082667 38.997333-39.082667 21.589333 0 38.997333 17.493333 38.997334 39.082667v75.776c0 86.272-69.973333 156.416-155.989334 156.416H236.458667C150.442667 852.48 80.554667 782.336 80.554667 696.064v-625.749333c0-86.272 69.973333-156.416 155.989333-156.416h467.370667c86.016 0 155.989333 70.144 155.989333 156.416V187.562667c-0.085333 21.674667-17.578667 39.168-39.082667 39.168z m105.130667 301.397333c-15.189333 15.274667-39.936 15.274667-55.125333 0L598.442667 215.210667c-15.274667-15.274667-15.274667-40.021333 0-55.296 7.594667-7.68 17.578667-11.434667 27.562666-11.434667 9.984 0 19.968 3.84 27.562667 11.434667l272.469333 312.917333c15.189333 15.274667 15.189333 40.021333-0.085333 55.296zM276.309333 304.896c-21.589333 0-39.082667-17.493333-39.082666-39.082667 0-21.589333 17.493333-39.082667 39.082666-39.082666h156.416c21.589333 0 39.082667 17.493333 39.082667 39.082666 0 21.589333-17.493333 39.082667-39.082667 39.082667H276.309333z m0-234.666667h234.666667c21.589333 0 39.082667 17.493333 39.082667 39.082667 0 21.589333-17.493333 39.082667-39.082667 39.082667h-234.666667c-21.589333 0-39.082667-17.493333-39.082666-39.082667 0-21.504 17.493333-39.082667 39.082666-39.082667z"  horiz-adv-x="1024" />

    
    <glyph glyph-name="set1" unicode="&#59122;" d="M511.402667 565.845333c-100.096 0-181.504-82.176-181.504-183.125333S411.306667 199.594667 511.402667 199.594667c19.882667 0 39.424 3.242667 58.026666 9.557333 15.872 5.376 24.405333 22.784 19.029334 38.826667-5.376 16.042667-22.528 24.576-38.485334 19.2-12.373333-4.181333-25.344-6.314667-38.656-6.314667-66.56 0-120.746667 54.698667-120.746666 121.941333 0 67.242667 54.186667 121.941333 120.746666 121.941334s120.746667-54.698667 120.746667-121.941334c0-9.045333-0.938667-17.834667-2.816-26.453333-0.853333-4.181333-2.048-8.192-3.328-12.117333-5.290667-16.042667 3.328-33.365333 19.2-38.741334 15.957333-5.290667 33.109333 3.413333 38.4 19.370667 1.962667 6.058667 3.669333 12.202667 5.034667 18.346667 2.816 12.714667 4.266667 26.112 4.266666 39.594666 0 100.949333-81.408 183.04-181.418666 183.04z m461.909333-101.546666c-2.389333 13.909333-13.909333 24.32-27.818667 25.258666-50.432 3.413333-95.488 31.744-120.661333 75.690667C799.573333 609.365333 797.866667 663.04 820.309333 708.778667c6.144 12.629333 2.986667 27.989333-7.68 37.034666C771.413333 780.714667 724.224 808.106667 672.426667 827.306667c-13.141333 4.864-27.904 0-35.669334-11.690667-28.074667-42.410667-74.922667-67.669333-125.354666-67.669333-50.346667 0-97.194667 25.344-125.269334 67.669333-7.765333 11.690667-22.528 16.554667-35.669333 11.690667-51.797333-19.114667-98.986667-46.506667-140.288-81.408-10.752-9.045333-13.909333-24.405333-7.68-37.034667 22.442667-45.824 20.736-99.498667-4.437333-143.530667-25.173333-43.946667-70.314667-72.277333-120.661334-75.690666-13.994667-0.938667-25.429333-11.434667-27.818666-25.344-4.949333-28.842667-7.424-55.552-7.424-81.493334 0-26.026667 2.474667-52.736 7.424-81.664 2.389333-13.909333 13.909333-24.405333 27.818666-25.344 50.432-3.413333 95.488-31.744 120.661334-75.690666 25.173333-44.032 26.88-97.706667 4.522666-143.445334-6.144-12.629333-2.986667-27.904 7.765334-37.034666 41.301333-34.901333 88.490667-62.293333 140.288-81.408 12.970667-4.864 27.818667 0 35.584 11.690666 28.074667 42.325333 74.922667 67.584 125.184 67.584 50.346667 0 97.109333-25.258667 125.269333-67.584 5.802667-8.618667 15.274667-13.568 25.173333-13.568 3.498667 0 6.997333 0.597333 10.410667 1.877334 51.797333 19.114667 98.986667 46.506667 140.288 81.408 10.666667 9.045333 13.909333 24.32 7.765333 37.034666-22.357333 45.824-20.650667 99.413333 4.522667 143.445334 25.173333 44.032 70.314667 72.277333 120.661333 75.690666 13.909333 0.938667 25.429333 11.349333 27.818667 25.258667 5.034667 28.842667 7.424 55.637333 7.424 81.749333 0 25.941333-2.474667 52.565333-7.424 81.493334z m-56.490667-130.56c-60.501333-11.264-113.408-48.64-144.554666-103.082667-31.146667-54.528-36.693333-119.466667-16.128-178.005333-25.770667-19.456-53.930667-35.754667-84.138667-48.725334-39.936 47.189333-98.389333 74.752-160.597333 74.752-62.208 0-120.661333-27.562667-160.597334-74.752-30.208 12.970667-58.368 29.269333-84.138666 48.725334 20.565333 58.624 15.104 123.562667-16.128 178.005333-31.146667 54.442667-84.053333 91.733333-144.64 103.082667-2.133333 17.066667-3.157333 33.194667-3.157334 49.066666 0 15.701333 1.024 31.829333 3.157334 48.810667 60.501333 11.264 113.493333 48.64 144.64 103.082667 31.232 54.528 36.778667 119.552 16.042666 178.176 25.770667 19.456 53.930667 35.754667 84.053334 48.725333 39.936-47.274667 98.389333-74.837333 160.768-74.837333 62.378667 0 120.832 27.562667 160.768 74.837333 30.122667-12.970667 58.282667-29.269333 84.053333-48.725333-20.650667-58.624-15.104-123.648 16.042667-178.176 31.146667-54.528 84.053333-91.818667 144.64-103.082667 2.133333-16.981333 3.157333-33.109333 3.157333-48.810667-0.085333-15.872-1.109333-32.085333-3.242667-49.066666z"  horiz-adv-x="1024" />

    
    <glyph glyph-name="messagePush" unicode="&#59125;" d="M685.141333 657.749333c-0.085333 0.085333-0.170667 0.170667-0.170666 0.256-13.226667 15.189333-34.645333 15.189333-47.872 0s-13.226667-39.765333 0-54.954666c50.944-58.282667 79.445333-137.386667 79.36-219.818667 0.085333-82.432-28.501333-161.536-79.36-219.818667-13.226667-15.189333-13.226667-39.765333 0-54.954666 13.226667-15.189333 34.645333-15.189333 47.872 0l1.28 1.536C748.885333 182.613333 784.128 280.832 784.128 383.146667c0 102.997333-35.584 201.728-98.986667 274.602666z m156.586667 110.08l-0.682667-0.768c-13.226667 10.325333-31.317333 8.789333-43.008-4.693333-11.690667-13.397333-13.056-34.218667-4.096-49.322667l-0.170666-0.256 1.28-1.536c0.938667-1.365333 1.877333-2.645333 2.986666-3.925333 0.853333-1.024 1.792-1.962667 2.730667-2.816 71.936-86.528 112.213333-201.642667 112.042667-321.536 0.170667-123.648-42.666667-242.346667-118.954667-329.642667l-0.085333-0.085333c-13.226667-15.189333-13.226667-39.765333 0-54.954667 13.226667-15.189333 34.645333-15.189333 47.872 0 88.917333 102.058667 138.922667 240.384 138.922666 384.682667s-49.92 282.88-138.837333 384.853333zM479.232 852.48h-20.48c-17.237333 0-33.877333-7.509333-46.421333-21.077333l-199.509334-215.04H76.373333c-18.688 0-33.877333-17.408-33.877333-38.826667v-388.608c0-21.504 15.189333-38.826667 33.877333-38.826667h136.448l199.509334-215.04c12.544-13.568 29.184-21.077333 46.421333-21.077333h20.48c37.376 0.085333 67.669333 34.816 67.754667 77.738667V774.741333c0 42.922667-30.293333 77.653333-67.754667 77.738667zM174.421333 208.298667h-64.170666V538.624h64.170666v-330.325333z m304.810667-216.746667h-20.48L242.090667 225.109333V541.184l216.661333 233.557333h20.48v-783.189333z"  horiz-adv-x="1024" />

    
    <glyph glyph-name="relation" unicode="&#59126;" d="M183.04 289.28c-25.856 0-46.933333 21.077333-46.933333 46.848V711.68c0 25.856 21.077333 46.848 46.933333 46.848h375.466667c25.856 0 46.933333-21.077333 46.933333-46.933333v-93.866667c-25.941333 0-46.933333-20.992-46.933333-46.933333s20.992-46.933333 46.933333-46.933334v-187.733333c0-25.856-21.077333-46.848-46.933333-46.848h-93.866667c-25.941333 0-46.933333-20.992-46.933333-46.933333s20.992-46.933333 46.933333-46.933334h93.866667c77.653333 0 140.8 63.146667 140.8 140.8V711.68c0 77.653333-63.146667 140.8-140.8 140.8h-375.466667c-77.653333 0-140.8-63.146667-140.8-140.8v-375.466667c0-77.568 63.146667-140.8 140.8-140.8 25.941333 0 46.933333 20.992 46.933333 46.933334s-20.992 46.933333-46.933333 46.933333z m657.066667 328.533333c-25.941333 0-46.933333-20.992-46.933334-46.933333s20.992-46.933333 46.933334-46.933333c25.856 0 46.933333-21.077333 46.933333-46.933334v-422.4c0-25.941333-21.077333-46.933333-46.933333-46.933333h-422.4c-25.856 0-46.933333 20.992-46.933334 46.933333V477.013333c0 25.856 21.077333 46.933333 46.933334 46.933334h93.866666c25.941333 0 46.933333 20.992 46.933334 46.933333s-20.992 46.933333-46.933334 46.933333h-93.866666c-77.653333 0-140.8-63.146667-140.8-140.8v-422.4c0-77.653333 63.146667-140.8 140.8-140.8h422.4c77.653333 0 140.8 63.146667 140.8 140.8V477.013333c0 77.653333-63.146667 140.8-140.8 140.8z"  horiz-adv-x="1024" />

    
    <glyph glyph-name="edit" unicode="&#59127;" d="M820.821333 226.730667c-21.504 0-38.997333-17.493333-38.997333-39.082667v-117.333333c0-43.093333-34.986667-78.250667-77.994667-78.250667H236.458667c-43.008 0-77.994667 35.072-77.994667 78.250667V696.064c0 43.093333 34.986667 78.250667 77.994667 78.250667h467.370666c43.008 0 77.994667-35.072 77.994667-78.250667v-75.861333c0-21.589333 17.408-39.082667 38.997333-39.082667 21.589333 0 38.997333 17.493333 38.997334 39.082667v75.861333c0 86.272-69.973333 156.416-155.989334 156.416H236.458667C150.442667 852.48 80.554667 782.336 80.554667 696.064v-625.749333c0-86.272 69.973333-156.416 155.989333-156.416h467.370667c86.016 0 155.989333 70.144 155.989333 156.416V187.562667c-0.085333 21.674667-17.578667 39.168-39.082667 39.168z m105.130667 301.397333c-15.189333 15.274667-39.936 15.274667-55.125333 0L598.442667 215.210667c-15.274667-15.274667-15.274667-40.021333 0-55.296 7.594667-7.68 17.578667-11.434667 27.562666-11.434667s19.968 3.84 27.562667 11.434667l272.469333 312.917333c15.189333 15.274667 15.189333 40.021333-0.085333 55.296zM471.893333 383.146667H315.477333c-21.589333 0-39.082667-17.493333-39.082666-39.082667 0-21.589333 17.493333-39.082667 39.082666-39.082667H471.893333c21.589333 0 39.082667 17.493333 39.082667 39.082667 0 21.589333-17.493333 39.082667-39.082667 39.082667z m0-156.416H315.477333c-21.589333 0-39.082667-17.493333-39.082666-39.082667 0-21.589333 17.493333-39.082667 39.082666-39.082667H471.893333c21.589333 0 39.082667 17.493333 39.082667 39.082667 0 21.504-17.493333 39.082667-39.082667 39.082667zM315.477333 539.562667h39.082667c21.589333 0 39.082667 17.493333 39.082667 39.082666V617.813333c0 21.589333-17.493333 39.082667-39.082667 39.082667h-39.082667c-21.589333 0-39.082667-17.493333-39.082666-39.082667v-39.082666c-0.085333-21.674667 17.408-39.168 39.082666-39.168z m234.666667 117.333333c-21.589333 0-39.082667-17.493333-39.082667-39.082667v-39.082666c0-21.589333 17.493333-39.082667 39.082667-39.082667h39.082667c21.589333 0 39.082667 17.493333 39.082666 39.082667V617.813333c0 21.589333-17.493333 39.082667-39.082666 39.082667h-39.082667z"  horiz-adv-x="1024" />

    
    <glyph glyph-name="tagSet" unicode="&#59128;" d="M820.650667 109.397333c-21.504 0-38.997333-17.493333-38.997334-39.082666 0-43.093333-34.986667-78.250667-77.994666-78.250667H236.373333c-43.008 0-77.994667 35.072-77.994666 78.250667V696.064c0 43.093333 34.986667 78.250667 77.994666 78.250667h467.370667c43.008 0 77.994667-35.072 77.994667-78.250667v-154.026667c0-21.589333 17.408-39.082667 38.997333-39.082666 21.589333 0 38.997333 17.493333 38.997333 39.082666V696.064c0 86.272-69.973333 156.416-155.989333 156.416H236.373333C150.357333 852.48 80.384 782.336 80.384 696.064v-625.749333c0-86.272 69.973333-156.416 155.989333-156.416h467.370667c86.016 0 155.989333 70.144 155.989333 156.416-0.085333 21.589333-17.493333 39.082667-39.082666 39.082666zM941.056 271.36c-0.256 6.656-2.901333 11.178667-7.936 13.568L716.117333 471.04c8.192 26.112 8.106667 53.077333-0.170666 80.896-8.277333 27.818667-23.552 51.370667-45.909334 70.570667-23.893333 20.48-51.114667 31.829333-81.749333 34.048-30.634667 2.218667-58.453333-4.096-83.456-19.029334l102.912-88.234666-60.16-73.045334-104.96 88.064c-11.434667-27.818667-13.141333-56.917333-5.034667-87.210666s24.149333-55.722667 47.957334-76.202667c22.357333-19.2 47.701333-30.549333 76.032-34.048 28.330667-3.498667 54.357333 1.109333 78.165333 13.824l217.088-186.026667c11.178667-9.557333 21.504-8.704 30.890667 2.730667l46.08 55.893333c5.034667 5.461333 7.424 11.434667 7.253333 18.090667zM354.389333 617.813333h-78.250666c-21.589333 0-39.082667-17.493333-39.082667-39.082666 0-21.589333 17.493333-39.082667 39.082667-39.082667h78.250666c21.589333 0 39.082667 17.493333 39.082667 39.082667 0.085333 21.589333-17.493333 39.082667-39.082667 39.082666z m-78.165333-273.749333h78.250667c21.589333 0 39.082667 17.493333 39.082666 39.082667 0 21.589333-17.493333 39.082667-39.082666 39.082666h-78.250667c-21.589333 0-39.082667-17.493333-39.082667-39.082666-0.085333-21.589333 17.493333-39.082667 39.082667-39.082667z m0-195.584h312.917333c21.589333 0 39.082667 17.493333 39.082667 39.082667 0 21.589333-17.493333 39.082667-39.082667 39.082666H276.224c-21.589333 0-39.082667-17.493333-39.082667-39.082666-0.085333-21.589333 17.493333-39.082667 39.082667-39.082667z"  horiz-adv-x="1024" />

    
    <glyph glyph-name="rise1" unicode="&#59129;" d="M439.722667-42.666667V552.789333c-130.56-35.584-215.637333-53.248-331.690667-55.04C308.053333 578.56 412.245333 683.690667 510.208 810.666667c93.866667-126.976 208.384-227.413333 402.346667-312.917334-126.122667 5.461333-202.24 20.224-341.077334 56.149334V-42.666667H439.722667z"  horiz-adv-x="1024" />

    
    <glyph glyph-name="drop1" unicode="&#59130;" d="M580.864 810.666667v-595.456c130.56 35.584 215.637333 53.248 331.690667 55.04C712.533333 189.44 608.341333 84.309333 510.378667-42.666667c-93.866667 126.976-208.384 227.413333-402.346667 312.917334 126.122667-5.461333 202.24-20.224 341.077333-56.149334V810.666667h131.754667z"  horiz-adv-x="1024" />

    
    <glyph glyph-name="download" unicode="&#59132;" d="M581.205333 328.533333l168.618667 169.813334c26.112 25.344 67.584 25.002667 93.184-0.853334 25.685333-25.856 26.026667-67.584 0.853333-93.866666L561.664 119.381333c-12.458667-12.629333-29.354667-19.712-47.018667-19.712s-34.56 7.082667-47.018666 19.712L185.6 403.626667c-25.173333 26.282667-24.832 68.096 0.853333 93.866666 25.685333 25.856 67.072 26.197333 93.184 0.853334l168.618667-169.813334V785.92c0 37.034667 29.781333 66.986667 66.474667 66.986667s66.474667-29.952 66.474666-66.986667v-457.386667z m-472.746666-295.168H913.066667c37.034667 0 67.072-26.453333 67.072-59.136s-30.037333-59.136-67.072-59.136H108.458667c-37.034667 0-67.072 26.453333-67.072 59.136s30.037333 59.136 67.072 59.136z m7.338666 15.701334"  horiz-adv-x="1024" />

    
    <glyph glyph-name="wx" unicode="&#59133;" d="M676.864 546.133333c10.752 0 21.418667-0.853333 32-2.133333C680.106667 687.786667 537.002667 794.624 373.589333 794.624c-182.613333 0-332.202667-133.717333-332.202666-303.445333 0-98.048 49.749333-178.517333 132.949333-240.896l-33.194667-107.349334 116.138667 62.549334c41.557333-8.789333 74.922667-17.92 116.394667-17.92 10.410667 0 20.736 0.512 31.061333 1.365333-6.485333 23.893333-10.24 48.896-10.24 74.752-0.085333 155.904 124.501333 282.453333 282.368 282.453333zM498.176 642.901333c25.002667 0 41.557333-17.664 41.557333-44.544 0-26.794667-16.554667-44.629333-41.557333-44.629333-24.917333 0-49.834667 17.92-49.834667 44.629333 0 26.88 25.002667 44.544 49.834667 44.544zM265.728 553.728c-24.917333 0-50.005333 17.92-50.005333 44.629333 0 26.794667 25.173333 44.544 50.005333 44.544s41.472-17.664 41.472-44.544c0-26.709333-16.554667-44.629333-41.472-44.629333z m714.325333-285.696c0 142.677333-132.949333 258.986667-282.197333 258.986667-158.037333 0-282.538667-116.309333-282.538667-258.986667 0-142.933333 124.501333-258.986667 282.538667-258.986667 33.109333 0 66.474667 8.96 99.669333 17.92l91.136-53.589333-25.002666 89.173333c66.730667 53.76 116.394667 125.013333 116.394666 205.482667z m-373.76 44.629333c-16.554667 0-33.28 17.664-33.28 35.754667 0 17.749333 16.725333 35.669333 33.28 35.669333 25.088 0 41.557333-17.92 41.557334-35.669333 0-18.090667-16.469333-35.754667-41.557334-35.754667z m182.698667 0c-16.469333 0-33.024 17.664-33.024 35.754667 0 17.749333 16.554667 35.669333 33.024 35.669333 24.917333 0 41.557333-17.92 41.557333-35.669333 0-18.090667-16.64-35.754667-41.557333-35.754667z m0 0"  horiz-adv-x="1024" />

    
    <glyph glyph-name="suitable" unicode="&#59134;" d="M623.274667 354.048c88.832 41.984 150.442667 132.522667 150.442666 237.141333C773.717333 735.658667 656.128 853.333333 511.573333 853.333333c-144.554667 0-262.144-117.589333-262.144-262.144 0-104.618667 61.610667-195.072 150.442667-237.141333C203.776 304.128 58.282667 126.037333 58.282667-85.333333h53.674666c0 220.416 179.285333 399.701333 399.701334 399.701333 220.416 0 399.701333-179.285333 399.701333-399.701333h53.674667c-0.170667 211.370667-145.664 389.461333-341.76 439.381333zM303.104 591.189333c0 114.944 93.525333 208.469333 208.469333 208.469334 114.944 0 208.469333-93.525333 208.469334-208.469334 0-114.944-93.525333-208.469333-208.469334-208.469333-114.944-0.085333-208.469333 93.44-208.469333 208.469333z"  horiz-adv-x="1024" />

    
    <glyph glyph-name="holding" unicode="&#59139;" d="M484.949333 439.808h51.626667v-291.072h-51.626667zM347.818667 354.901333h325.888v-51.626666H347.818667zM320.597333 484.266667h380.16V432.64H320.597333zM492.288 473.258667L380.245333 603.306667l39.168 33.621333L497.493333 546.218667l107.178667 93.354666 33.877333-38.912zM510.72-84.906667c-63.317333 0-124.842667 12.373333-182.698667 36.864-55.893333 23.637333-106.069333 57.514667-149.162666 100.608-43.093333 43.093333-76.970667 93.269333-100.608 149.162667C53.76 259.584 41.386667 321.109333 41.386667 384.426667S53.76 509.269333 78.250667 567.125333c23.637333 55.893333 57.514667 106.069333 100.608 149.162667 43.093333 43.093333 93.269333 76.970667 149.162666 100.608C385.877333 841.386667 447.402667 853.76 510.72 853.76c63.317333 0 124.842667-12.373333 182.698667-36.864 55.893333-23.637333 106.069333-57.514667 149.162666-100.608 43.093333-43.093333 76.970667-93.269333 100.608-149.162667 24.490667-57.856 36.864-119.381333 36.864-182.698666s-12.373333-124.842667-36.864-182.698667c-23.637333-55.893333-57.514667-106.069333-100.608-149.162667-43.093333-43.093333-93.269333-76.970667-149.162666-100.608-57.856-24.490667-119.381333-36.864-182.698667-36.864z m0 887.04C280.405333 802.133333 93.013333 614.741333 93.013333 384.426667S280.405333-33.28 510.72-33.28 928.426667 154.112 928.426667 384.426667 741.034667 802.133333 510.72 802.133333z"  horiz-adv-x="1024" />

    
    <glyph glyph-name="installation" unicode="&#59140;" d="M87.722667 365.994667l-42.154667 33.109333 224.597333 285.781333 424.362667-212.224 235.861333 235.861334 37.888-37.888-263.168-263.168-419.84 209.92zM38.4 104.106667h938.666667v-53.76H38.4z"  horiz-adv-x="1024" />

    
    <glyph glyph-name="productProfile" unicode="&#59141;" d="M80.469333 658.176h860.416c21.589333 0 39.082667 17.493333 39.082667 39.082667 0 21.589333-17.493333 39.082667-39.082667 39.082666H80.469333c-21.589333 0-39.082667-17.493333-39.082666-39.082666 0-21.589333 17.493333-39.082667 39.082666-39.082667z m860.501334-234.666667H80.469333c-21.589333 0-39.082667-17.493333-39.082666-39.168 0-21.589333 17.493333-39.082667 39.082666-39.082666h860.416c21.589333 0 39.082667 17.493333 39.082667 39.082666 0.085333 21.674667-17.408 39.168-38.997333 39.168z m0-312.832H80.469333c-21.589333 0-39.082667-17.493333-39.082666-39.082666 0-21.589333 17.493333-39.082667 39.082666-39.082667h860.416c21.589333 0 39.082667 17.493333 39.082667 39.082667 0.085333 21.504-17.408 39.082667-38.997333 39.082666z"  horiz-adv-x="1024" />

    
    <glyph glyph-name="productTransaction" unicode="&#59142;" d="M41.472 516.778667v-0.512c0-0.512 0.085333-0.938667 0.085333-1.450667 0-0.170667 0-0.341333 0.085334-0.512 0.085333-0.426667 0.085333-0.938667 0.170666-1.365333 0-0.170667 0.085333-0.426667 0.085334-0.597334l0.256-1.28c0.085333-0.256 0.085333-0.426667 0.170666-0.682666 0.085333-0.426667 0.170667-0.768 0.256-1.109334 0.085333-0.256 0.085333-0.512 0.170667-0.768l0.256-1.024c0.085333-0.256 0.170667-0.597333 0.256-0.853333 0.085333-0.341333 0.170667-0.597333 0.341333-0.938667 0.085333-0.341333 0.170667-0.597333 0.341334-0.938666 0.085333-0.256 0.256-0.597333 0.341333-0.853334 0.170667-0.341333 0.256-0.682667 0.426667-0.938666 0.085333-0.256 0.256-0.512 0.341333-0.768l0.512-1.024c0.085333-0.256 0.256-0.426667 0.341333-0.682667 0.170667-0.341333 0.341333-0.682667 0.597334-1.109333 0.085333-0.170667 0.256-0.426667 0.341333-0.597334 0.256-0.341333 0.426667-0.768 0.682667-1.109333 0.085333-0.170667 0.256-0.341333 0.341333-0.597333 0.256-0.341333 0.426667-0.682667 0.682667-1.024 0.085333-0.085333 0.170667-0.170667 0.170666-0.341334 0.085333-0.085333 0.085333-0.170667 0.170667-0.256 0.341333-0.426667 0.682667-0.938667 1.024-1.365333 0.170667-0.170667 0.256-0.341333 0.426667-0.512 0.426667-0.512 0.853333-1.024 1.365333-1.536l0.768-0.768 0.682667-0.682667c0.341333-0.341333 0.597333-0.597333 0.938666-0.853333l0.512-0.512c0.341333-0.341333 0.682667-0.597333 1.024-0.938667 0.170667-0.085333 0.256-0.256 0.426667-0.341333 0.853333-0.682667 1.706667-1.28 2.56-1.877333l0.085333-0.085334c0.341333-0.256 0.682667-0.426667 0.938667-0.597333 0.256-0.170667 0.597333-0.341333 0.853333-0.512 0.256-0.170667 0.512-0.341333 0.853334-0.512 0.341333-0.256 0.768-0.426667 1.194666-0.597333 0.170667-0.085333 0.426667-0.256 0.597334-0.341334 0.597333-0.256 1.109333-0.512 1.706666-0.768 0.085333 0 0.085333-0.085333 0.170667-0.085333 2.048-0.853333 4.181333-1.621333 6.485333-2.133333h0.085334c0.682667-0.170667 1.365333-0.341333 2.133333-0.426667h0.170667c0.682667-0.085333 1.365333-0.170667 1.962666-0.256h0.256c0.682667-0.085333 1.28-0.170667 1.962667-0.170667h0.256c0.768 0 1.450667-0.085333 2.218667-0.085333h860.416c21.589333 0 39.082667 17.578667 39.082666 39.168 0 21.674667-17.493333 39.168-39.082666 39.168h-738.133334l65.109334 46.421333c17.578667 12.544 21.674667 37.034667 9.130666 54.613334-12.544 17.664-36.949333 21.76-54.528 9.216L57.770667 550.4c-0.085333-0.085333-0.256-0.170667-0.341334-0.256-0.256-0.170667-0.512-0.341333-0.682666-0.512-0.341333-0.256-0.597333-0.512-0.938667-0.768-0.170667-0.085333-0.256-0.256-0.426667-0.341333-0.426667-0.341333-0.768-0.682667-1.194666-1.024l-0.085334-0.085334c-3.754667-3.413333-6.741333-7.509333-8.874666-11.946666v-0.085334c-0.256-0.512-0.512-1.024-0.682667-1.621333-0.085333-0.256-0.170667-0.426667-0.256-0.682667-0.170667-0.341333-0.256-0.682667-0.426667-1.024-0.170667-0.341333-0.256-0.682667-0.341333-1.024-0.085333-0.256-0.170667-0.512-0.256-0.682666-0.085333-0.426667-0.256-0.768-0.341333-1.194667-0.085333-0.170667-0.085333-0.426667-0.170667-0.597333-0.085333-0.426667-0.170667-0.853333-0.256-1.194667-0.085333-0.256-0.085333-0.426667-0.170667-0.682667-0.085333-0.341333-0.170667-0.768-0.256-1.109333-0.085333-0.256-0.085333-0.512-0.170666-0.768-0.085333-0.341333-0.085333-0.682667-0.170667-0.938667-0.085333-0.341333-0.085333-0.682667-0.170667-1.024 0-0.256-0.085333-0.512-0.085333-0.768 0-0.426667-0.085333-0.853333-0.085333-1.28V518.229333c0-0.426667 0-0.938667 0.085333-1.450666z m938.496-270.762667v0.597333c0 0.426667-0.085333 0.938667-0.085333 1.365334 0 0.170667 0 0.341333-0.085334 0.597333-0.085333 0.426667-0.085333 0.938667-0.170666 1.365333 0 0.170667-0.085333 0.426667-0.085334 0.597334l-0.256 1.28c-0.085333 0.256-0.085333 0.426667-0.170666 0.682666-0.085333 0.426667-0.170667 0.768-0.256 1.194667-0.085333 0.256-0.085333 0.512-0.170667 0.768l-0.256 1.024c-0.085333 0.256-0.170667 0.597333-0.256 0.853333-0.085333 0.341333-0.170667 0.597333-0.341333 0.938667-0.085333 0.341333-0.256 0.597333-0.341334 0.938667-0.085333 0.256-0.170667 0.512-0.341333 0.768-0.170667 0.341333-0.256 0.682667-0.426667 1.024-0.085333 0.256-0.170667 0.426667-0.256 0.682666-0.170667 0.426667-0.341333 0.768-0.512 1.194667l-0.256 0.512c-0.256 0.426667-0.426667 0.853333-0.682666 1.28-0.085333 0.170667-0.170667 0.256-0.256 0.426667l-0.768 1.28c-0.085333 0.085333-0.170667 0.256-0.170667 0.341333-0.256 0.426667-0.597333 0.938667-0.938667 1.365333 0 0.085333-0.085333 0.085333-0.085333 0.170667s-0.085333 0.085333-0.085333 0.170667c-0.341333 0.426667-0.597333 0.853333-0.938667 1.28-0.085333 0.170667-0.170667 0.256-0.341333 0.426666-0.256 0.341333-0.597333 0.682667-0.853334 1.024-0.170667 0.170667-0.341333 0.341333-0.426666 0.512l-0.768 0.768c-0.170667 0.256-0.426667 0.426667-0.597334 0.682667l-0.597333 0.597333-0.768 0.768c-0.170667 0.170667-0.341333 0.341333-0.512 0.426667-0.341333 0.256-0.597333 0.512-0.938667 0.768-0.170667 0.170667-0.341333 0.256-0.512 0.426667l-1.024 0.768c-0.170667 0.170667-0.426667 0.256-0.597333 0.426666-0.341333 0.256-0.597333 0.426667-0.938667 0.682667-0.341333 0.170667-0.597333 0.426667-0.938666 0.597333-0.170667 0.170667-0.426667 0.256-0.597334 0.426667-0.512 0.341333-0.938667 0.597333-1.450666 0.853333 0 0-0.085333 0-0.085334 0.085334-4.864 2.645333-10.24 4.352-16.042666 4.778666h-0.085334c-0.597333 0-1.109333 0.085333-1.706666 0.085334H80.469333c-21.589333 0-39.082667-17.578667-39.082666-39.168 0-21.674667 17.493333-39.168 39.082666-39.168h738.133334L753.578667 158.72c-17.578667-12.544-21.674667-37.034667-9.130667-54.613333 7.594667-10.752 19.626667-16.469333 31.914667-16.469334 7.850667 0 15.786667 2.389333 22.698666 7.253334l164.693334 117.504c0.170667 0.085333 0.256 0.256 0.426666 0.341333 0.170667 0.170667 0.426667 0.256 0.597334 0.426667l1.024 0.768c0.170667 0.085333 0.256 0.256 0.426666 0.341333 0.341333 0.341333 0.768 0.682667 1.109334 0.938667l0.170666 0.170666c3.242667 2.986667 5.973333 6.4 7.936 10.154667l0.256 0.512c0.170667 0.341333 0.426667 0.768 0.597334 1.109333 0.170667 0.341333 0.341333 0.768 0.512 1.109334l0.256 0.512c0.256 0.512 0.426667 1.109333 0.682666 1.621333v0.085333c0.682667 1.706667 1.194667 3.498667 1.536 5.290667v0.085333l0.256 1.536c0 0.170667 0.085333 0.256 0.085334 0.426667 0.085333 0.426667 0.170667 0.853333 0.170666 1.28 0 0.256 0.085333 0.426667 0.085334 0.682667 0 0.341333 0.085333 0.682667 0.085333 1.024 0 0.341333 0.085333 0.682667 0.085333 1.024v0.768 1.28 0.341333 0.341333c0 0.512 0 1.024-0.085333 1.450667z"  horiz-adv-x="1024" />

    
    <glyph glyph-name="quota" unicode="&#59143;" d="M813.824 232.021333l88.32-242.773333H114.688l72.362667 242.773333h626.773333m38.229333 54.613334H146.261333L41.386667-65.365333h938.666666l-128 352zM695.466667 505.770667l48.469333-125.44H235.008l42.752 125.44H695.466667m37.461333 54.613333H238.677333l-79.957333-234.666667h664.917333l-90.709333 234.666667zM591.616 779.605333l52.224-125.44h-305.493333l52.309333 125.44h200.96m36.437333 54.613334H354.304l-97.792-234.666667h469.333333L628.053333 834.218667z"  horiz-adv-x="1024" />

    
    <glyph glyph-name="similarProduct" unicode="&#59144;" d="M814.250667 700.928H701.354667c-21.589333 87.637333-100.266667 152.832-193.706667 152.832S335.530667 788.565333 314.026667 700.928H207.104c-48.469333 0-87.893333-39.765333-87.893333-88.661333v-608.426667c0-48.896 39.424-88.661333 87.893333-88.661333h607.146667c48.469333 0 87.893333 39.765333 87.893333 88.661333v608.426667c0 48.810667-39.424 88.661333-87.893333 88.661333z m-306.602667 74.24c50.005333 0 93.098667-30.634667 111.786667-74.325333H395.946667c18.602667 43.690667 61.696 74.325333 111.701333 74.325333z m316.672-771.413333c0-5.461333-4.608-10.069333-9.984-10.069334H207.104c-5.461333 0-9.984 4.608-9.984 10.069334v608.426666c0 5.461333 4.608 10.154667 9.984 10.154667h607.146667c5.461333 0 9.984-4.608 9.984-10.154667v-608.426666zM710.997333 519.082667H304.384c-21.504 0-38.912-17.578667-38.912-39.338667 0-21.674667 17.408-39.253333 38.912-39.253333h406.613333c21.504 0 38.912 17.578667 38.912 39.253333 0 21.76-17.493333 39.338667-38.912 39.338667zM609.28 326.997333H304.384c-21.504 0-38.912-17.578667-38.912-39.253333s17.408-39.338667 38.912-39.338667H609.28c21.504 0 38.912 17.578667 38.912 39.338667 0.085333 21.674667-17.408 39.253333-38.912 39.253333z m0-192H304.384c-21.504 0-38.912-17.578667-38.912-39.253333s17.408-39.253333 38.912-39.253333H609.28c21.504 0 38.912 17.578667 38.912 39.253333 0.085333 21.589333-17.408 39.253333-38.912 39.253333z"  horiz-adv-x="1024" />

    
    <glyph glyph-name="assets-thin" unicode="&#59145;" d="M911.786667 582.4h-359.253334L754.432 815.701333l-42.837333 36.352-203.349334-234.922666L322.56 851.114667 278.186667 816.64l185.856-234.24H121.6c-15.616 0-28.245333-12.544-28.245333-27.904 0-15.445333 12.629333-27.904 28.245333-27.904h357.461333v-167.68H196.864c-15.616 0-28.245333-12.544-28.245333-27.989333 0-15.445333 12.629333-27.904 28.245333-27.904h282.197333v-344.576c0-15.445333 12.629333-27.904 28.245334-27.904s28.245333 12.544 28.245333 27.904V303.018667h300.970667c15.616 0 28.245333 12.544 28.245333 27.904 0 15.445333-12.629333 27.989333-28.245333 27.989333H535.466667V526.506667h376.234666c15.616 0 28.245333 12.544 28.245334 27.904 0 15.445333-12.629333 27.989333-28.16 27.989333z"  horiz-adv-x="1024" />

    
    <glyph glyph-name="guoji" unicode="&#59264;" d="M987.84 385.49333333c0 263.68-213.97333333 477.54666667-477.86666667 477.54666667s-477.86666667-213.76-477.86666666-477.54666667c0-243.62666667 182.50666667-444.58666667 418.45333333-473.81333333 13.33333333-2.77333333 29.44-4.48 48.74666667-4.48 5.44 0 10.66666667 0.32 15.68 0.85333333 261.65333333 2.66666667 472.85333333 215.36 472.85333333 477.44z m-68.37333333-6.72c-1.38666667 23.78666667-4.48 47.14666667-9.28 69.76 0.42666667 8.10666667 0.53333333 15.78666667 0.32 22.93333334 5.97333333-27.73333333 9.06666667-56.42666667 9.06666666-85.97333334 0-2.24 0-4.48-0.10666666-6.72z m-819.09333334 6.72c0 28.90666667 2.98666667 57.17333333 8.74666667 84.37333334 17.70666667-18.88 59.41333333-18.45333333 69.54666667 9.81333333 18.24-10.88 42.66666667-12.8 42.66666666-34.45333333 0-71.57333333 2.56-148.16 67.52-149.33333334 1.81333333 0 36.26666667-13.01333333 52.58666667-55.46666666 5.65333333-14.72 28.05333333 0 52.58666667 0 12.26666667 0 0-20.69333333 0-65.28 0-44.48 95.89333333-113.06666667 95.89333333-113.06666667-0.42666667-29.44 0.74666667-53.22666667 3.2-72.32-21.65333333 0.42666667-39.89333333-2.45333333-54.29333333-7.36-192.21333333 33.49333333-338.45333333 201.17333333-338.45333334 403.09333333z m510.4-396.8c-2.13333333 10.34666667-11.41333333 16.10666667-28.37333333 11.62666667 13.54666667 57.6 20.05333333 89.81333333 48.32 114.34666667 40.85333333 35.41333333 4.90666667 74.77333333-26.24 70.18666666-24.53333333-3.73333333-9.06666667 30.29333333-30.93333333 32.21333334-21.86666667 1.81333333-50.45333333 45.33333333-81.92 60.26666666-16.64 7.89333333-33.06666667 29.12-58.77333334 30.08-22.82666667 0.85333333-56.10666667-19.30666667-56.10666666-3.73333333 0 50.02666667-5.12 85.76-6.08 100.05333333-0.85333333 11.41333333-7.46666667 3.84 23.36 3.09333334 16.74666667-0.42666667 8.53333333 33.70666667 25.17333333 34.98666666 16.32 1.28 55.14666667-15.25333333 65.06666667-8.64 9.17333333 6.18666667 67.62666667-153.38666667 67.62666666-26.34666666 0 15.04-7.78666667 41.28 0 55.57333333 30.82666667 56.42666667 59.73333333 102.29333333 57.17333334 109.12-1.49333333 3.73333333-31.57333333 6.93333333-55.68-1.17333333-8.10666667-2.66666667 2.56-15.46666667-9.06666667-18.13333334-43.73333333-10.13333333-82.34666667 11.84-68.8 32.32 13.86666667 21.12 64.10666667 9.17333333 68.48 51.52 2.56 24.21333333 4.58666667 52.26666667 6.08 73.17333334 58.88-9.17333333 52.37333333 76.37333333-35.09333333 85.54666666 177.06666667-2.02666667 327.14666667-116.48 382.18666666-275.09333333-2.77333333 2.56-5.97333333 4.05333333-9.81333333 4.48-26.45333333 66.13333333-90.66666667 18.24-68.90666667-40-116.8-89.70666667-86.82666667-152.32-48.53333333-188.16 20.16-18.88 39.46666667-47.14666667 51.94666667-67.52-13.65333333-39.78666667 50.24-23.89333333 81.70666666 43.62666667-40-139.2-151.89333333-247.78666667-292.8-283.41333334z"  horiz-adv-x="1024" />

    
    <glyph glyph-name="card" unicode="&#59147;" d="M936.96 475.392h-29.269333V637.269333c0 45.653333-35.84 82.858667-79.872 82.858667H121.856c-44.032 0-79.872-37.12-79.872-82.858667v-507.477333c0-45.653333 35.84-82.858667 79.872-82.858667h705.962667c44.032 0 79.872 37.12 79.872 82.858667v255.146667h29.269333c24.064 0 43.776 20.394667 43.776 45.226666 0 24.917333-19.712 45.226667-43.776 45.226667zM100.266667 637.269333c0 12.373333 9.728 22.442667 21.674666 22.442667h705.962667c11.946667 0 21.674667-10.069333 21.674667-22.442667v-72.533333h-749.226667v72.533333z m749.226666-507.392c0-12.373333-9.728-22.442667-21.674666-22.442666H121.856c-11.946667 0-21.674667 10.069333-21.674667 22.442666V513.194667h749.226667v-37.802667H697.685333c-24.064 0-43.776-20.394667-43.776-45.226667 0-24.917333 19.712-45.226667 43.776-45.226666h151.808v-255.061334z"  horiz-adv-x="1024" />

    
    <glyph glyph-name="calendarLine" unicode="&#59148;" d="M394.24 382.72h402.261333c10.069333 0 16.725333 6.656 16.725334 16.725333v33.536c0 10.069333-6.741333 16.725333-16.725334 16.725334H394.24c-10.069333 0-16.725333-6.741333-16.725333-16.725334v-33.536c0-9.984 6.656-16.725333 16.725333-16.725333z m-167.594667 0h67.072c10.069333 0 16.725333 6.656 16.725334 16.725333v33.536c0 10.069333-6.741333 16.725333-16.725334 16.725334h-67.072c-10.069333 0-16.725333-6.741333-16.725333-16.725334v-33.536c-0.085333-9.984 6.656-16.725333 16.725333-16.725333z m569.856-268.202667h-67.072c-10.069333 0-16.725333-6.741333-16.725333-16.725333v-33.536c0-10.069333 6.741333-16.725333 16.725333-16.725333h67.072c10.069333 0 16.725333 6.741333 16.725334 16.725333v33.536c0.085333 10.069333-6.656 16.725333-16.725334 16.725333z m117.333334 670.464H779.776V818.517333c0 16.725333-13.397333 33.536-33.536 33.536-20.138667 0-33.536-13.397333-33.536-33.536v-33.536H310.442667V818.517333c0 16.725333-13.397333 33.536-33.536 33.536-20.138667 0-33.536-13.397333-33.536-33.536v-33.536H109.312c-36.864 0-67.072-30.208-67.072-67.072V-19.626667c0-36.864 30.208-67.072 67.072-67.072H913.92c36.864 0 67.072 30.208 67.072 67.072V717.994667c-0.085333 36.864-30.293333 66.986667-67.157333 66.986666z m0-770.986666c0-20.138667-13.397333-33.536-33.536-33.536H142.848c-20.138667 0-33.536 13.397333-33.536 33.536V516.778667H913.92v-502.784z m0 569.856H109.312V684.458667c0 20.138667 13.397333 33.536 33.536 33.536h100.608v-33.536c0-16.725333 13.397333-33.536 33.536-33.536 20.138667 0 33.536 13.397333 33.536 33.536v33.536h402.261333v-33.536c0-16.725333 13.397333-33.536 33.536-33.536 20.138667 0 33.536 13.397333 33.536 33.536v33.536h100.608c20.138667 0 33.536-13.397333 33.536-33.536v-100.608zM226.645333 215.125333h569.856c10.069333 0 16.725333 6.741333 16.725334 16.725334V265.386667c0 10.069333-6.741333 16.725333-16.725334 16.725333H226.645333c-10.069333 0-16.725333-6.741333-16.725333-16.725333v-33.536c-0.085333-10.069333 6.656-16.725333 16.725333-16.725334z m0-167.68H628.906667c10.069333 0 16.725333 6.741333 16.725333 16.725334v33.536c0 10.069333-6.741333 16.725333-16.725333 16.725333H226.645333c-10.069333 0-16.725333-6.741333-16.725333-16.725333v-33.536c-0.085333-9.984 6.656-16.725333 16.725333-16.725334z"  horiz-adv-x="1024" />

    
    <glyph glyph-name="app" unicode="&#59149;" d="M41.813333 290.048V414.037333c0 11.349333 9.557333 20.650667 21.333334 20.650667h225.109333L190.208 269.397333H63.146667c-11.776 0-21.333333 9.216-21.333334 20.650667z m160.341334-253.781333l-71.850667-47.36c-9.642667-6.4-16.469333-2.304-15.189333 8.96l9.557333 81.066666c1.365333 11.264 10.752 15.872 20.906667 10.24l55.637333-30.890666c10.154667-5.717333 10.581333-15.701333 0.938667-22.016z m17.237333 45.653333L163.84 112.810667c-10.154667 5.632-13.738667 18.346667-7.850667 28.16l257.450667 434.261333c5.802667 9.898667 19.029333 13.312 29.184 7.594667l55.552-30.805334c10.154667-5.717333 13.653333-18.432 7.850667-28.245333L248.576 89.514667c-5.888-9.898667-19.029333-13.226667-29.184-7.594667z m195.925333 187.477333l97.962667 165.290667h56.405333l79.616-165.290667H415.317333z m319.146667-49.322666c-22.272 10.837333-133.12 258.56-161.450667 323.242666-28.416 64.682667-114.261333 236.714667-86.528 250.112 19.797333 9.642667 90.709333-125.866667 143.786667-207.189333 53.077333-81.322667 164.096-291.072 177.749333-314.965333 13.568-23.978667-13.056-43.946667-27.904-49.834667-14.762667-6.144-23.381333-12.117333-45.653333-1.365333z m72.874667-113.834667l-33.450667 51.285333c-6.912 10.666667-3.328 23.808 7.936 29.44l31.914667 15.872c11.264 5.546667 25.344 1.109333 31.317333-10.069333l26.453333-49.237333c5.973333-11.178667 1.877333-25.429333-8.96-31.744L839.68 98.56c-10.837333-6.4-25.429333-2.901333-32.341333 7.68z m123.221333-134.485333c-6.997333 21.674667-60.416 23.125333-84.309333 55.893333-23.978667 32.597333-4.181333 49.408 4.181333 57.088 96.938667 52.906667 80.128-112.981333 80.128-112.981333z m49.92 318.293333c0-11.434667-9.557333-20.650667-21.333333-20.650667H846.506667c-1.28 6.4-3.242667 12.714667-6.656 18.688-2.901333 5.12-10.325333 18.773333-20.650667 37.888-14.933333 27.562667-36.352 67.072-59.221333 108.629334H959.146667c11.776 0 21.333333-9.301333 21.333333-20.650667v-123.904z m0 0"  horiz-adv-x="1024" />

    
    <glyph glyph-name="text" unicode="&#59150;" d="M284.928 147.882667h250.88v46.933333h-250.88v-46.933333z m0 164.096h451.584v46.933333H284.928v-46.933333z m301.056 539.306666H435.456v-46.933333h150.528v46.933333zM284.928 476.074667h451.584v46.933333H284.928v-46.933333z m602.026667 375.210666H736.512s-75.264 4.181333-75.264-46.933333c0-32.170667-21.162667-43.434667-41.045333-46.933333H408.832c-21.674667 2.56-48.64 12.544-48.64 46.933333 0 57.514667-75.264 46.933333-75.264 46.933333H134.485333c-27.733333 0-50.176-20.992-50.176-46.933333v-844.117333c0-25.941333 22.442667-46.933333 50.176-46.933334h576.938667l225.792 211.029334V804.352c-0.085333 25.941333-22.528 46.933333-50.261333 46.933333zM686.336-39.68V124.416c0 12.970667 11.178667 23.381333 25.088 23.381333h175.616l-200.704-187.477333z m200.618667 234.410667H686.336c-27.733333 0-50.176-20.992-50.176-46.933334v-187.562666H159.573333c-13.909333 0-25.088 10.496-25.088 23.466666V780.885333c0 12.970667 11.178667 23.466667 25.088 23.466667h120.32c15.872-5.034667 29.866667-17.749333 30.208-46.933333 0.512-51.285333 75.264-46.848 75.264-46.848h250.794667s75.264-0.170667 75.264 53.674666c0 26.709333 18.773333 36.778667 37.546667 40.106667H861.866667c13.824 0 25.088-10.496 25.088-23.466667v-586.154666z m0 0"  horiz-adv-x="1024" />

    
    <glyph glyph-name="newsLine" unicode="&#59153;" d="M511.488 853.76c-259.157333 0-469.248-183.808-469.248-410.624 0-129.621333 68.778667-245.077333 176.042667-320.256v-207.786667l205.568 124.757334c28.416-4.608 57.770667-7.424 87.722666-7.424 259.242667 0 469.333333 183.893333 469.333334 410.709333S770.730667 853.76 511.488 853.76z m0-762.624c-33.365333 0.170667-66.56 3.669333-99.157333 10.666667l-137.984-82.858667 1.792 136.021333c-105.813333 63.658667-175.274667 168.96-175.274667 288.170667 0 194.389333 183.893333 351.914667 410.624 351.914667 226.901333 0 410.709333-157.610667 410.709333-351.914667 0-194.474667-183.808-352-410.709333-352zM703.146667 554.752H320c-21.674667 0-39.168-15.274667-39.168-34.133333s17.493333-34.133333 39.168-34.133334h383.061333c21.504 0 39.082667 15.274667 39.082667 34.133334 0.085333 18.773333-17.493333 34.133333-38.997333 34.133333zM559.530667 389.290667h-234.666667c-21.077333-0.682667-38.058667-17.664-39.168-39.082667 0-18.773333 17.493333-29.269333 39.168-29.269333h234.666667c21.674667 0 39.168 15.36 39.168 34.133333-0.085333 18.858667-17.578667 34.218667-39.168 34.218667z m0 0"  horiz-adv-x="1024" />

    
    <glyph glyph-name="phoneLine" unicode="&#59154;" d="M513.024 450.389333c-76.117333 0-137.984-60.501333-137.984-134.912 0-74.325333 61.952-134.826667 137.984-134.826666 76.117333 0 138.069333 60.501333 138.069333 134.826666 0 74.410667-61.866667 134.912-138.069333 134.912z m0-190.805333c-31.573333 0-57.258667 25.088-57.258667 55.978667 0 30.890667 25.685333 55.893333 57.258667 55.893333 31.573333 0 57.258667-25.088 57.258667-55.893333 0-30.890667-25.685333-55.978667-57.258667-55.978667z m0 333.909333c-220.757333 0-382.122667-324.010667-382.122667-492.544 0-158.72 65.792-158.72 382.122667-158.72 316.330667 0 382.208 0 382.208 158.72 0 168.533333-161.365333 492.544-382.208 492.544z m0-572.416c-284.501333 0-301.397333 5.888-301.397333 104.618667C211.626667 219.648 336.64 514.56 513.024 514.56c167.765333 0 301.397333-279.210667 301.397333-388.864 0-98.730667-16.896-104.618667-301.397333-104.618667zM961.706667 652.202667c-37.973333 79.018667-146.602667 173.312-448.682667 173.653333-302.592-0.341333-411.989333-95.402667-450.474667-175.018667-33.109333-68.437333-18.602667-139.776-1.962666-159.488 24.576-34.56 52.992-52.053333 84.48-52.053333 0.853333 0 1.706667 0 2.474666 0.085333 63.146667 1.792 108.714667 73.642667 110.677334 76.629334 0.853333 1.365333 86.784 135.594667 254.890666 135.594666 125.952 0 236.544-104.704 253.44-131.498666 1.877333-2.986667 47.189333-73.728 110.08-75.52 31.829333-0.938667 61.184 16.213333 86.272 50.858666 15.957333 19.712 32.341333 86.954667-1.194666 156.757334z m-73.813334-115.712c-2.986667-4.778667-5.973333-7.253333-8.789333-7.509334-13.568-0.256-44.117333 34.048-59.562667 52.821334l-2.730666 3.242666c-18.858667 22.784-154.965333 146.432-303.786667 146.432C329.045333 731.562667 219.306667 596.565333 207.36 581.205333l-8.021333-10.410666c-15.957333-20.906667-35.754667-47.018667-49.066667-47.274667-5.802667 0.597333-11.434667 5.632-15.36 10.410667-5.802667 6.997333-20.138667 47.445333 1.194667 91.050666 27.221333 55.637333 114.688 122.026667 376.917333 122.026667 257.877333 0 345.173333-64.085333 372.992-117.930667 23.722667-45.909333 6.058667-86.954667 1.877333-92.586666z"  horiz-adv-x="1024" />

    
    <glyph glyph-name="customerLine" unicode="&#59155;" d="M915.029333 106.581333l-0.597333 4.608c-38.741333 152.832-165.546667 262.229333-313.856 274.688 80.981333 37.461333 137.984 122.88 138.410667 221.866667C738.986667 742.656 636.330667 852.48 510.122667 852.48h-0.682667c-60.074667 0-118.869333-25.770667-161.365333-70.656-42.666667-45.141333-66.986667-107.605333-66.816-171.349333 0-98.986667 58.282667-186.453333 139.434666-224.512-147.285333-12.288-273.493333-121.856-312.32-274.688-11.861333-46.848-2.048-97.621333 26.112-135.765334 28.928-39.765333 70.4-61.610667 116.736-61.610666h520.277334c46.421333 0 87.893333 21.845333 116.309333 61.098666 28.842667 36.437333 38.570667 85.930667 27.221333 131.584zM448 297.130667h124.330667c120.234667 0 226.56-86.954667 258.730666-212.48 5.802667-18.602667 2.304-37.12-10.496-55.210667v-0.085333c-11.434667-16.128-29.610667-25.856-48.725333-25.856H251.221333c-20.565333 0-36.522667 8.448-48.810666 25.941333-12.970667 18.176-16.298667 37.205333-10.154667 59.050667 29.610667 122.88 134.826667 208.64 255.744 208.64z m-81.834667 313.173333c0.426667 83.626667 64.938667 151.893333 143.872 152.32 79.018667-0.512 143.530667-68.778667 143.957334-152.149333-0.426667-83.541333-65.024-151.893333-143.872-152.32-78.933333 0.426667-143.530667 68.778667-143.957334 152.149333z"  horiz-adv-x="1024" />

    
    <glyph glyph-name="card1" unicode="&#59156;" d="M831.658667 359.253333H515.242667v-203.946666h316.501333V359.253333z m-68.096-123.904H606.122667v48.298667h157.354666v-48.298667z m208.981333 448.682667c-5.290667 12.117333-12.885333 22.954667-22.442667 32.256-19.797333 19.114667-46.848 28.586667-73.472 29.525333H146.005333c-27.562667 0-53.504-10.496-73.301333-29.525333C63.146667 706.986667 55.552 696.149333 50.346667 684.117333c-5.461333-12.544-8.277333-25.856-8.277334-39.594666v-520.021334c0-13.738667 2.730667-27.050667 8.277334-39.594666 5.290667-12.117333 12.8-22.954667 22.357333-32.170667 19.712-19.029333 45.738667-29.525333 73.216-29.525333H876.544c13.994667 0 27.562667 2.645333 40.362667 7.936 24.917333 10.154667 44.629333 29.269333 55.552 53.845333 5.461333 12.544 8.277333 25.856 8.277333 39.509333V644.437333c0.085333 13.653333-2.730667 26.965333-8.192 39.594667z m-71.253333-559.616c0-12.970667-11.093333-23.466667-24.661334-23.466667H146.346667c-13.568 0-24.661333 10.581333-24.661334 23.466667V480.085333h779.605334v-355.669333z m0 434.773333H121.685333v85.333334c0 12.970667 11.093333 23.552 24.661334 23.552h730.282666c13.653333 0 24.661333-10.581333 24.661334-23.552v-85.333334z"  horiz-adv-x="1024" />

    
    <glyph glyph-name="timeLine" unicode="&#59157;" d="M818.005333 105.642667c-15.274667 0-27.648-12.373333-27.648-27.648s12.373333-27.648 27.648-27.648 27.648 12.373333 27.648 27.648c-0.085333 15.274667-12.373333 27.648-27.648 27.648zM511.573333 853.76c-259.242667 0-469.333333-210.090667-469.333333-469.333333s210.090667-469.333333 469.333333-469.333334c80.384 0 157.866667 20.224 226.730667 58.282667 15.274667 8.448 20.736 27.562667 12.373333 42.837333-8.448 15.274667-27.648 20.736-42.837333 12.373334-59.562667-32.938667-126.549333-50.432-196.181333-50.432-224.341333 0-406.272 181.930667-406.272 406.272 0 224.341333 181.845333 406.272 406.272 406.272 224.341333 0 406.272-181.930667 406.272-406.272 0-74.837333-20.224-146.688-58.026667-209.408-8.96-14.933333-4.181333-34.304 10.752-43.264s34.304-4.181333 43.264 10.752c43.690667 72.448 67.072 155.562667 67.072 241.92-0.085333 259.242667-210.176 469.333333-469.418667 469.333333z m0-217.088c-17.408 0-31.488-14.08-31.488-31.573333v-232.362667c0-8.704 3.584-16.981333 9.898667-22.954667L695.466667 155.989333c12.629333-11.946667 32.597333-11.349333 44.544 1.28s11.349333 32.597333-1.28 44.544L543.146667 386.389333V605.184c0 17.408-14.165333 31.488-31.573334 31.488z"  horiz-adv-x="1024" />

    
    <glyph glyph-name="assInflow" unicode="&#59158;" d="M511.573333 812.202667c118.101333 0 229.290667-12.885333 313.514667-36.266667 38.229333-10.666667 69.376-23.125333 90.112-36.266667 19.882667-12.544 22.698667-20.565333 23.04-21.504-0.256-0.938667-3.157333-8.96-23.04-21.504-20.821333-13.056-51.968-25.6-90.112-36.266666-84.138667-23.381333-195.413333-36.266667-313.514667-36.266667-118.101333 0-229.376 12.885333-313.514666 36.266667-38.229333 10.666667-69.376 23.125333-90.112 36.266666-19.882667 12.544-22.698667 20.565333-23.04 21.504 0.256 0.938667 3.157333 8.96 23.04 21.504 20.821333 13.056 51.968 25.6 90.112 36.266667 84.138667 23.296 195.413333 36.266667 313.514666 36.266667m0 41.813333c-259.157333 0-469.333333-60.757333-469.333333-135.850667 0-75.008 210.176-135.850667 469.333333-135.850666s469.333333 60.842667 469.333334 135.850666c0 75.008-210.176 135.850667-469.333334 135.850667z m-426.666666-133.632h-42.666667v-669.696h42.666667V720.384z m896 0.256h-42.666667v-669.696h42.666667V720.64zM632.234667 522.410667L511.573333 379.392 390.912 522.410667l-30.208-29.525334 116.821333-139.264H351.573333v-41.813333h138.666667V241.493333H351.573333v-41.813333h138.666667v-140.629333h42.666667V199.68H671.573333v41.813333H532.906667v70.314667H671.573333v41.813333H545.621333l116.821334 139.264-30.208 29.525334zM305.749333 432.896v42.24c-39.168 5.717333-75.434667 13.141333-107.690666 22.186667-38.229333 10.666667-69.290667 23.125333-90.112 36.266666-19.797333 12.544-22.698667 20.565333-23.04 21.504v0.085334h-42.666667v-0.085334c0-53.845333 107.52-100.181333 263.509333-122.197333z m0-163.328v42.24c-39.168 5.717333-75.434667 13.141333-107.690666 22.186667-38.229333 10.666667-69.290667 23.125333-90.112 36.266666-19.797333 12.544-22.698667 20.565333-23.04 21.504v0.085334h-42.666667v-0.085334c0-53.76 107.52-100.181333 263.509333-122.197333z m407.466667 162.645333c158.293333 21.845333 267.776 68.522667 267.776 122.624v0.085334h-42.666667v-0.085334c-0.256-0.938667-3.157333-8.96-23.04-21.504-20.821333-13.056-51.968-25.6-90.112-36.266666-33.365333-9.301333-71.168-16.896-111.872-22.784v-42.069334zM305.749333 104.874667v42.24c-39.168 5.717333-75.434667 13.141333-107.690666 22.186666-38.229333 10.666667-69.290667 23.125333-90.112 36.266667-19.797333 12.544-22.698667 20.565333-23.04 21.504v0.085333h-42.666667v-0.085333c0-53.76 107.52-100.096 263.509333-122.197333zM938.24 391.68c-0.256-0.938667-3.157333-9.130667-23.04-21.504-20.821333-13.056-51.968-25.6-90.112-36.266667-33.365333-9.301333-71.168-16.896-111.872-22.784v-42.24c158.293333 21.845333 267.776 68.522667 267.776 122.624v0.170667h-42.752z m0-164.608c-0.256-0.938667-3.157333-9.130667-23.04-21.504-20.821333-13.056-51.968-25.6-90.112-36.266667-33.365333-9.301333-71.168-16.896-111.872-22.784v-42.154666c158.293333 21.845333 267.776 68.522667 267.776 122.624v0.085333h-42.752z m0-175.872v-0.512c-0.256-0.938667-3.157333-8.96-23.04-21.504-20.821333-13.056-51.968-25.6-90.112-36.266667-84.138667-23.296-195.413333-36.266667-313.514667-36.266666-118.101333 0-229.376 12.970667-313.514666 36.352-38.229333 10.666667-69.376 23.125333-90.112 36.266666-19.882667 12.544-22.698667 20.565333-23.04 21.504v0.341334l-42.666667-0.341334v-0.085333c0-75.008 210.176-135.850667 469.333333-135.850667s469.333333 60.842667 469.333334 135.850667v0.426667l-42.666667 0.085333z m0 0"  horiz-adv-x="1024" />

    
    <glyph glyph-name="balance" unicode="&#59159;" d="M794.624 748.373333c-24.149333 0-43.690667-18.688-43.690667-41.728s19.541333-41.728 43.690667-41.728c48.128 0 87.381333-37.376 87.381333-83.370666v-500.309334c0-45.994667-39.168-83.370667-87.381333-83.370666H226.816c-48.128 0-87.381333 37.376-87.381333 83.370666V581.546667c0 45.994667 39.168 83.370667 87.381333 83.370666 24.149333 0 43.690667 18.688 43.690667 41.728S250.965333 748.373333 226.816 748.373333c-96.341333 0-174.677333-74.837333-174.677333-166.741333v-500.309333c0-91.989333 78.336-166.741333 174.677333-166.741334h567.808c96.341333 0 174.677333 74.837333 174.677333 166.741334V581.546667c0 91.989333-78.336 166.826667-174.677333 166.826666zM404.053333 644.608c7.850667-14.933333 26.368-20.650667 41.301334-12.8s20.650667 26.368 12.8 41.301333L372.821333 835.413333c-7.850667 14.933333-26.368 20.650667-41.301333 12.8s-20.650667-26.368-12.8-41.301333l85.333333-162.304z m175.872-14.762667c15.189333-7.338667 33.450667-0.938667 40.789334 14.250667l79.616 165.290667c7.338667 15.189333 0.938667 33.450667-14.250667 40.789333-15.189333 7.338667-33.450667 0.938667-40.789333-14.250667l-79.616-165.290666c-7.338667-15.189333-0.938667-33.450667 14.250666-40.789334z m83.626667-134.4c16.896 0 30.549333 13.653333 30.549333 30.549334 0 16.896-13.653333 30.549333-30.549333 30.549333H357.888c-16.896 0-30.549333-13.653333-30.549333-30.549333 0-16.896 13.653333-30.549333 30.549333-30.549334h122.282667v-122.282666H357.888c-16.896 0-30.549333-13.653333-30.549333-30.549334 0-16.896 13.653333-30.549333 30.549333-30.549333h122.282667v-183.466667c0-16.896 13.653333-30.549333 30.549333-30.549333 16.896 0 30.549333 13.653333 30.549333 30.549333v183.466667h122.282667c16.896 0 30.549333 13.653333 30.549333 30.549333 0 16.896-13.653333 30.549333-30.549333 30.549334H541.269333V495.445333h122.282667z"  horiz-adv-x="1024" />

    
    </font>
</defs>
</svg>
