<?xml version="1.0" encoding="UTF-8"?>
<svg width="12px" height="13px" viewBox="0 0 12 13" version="1.1" xmlns="http://www.w3.org/2000/svg" xmlns:xlink="http://www.w3.org/1999/xlink">
    <title>形状结合</title>
    <defs>
        <linearGradient x1="0%" y1="50%" x2="100%" y2="50%" id="linearGradient-1">
            <stop stop-color="#FF7A52" offset="0%"></stop>
            <stop stop-color="#FF1500" offset="100%"></stop>
        </linearGradient>
    </defs>
    <g id="页面-1" stroke="none" stroke-width="1" fill="none" fill-rule="evenodd">
        <g id="1-产品-产品素材库-搜索框2" transform="translate(-1434.000000, -221.000000)" fill="url(#linearGradient-1)">
            <g id="编组-37" transform="translate(1360.000000, 54.000000)">
                <g id="编组-28" transform="translate(16.000000, 166.000000)">
                    <g id="形状结合" transform="translate(56.000000, 0.000000)">
                        <path d="M10.2827272,1.88892625 C10.2702457,2.14083673 10.2647059,2.39411782 10.2647059,2.64869281 C10.2647059,4.35601955 10.5138778,6.00514907 10.9778406,7.56170029 C11.7561025,7.18869208 12.3967115,6.57725938 12.8073507,5.82260066 C13.1444988,6.52143636 13.3333333,7.30565931 13.3333333,8.13398693 C13.3333333,11.0795056 10.9455187,13.4673203 8,13.4673203 C5.05448133,13.4673203 2.66666667,11.0795056 2.66666667,8.13398693 C2.66666667,6.25664691 3.63664701,4.60585793 5.10277958,3.65544813 C5.09975977,3.72608161 5.09803922,3.79502942 5.09803922,3.86437908 C5.09803922,4.84859776 5.44458746,5.75187576 6.02231904,6.45884818 C6.01367171,6.35465924 6.00980392,6.24967673 6.00980392,6.14379085 C6.00980392,3.79387338 7.91478842,1.88888889 10.2647059,1.88888889 L10.2827272,1.88892625 L10.2827272,1.88892625 Z"></path>
                    </g>
                </g>
            </g>
        </g>
    </g>
</svg>