<?xml version="1.0" encoding="UTF-8"?>
<svg width="32px" height="20px" viewBox="0 0 32 20" version="1.1" xmlns="http://www.w3.org/2000/svg" xmlns:xlink="http://www.w3.org/1999/xlink">
    <title>标签-新@1x</title>
    <defs>
        <linearGradient x1="0%" y1="50%" x2="100%" y2="50%" id="linearGradient-1">
            <stop stop-color="#F8936F" offset="0%"></stop>
            <stop stop-color="#EF5A3C" offset="100%"></stop>
        </linearGradient>
    </defs>
    <g id="页面-1" stroke="none" stroke-width="1" fill="none" fill-rule="evenodd">
        <g id="切图画板" transform="translate(-335.000000, -79.000000)">
            <g id="标签-新-2" transform="translate(335.000000, 79.000000)">
                <g id="标签-新">
                    <path d="M6,0 L26,0 C29.3137085,-6.08718376e-16 32,2.6862915 32,6 L32,14 C32,17.3137085 29.3137085,20 26,20 L0,20 L0,20 L0,6 C-4.05812251e-16,2.6862915 2.6862915,6.08718376e-16 6,0 Z" id="矩形备份" fill="url(#linearGradient-1)"></path>
                    <text id="新" font-family="SourceHanSansCN-Medium, Source Han Sans CN" font-size="14" font-weight="400" fill="#FFFFFF">
                        <tspan x="9" y="15">新</tspan>
                    </text>
                </g>
                <g id="标签-新">
                    <path d="M6,0 L26,0 C29.3137085,-6.08718376e-16 32,2.6862915 32,6 L32,14 C32,17.3137085 29.3137085,20 26,20 L0,20 L0,20 L0,6 C-4.05812251e-16,2.6862915 2.6862915,6.08718376e-16 6,0 Z" id="矩形备份" fill="url(#linearGradient-1)"></path>
                    <text id="新" font-family="SourceHanSansCN-Medium, Source Han Sans CN" font-size="14" font-weight="400" fill="#FFFFFF">
                        <tspan x="9" y="15">新</tspan>
                    </text>
                </g>
            </g>
        </g>
    </g>
</svg>