<?xml version="1.0" encoding="utf-8"?>
<svg width="14.140015px" height="14.790009px" viewBox="0 0 14.140015 14.790009" version="1.1" xmlns:xlink="http://www.w3.org/1999/xlink" xmlns="http://www.w3.org/2000/svg">
  <defs>
    <path d="M0 0L14.14 0L14.14 14.79L0 14.79L0 0Z" id="path_1" />
    <clipPath id="mask_1">
      <use xlink:href="#path_1" />
    </clipPath>
  </defs>
  <g id="导航">
    <path d="M0 0L14.14 0L14.14 14.79L0 14.79L0 0Z" id="背景" fill="#FFFFFF" fill-opacity="0" fill-rule="evenodd" stroke="none" />
    <g clip-path="url(#mask_1)">
      <path d="M7.08006 6.5C6.10252 6.5 5.31006 5.70754 5.31006 4.73C5.31006 3.75246 6.10251 2.96 7.08005 2.96C8.0576 2.96 8.85005 3.75245 8.85006 4.72999C8.83926 5.70302 8.0531 6.48918 7.08007 6.5L7.08006 6.5ZM7.08008 4.14C6.92278 4.13727 6.77111 4.19855 6.65987 4.30979C6.54862 4.42104 6.48734 4.5727 6.49008 4.73C6.49008 5.05585 6.75423 5.32 7.08008 5.32C7.40368 5.31465 7.66473 5.05361 7.67008 4.73C7.67008 4.40415 7.40593 4.14 7.08008 4.14L7.08008 4.14Z" id="形状" fill="#FFFFFF" fill-rule="evenodd" stroke="none" />
      <path d="M7.08002 11.64C6.90094 11.6416 6.73116 11.5604 6.62002 11.42L3.48002 7.53C1.95713 5.64331 2.15184 2.90035 3.92596 1.2477C5.70007 -0.404949 8.44993 -0.404956 10.2241 1.24769C11.9982 2.90033 12.1929 5.64329 10.67 7.52998L7.54002 11.42C7.42702 11.5581 7.25843 11.6387 7.08001 11.64L7.08002 11.64ZM7.07999 1.17999C5.7508 1.17582 4.53815 1.93778 3.96519 3.13714C3.39223 4.3365 3.56151 5.75863 4.39999 6.78999L7.07999 10.11L9.75999 6.78999C10.5899 5.75645 10.7542 4.33885 10.1829 3.14283C9.61151 1.94682 8.40546 1.18389 7.07999 1.17999L7.07999 1.17999Z" id="形状" fill="#FFFFFF" fill-rule="evenodd" stroke="none" />
      <path d="M12.57 14.79L1.57004 14.79C1.03538 14.7866 0.538713 14.513 0.250096 14.0629C-0.0385215 13.6128 -0.0799343 13.0473 0.140036 12.56L1.25004 10.06C1.51155 9.48858 2.08163 9.12155 2.71004 9.12L3.56004 9.12C3.71734 9.11726 3.869 9.17854 3.98025 9.28979C4.09149 9.40103 4.15277 9.5527 4.15004 9.71C4.15004 10.0358 3.88588 10.3 3.56004 10.3L2.71004 10.3C2.54762 10.2998 2.39964 10.3933 2.33004 10.54L1.21004 13C1.14946 13.1194 1.14946 13.2606 1.21004 13.38C1.28735 13.4981 1.41885 13.5695 1.56004 13.57L12.56 13.57C12.7012 13.5695 12.8327 13.4981 12.91 13.38C12.9759 13.2619 12.9759 13.1181 12.91 13L11.8 10.5C11.7339 10.3548 11.5896 10.2612 11.43 10.26L10.55 10.26C10.2547 10.2406 10.0195 10.0053 10 9.71C9.9973 9.5527 10.0586 9.40104 10.1698 9.28979C10.2811 9.17855 10.4327 9.11726 10.59 9.12L11.46 9.12C12.0856 9.12295 12.652 9.49016 12.91 10.06L14 12.56C14.3505 13.3609 13.9887 14.2945 13.19 14.65C12.9955 14.7398 12.7843 14.7875 12.57 14.79L12.57 14.79Z" id="形状" fill="#FFFFFF" stroke="none" />
    </g>
  </g>
</svg>