<?xml version="1.0" encoding="utf-8"?>
<svg width="16.04773px" height="16px" viewBox="0 0 16.04773 16" version="1.1" xmlns:xlink="http://www.w3.org/1999/xlink" xmlns="http://www.w3.org/2000/svg">
  <defs>
    <path d="M0 0L16.0477 0L16.0477 16L0 16L0 0Z" id="path_1" />
    <clipPath id="mask_1">
      <use xlink:href="#path_1" />
    </clipPath>
  </defs>
  <g id="1.1首页">
    <path d="M0 0L16.0477 0L16.0477 16L0 16L0 0Z" id="Background" fill="none" fill-rule="evenodd" stroke="none" />
    <g clip-path="url(#mask_1)">
      <path d="M7.39453 14.9095L7.39453 11.4358C7.42581 11.105 7.71672 10.8598 8.04911 10.8842L8.04911 10.8842C8.38308 10.8574 8.67664 11.1032 8.70791 11.4358L8.70791 14.9053L7.39453 14.9095Z" id="Shape" fill="#FFFFFF" stroke="none" />
      <path d="M11.115 16L4.93241 16C3.11415 15.9884 1.64828 14.5118 1.6553 12.6989L1.6553 4.95996L2.74485 4.95996L2.74485 12.6989C2.74019 13.9088 3.71893 14.8941 4.93243 14.901L11.115 14.901C12.3285 14.8941 13.3072 13.9088 13.3026 12.6989L13.3026 4.95996L14.3921 4.95996L14.3921 12.6989C14.3992 14.5117 12.9333 15.9883 11.115 16L11.115 16Z" id="Shape" fill="#FFFFFF" stroke="none" />
      <path d="M15.9214 6.67787C15.8292 6.7896 15.6958 6.85969 15.5513 6.87236C15.4067 6.88503 15.2631 6.83922 15.1528 6.74523L8.91529 1.49471C8.69176 1.25693 8.38138 1.11925 8.05457 1.11291C7.72777 1.10657 7.41225 1.2321 7.1796 1.46102L0.895657 6.73681C0.785928 6.8307 0.643267 6.87723 0.499102 6.86618C0.354936 6.85512 0.221092 6.78738 0.127056 6.67787L0.127056 6.67787C0.031845 6.56508 -0.0145256 6.41921 -0.00185369 6.27233C0.0108183 6.12546 0.0814946 5.98962 0.194625 5.89471L6.43212 0.648392C6.86287 0.226516 7.44434 -0.00704961 8.04812 -0.00072946C8.65191 0.00559069 9.22833 0.251277 9.65011 0.682076L15.8538 5.89471C16.084 6.09163 16.114 6.43587 15.9214 6.66945L15.9214 6.67787Z" id="Shape" fill="#FFFFFF" stroke="none" />
    </g>
  </g>
</svg>