<?xml version="1.0" encoding="utf-8"?>
<svg width="12.900024px" height="13.889984px" viewBox="0 0 12.900024 13.889984" version="1.1" xmlns:xlink="http://www.w3.org/1999/xlink" xmlns="http://www.w3.org/2000/svg">
  <g id="信息中心">
    <path d="M10.65 13.89L2.25 13.89C1.00736 13.89 0 12.8826 0 11.64L0 2.25C0 1.00736 1.00736 2.38419e-07 2.25 0L10.65 2.38419e-07C11.8926 0 12.9 1.00736 12.9 2.25L12.9 11.64C12.9 12.8826 11.8926 13.89 10.65 13.89L10.65 13.89ZM2.25004 1.16C1.65196 1.16549 1.17002 1.6519 1.17004 2.25L1.17004 11.64C1.17034 12.237 1.6541 12.7203 2.25057 12.72L10.65 12.72C10.9382 12.7227 11.2155 12.6101 11.4202 12.4072C11.6249 12.2044 11.7401 11.9282 11.74 11.64L11.74 2.25C11.74 1.64801 11.252 1.16 10.65 1.16L2.25004 1.16Z" id="形状" fill="#FFFFFF" fill-rule="evenodd" stroke="none" />
    <path d="M5.41007 8.75L2.95007 8.75C2.67393 8.75 2.45007 8.52614 2.45007 8.25C2.45007 7.97386 2.67393 7.75 2.95007 7.75L5.41007 7.75C5.68622 7.75 5.91007 7.97386 5.91007 8.25C5.91007 8.52614 5.68622 8.75 5.41007 8.75L5.41007 8.75Z" id="形状" fill="#FFFFFF" stroke="none" />
    <path d="M10.08 8.75L7.60999 8.75C7.33608 8.74468 7.11531 8.52391 7.10999 8.25C7.10999 7.97386 7.33384 7.75 7.60999 7.75L10.08 7.75C10.3561 7.75 10.58 7.97386 10.58 8.25C10.58 8.52614 10.3561 8.75 10.08 8.75L10.08 8.75Z" id="形状" fill="#FFFFFF" stroke="none" />
    <path d="M10.08 6.09L7.60999 6.09C7.33384 6.09 7.10999 5.86614 7.10999 5.59C7.11531 5.31609 7.33608 5.09531 7.60999 5.09L10.08 5.09C10.3561 5.09 10.58 5.31385 10.58 5.59C10.58 5.86614 10.3561 6.09 10.08 6.09L10.08 6.09Z" id="形状" fill="#FFFFFF" stroke="none" />
    <path d="M4.41007 11.09L2.95007 11.09C2.67393 11.09 2.45007 10.8661 2.45007 10.59C2.45007 10.3139 2.67393 10.09 2.95007 10.09L4.41007 10.09C4.68398 10.0953 4.90475 10.3161 4.91007 10.59C4.91007 10.8661 4.68622 11.09 4.41007 11.09L4.41007 11.09Z" id="形状" fill="#FFFFFF" stroke="none" />
    <path d="M9.08999 11.09L7.60999 11.09C7.33384 11.09 7.10999 10.8661 7.10999 10.59C7.11531 10.3161 7.33608 10.0953 7.60999 10.09L9.08999 10.09C9.36613 10.09 9.58999 10.3139 9.58999 10.59C9.58999 10.8661 9.36613 11.09 9.08999 11.09L9.08999 11.09Z" id="形状" fill="#FFFFFF" stroke="none" />
    <path d="M5.13003 6.09L3.28003 6.09C3.05721 6.0981 2.84031 6.01728 2.67713 5.86534C2.51394 5.71341 2.41785 5.50283 2.41003 5.28L2.41003 3.43C2.41003 2.9699 2.78008 2.59544 3.24009 2.59L5.13003 2.59C5.5917 2.5954 5.96463 2.96833 5.97003 3.43L5.97003 5.28C5.94886 5.72991 5.58041 6.0852 5.13003 6.09L5.13003 6.09ZM3.41003 5.09L4.97003 5.09L4.97003 3.59L3.41003 3.59L3.41003 5.09Z" id="形状" fill="#FFFFFF" fill-rule="evenodd" stroke="none" />
  </g>
</svg>