<?xml version="1.0" encoding="UTF-8"?>
<svg width="94px" height="26px" viewBox="0 0 94 26" version="1.1" xmlns="http://www.w3.org/2000/svg" xmlns:xlink="http://www.w3.org/1999/xlink">
    <title>编组 5</title>
    <defs>
        <rect id="path-1" x="0" y="-2.27373675e-13" width="94" height="26"></rect>
        <polygon id="path-3" points="0.00929865229 0.144881469 17.8130507 0.144881469 17.8130507 18.2605819 0.00929865229 18.2605819"></polygon>
        <polygon id="path-5" points="0 0.159550073 18.5605407 0.159550073 18.5605407 19.0446691 0 19.0446691"></polygon>
    </defs>
    <g id="页面-1" stroke="none" stroke-width="1" fill="none" fill-rule="evenodd">
        <g id="工作-待办-任务" transform="translate(-17.000000, -14.000000)">
            <g id="编组-5" transform="translate(17.000000, 14.000000)">
                <mask id="mask-2" fill="white">
                    <use xlink:href="#path-1"></use>
                </mask>
                <g id="蒙版" opacity="0.332380022"></g>
                <path d="M84.484717,10.1945596 C84.8581833,9.72485487 85.213407,9.25540797 85.5253046,8.7916326 L88.1626253,8.7916326 C88.5652291,9.36832271 88.9194394,9.82565319 89.2353908,10.1945596 L84.484717,10.1945596 Z M93.715973,12.1754656 C92.2603666,11.1561394 91.0381132,10.0197737 90.0651752,8.7916326 L93.2654825,8.7916326 C93.3176765,8.7916326 93.3579623,8.74729165 93.3579623,8.69882596 L93.3579623,7.6557825 C93.3579623,7.60551224 93.3176765,7.56142909 93.2654825,7.56142909 L86.2370189,7.56142909 C86.326965,7.3569967 86.6809218,6.56349997 86.7207008,6.47043554 L92.7250458,6.47043554 C92.7795202,6.47043554 92.8200593,6.43047712 92.8200593,6.37582433 L92.8200593,5.3513422 C92.8200593,5.29720499 92.7795202,5.2556998 92.7250458,5.2556998 L87.1169704,5.2556998 C87.3855418,4.35650663 87.6201617,3.41761284 87.8071482,2.46969618 C87.807655,2.46247789 87.807655,2.45629078 87.807655,2.45010367 C87.807655,2.42870659 87.8023342,2.40859848 87.7868787,2.38977936 C87.7706631,2.36941346 87.7422857,2.35703924 87.7172022,2.35703924 L86.2636226,2.35703924 C86.2202965,2.35703924 86.1789973,2.38977936 86.1726631,2.43515149 C86.0132938,3.47329682 85.7743666,4.42224466 85.4718437,5.2556998 L80.7584151,5.2556998 C80.7097682,5.2556998 80.6679623,5.29720499 80.6679623,5.3513422 L80.6679623,6.37582433 C80.6679623,6.43047712 80.7097682,6.47043554 80.7584151,6.47043554 L84.9955094,6.47043554 C84.9017628,6.67203217 84.5250027,7.47532516 84.484717,7.56142909 L80.2567439,7.56142909 C80.2070836,7.56142909 80.165531,7.60551224 80.165531,7.6557825 L80.165531,8.69882596 C80.165531,8.74729165 80.2070836,8.7916326 80.2567439,8.7916326 L83.6275687,8.7916326 C82.738496,9.95790264 81.5111752,11.1053536 79.9577682,12.2071746 C79.9339515,12.2221267 79.9190027,12.2535779 79.9190027,12.2845134 C79.9190027,12.2948253 79.9210296,12.2999812 79.9240701,12.310293 C79.9339515,12.3492203 79.9701833,12.3783512 80.0117358,12.3783512 L82.2031267,12.3783512 C82.2221294,12.3783512 82.2446792,12.369844 82.2636819,12.3564386 C82.2636819,12.3564386 83.2687978,11.4714242 83.3222588,11.4275988 L85.6124636,11.4275988 C84.9156981,13.159216 83.2328194,14.6928456 80.584097,15.9856936 C80.5539461,15.9998724 80.5321563,16.0362216 80.5321563,16.0725709 C80.5321563,16.0790158 80.5321563,16.0867497 80.5344367,16.092679 C80.5440647,16.1372778 80.5818167,16.1661509 80.6253962,16.1661509 L83.2272453,16.1661509 C83.2444744,16.1661509 83.2639838,16.162284 83.2781725,16.149652 C85.3324906,14.7830743 86.6758544,13.1932451 87.2869811,11.4275988 L89.3245768,11.4275988 C89.37069,11.4275988 89.4130027,11.4513161 89.4535418,11.5028753 C89.5014286,11.5585593 89.5234717,11.6152745 89.5234717,11.6763722 L89.5234717,14.6044215 C89.5234717,14.6737687 89.4872399,14.7423425 89.4150296,14.8078227 C89.3395256,14.8776855 89.2675687,14.912488 89.1887709,14.912488 L86.7062588,14.912488 C86.674841,14.912488 86.6451968,14.9310493 86.625434,14.9557977 C86.6107385,14.9833819 86.6094717,15.0156064 86.6206199,15.0460264 L87.0916334,16.1107247 C87.1070889,16.144496 87.1397736,16.1661509 87.1765121,16.1661509 L89.3684097,16.1661509 C89.9058059,16.1661509 90.3296927,16.011731 90.6253747,15.7090782 C90.92131,15.4043631 91.0702911,15.0225669 91.0702911,14.5740015 L91.0702911,12.0133118 C91.2253531,12.1440145 91.4447709,12.3278232 91.4447709,12.3278232 C91.4602264,12.342002 91.4787224,12.3476735 91.5007655,12.3476735 L93.6635256,12.3476735 C93.7043181,12.3476735 93.7395364,12.3203471 93.7506846,12.2790997 C93.7549919,12.2726548 93.7549919,12.2605384 93.7549919,12.2535779 C93.7549919,12.2221267 93.7408032,12.1929958 93.715973,12.1754656 L93.715973,12.1754656 Z M59.0444151,14.5740015 C59.0444151,14.7423425 58.9813261,14.8078227 58.8290512,14.8078227 L53.0550189,14.8078227 C52.8817143,14.8078227 52.8117844,14.7423425 52.8117844,14.5740015 L52.8117844,12.4513076 C52.8117844,12.2342432 52.8926092,12.1401475 53.0856765,12.1401475 L58.7854717,12.1401475 C58.9663774,12.1401475 59.0444151,12.230634 59.0444151,12.435582 L59.0444151,14.5740015 Z M59.2922102,10.8795241 L52.6136496,10.8795241 C52.2107925,10.8795241 51.8727978,11.0161561 51.6047332,11.2863265 C51.3389488,11.5534034 51.2041563,11.8779688 51.2041563,12.2535779 L51.2041563,14.7103757 C51.2041563,15.1398642 51.3526307,15.482991 51.6452722,15.7394982 C51.9320863,15.9856936 52.2890836,16.1166541 52.7046092,16.1166541 L59.1888356,16.1166541 C59.6471806,16.1166541 60.0102588,15.9807955 60.2740162,15.7162965 C60.5382803,15.4546334 60.6743396,15.0957811 60.6743396,14.6495358 L60.6743396,12.3105508 C60.6743396,11.8779688 60.5479084,11.5283971 60.2983396,11.2703431 C60.0497844,11.0104846 59.7120431,10.8795241 59.2922102,10.8795241 L59.2922102,10.8795241 Z M37.6790512,12.5876818 C37.5744097,12.5348335 35.9029326,11.6585842 35.9029326,11.6585842 C35.0711213,11.2133702 34.9472237,11.1280396 34.9297412,11.1099939 C34.9297412,11.1030334 34.8978167,11.0045552 34.8978167,11.0045552 C34.9061779,10.97826 35.6490566,9.63643077 35.7792884,9.4031252 L40.3194124,9.4031252 C39.7865768,10.544389 38.9033315,11.6168212 37.6790512,12.5876818 L37.6790512,12.5876818 Z M44.4711213,16.0171447 C42.1576065,14.9429079 40.3586846,14.0550578 39.099186,13.3641639 C40.459779,12.1777858 41.4575472,10.8475574 42.0646199,9.4031252 L44.2157251,9.4031252 C44.2666523,9.4031252 44.3087116,9.35852646 44.3087116,9.3082562 L44.3087116,8.19612335 C44.3087116,8.1453375 44.2666523,8.10254333 44.2157251,8.10254333 L36.5229272,8.10254333 C36.6850836,7.84397373 38.0388356,5.68931303 38.0388356,5.68931303 C38.0489704,5.67410305 38.0553046,5.65657291 38.0553046,5.64007395 C38.0553046,5.6228016 38.0509973,5.60656044 38.041876,5.59315504 C38.0259137,5.56118831 37.9957628,5.54572054 37.9610512,5.54572054 L36.2918544,5.54572054 C36.2611968,5.54572054 36.2302857,5.56118831 36.2120431,5.58799912 C36.2120431,5.58799912 34.7761995,8.01308805 34.7227385,8.10254333 L30.8854609,8.10254333 C30.8365606,8.10254333 30.7937412,8.1453375 30.7937412,8.19612335 L30.7937412,9.3082562 C30.7937412,9.35852646 30.8365606,9.4031252 30.8854609,9.4031252 L34.0247062,9.4031252 C33.8972615,9.63617297 33.2564906,10.7967715 33.2564906,10.7967715 C33.1543827,10.9857361 33.1026954,11.167998 33.1026954,11.3453618 C33.1026954,11.7176196 33.2909488,12.0192411 33.6651752,12.2473908 C33.9978491,12.4492452 34.8542372,12.9145674 36.1897466,13.6119061 C35.0696011,14.3285796 33.2412884,15.1357395 30.7207709,16.0148246 C30.6822588,16.0290033 30.6576819,16.064837 30.6576819,16.1042798 L30.6576819,16.119232 C30.6660431,16.1656353 30.7048086,16.1981177 30.7506685,16.1981177 L34.7599838,16.1981177 C34.7982426,16.1981177 34.8593046,16.1981177 35.8710081,15.6242633 C36.5105121,15.261544 37.1469757,14.8519059 37.7712776,14.4167459 C39.0338167,15.0981012 40.2236388,15.6959306 41.2966577,16.1893526 L44.4298221,16.1981177 C44.4746685,16.1981177 44.5139407,16.1661509 44.523062,16.123099 C44.5243288,16.1166541 44.5243288,16.1081468 44.5243288,16.1042798 C44.5243288,16.0663838 44.5038059,16.0318391 44.4711213,16.0171447 L44.4711213,16.0171447 Z M68.3947547,14.7129537 L66.6776712,14.7129537 C66.664496,14.7129537 66.6267439,14.7129537 66.6267439,14.5729704 L66.6267439,6.09688883 C66.6267439,6.04507179 66.5846846,6.00098864 66.5324906,6.00098864 L63.9648464,6.00098864 C63.9134124,6.00098864 63.8703396,6.04507179 63.8703396,6.09688883 L63.8703396,7.32116302 C63.8703396,7.37246447 63.9134124,7.41525864 63.9648464,7.41525864 L65.16531,7.41525864 L65.16531,14.964305 C65.1736712,15.9086125 65.7062534,16.1107247 66.1524367,16.1166541 L68.3947547,16.1166541 C68.4456819,16.1166541 68.4885013,16.0725709 68.4885013,16.0184337 L68.4885013,14.8078227 C68.4885013,14.7572946 68.4456819,14.7129537 68.3947547,14.7129537 L68.3947547,14.7129537 Z M60.918841,3.92263561 L56.6130836,3.92263561 C56.4395256,3.51196625 56.2672345,2.99250689 56.108372,2.35935941 C56.0969704,2.31836981 56.0599784,2.28898104 56.0176658,2.28898104 L54.4979569,2.28898104 C54.4695795,2.28898104 54.4434825,2.30135526 54.4257466,2.32533031 C54.4120647,2.34311824 54.4062372,2.36296855 54.4062372,2.38281886 C54.4062372,2.38977936 54.4062372,2.4008646 54.4090243,2.40627832 C54.5397628,2.9169726 54.6978652,3.42560452 54.8721833,3.92263561 L50.9013801,3.92263561 C50.8765499,3.92263561 50.8557736,3.93346305 50.839558,3.94867303 C51.0227439,3.45525109 51.1952884,2.94481459 51.3571914,2.40911407 C51.3592183,2.40215358 51.3602318,2.39132614 51.3602318,2.38281886 C51.3602318,2.36425753 51.3526307,2.34311824 51.3427493,2.32816606 C51.3255202,2.30135526 51.2973962,2.28898104 51.2669919,2.28898104 L49.7784474,2.28898104 C49.7394286,2.28898104 49.7016765,2.31630744 49.6917951,2.35471907 C48.99731,4.5691885 48.1900755,6.2688389 47.2837736,7.40726696 C47.260717,7.43510895 47.2566631,7.47300499 47.2716119,7.50471392 C47.2873208,7.53900082 47.319752,7.56117129 47.3569973,7.56117129 L48.5577143,7.56117129 L48.5577143,16.0184337 C48.5577143,16.0725709 48.5992668,16.1166541 48.6507008,16.1166541 L50.0551267,16.1166541 C50.1058005,16.1166541 50.1481132,16.0725709 50.1481132,16.0184337 L50.1481132,6.89940843 C50.1481132,6.85068494 50.1058005,6.80943755 50.0551267,6.80943755 L49.5248248,6.80943755 C49.9958383,5.98448968 50.4242857,5.05822791 50.8073801,4.03555035 L50.8073801,5.08297634 C50.8073801,5.13814473 50.8509596,5.17707196 50.9013801,5.17707196 L60.918841,5.17707196 C60.9685013,5.17707196 61.0092938,5.13814473 61.0092938,5.08297634 L61.0092938,4.01982478 C61.0092938,3.96568758 60.9685013,3.92263561 60.918841,3.92263561 L60.918841,3.92263561 Z M51.4914771,7.43923369 L60.1987655,7.43923369 C60.2509596,7.43923369 60.2920054,7.39695511 60.2920054,7.34410689 L60.2920054,6.28018194 C60.2920054,6.2281071 60.2509596,6.18634412 60.1987655,6.18634412 L51.4914771,6.18634412 C51.4423235,6.18634412 51.3987439,6.2281071 51.3987439,6.28018194 L51.3987439,7.34410689 C51.3987439,7.39695511 51.4423235,7.43923369 51.4914771,7.43923369 L51.4914771,7.43923369 Z M51.3987439,9.69623949 C51.3987439,9.74702534 51.4423235,9.79213968 51.4914771,9.79213968 L60.1987655,9.79213968 C60.2509596,9.79213968 60.2920054,9.74702534 60.2920054,9.69623949 L60.2920054,8.62097151 C60.2920054,8.57018565 60.2509596,8.5263603 60.1987655,8.5263603 L51.4914771,8.5263603 C51.4423235,8.5263603 51.3987439,8.57018565 51.3987439,8.62097151 L51.3987439,9.69623949 Z M83.0468464,4.9502113 C83.0661024,4.97263957 83.0927062,4.98784954 83.1228571,4.98784954 L84.8366469,4.98784954 C84.8716119,4.98784954 84.9045499,4.96799924 84.9207655,4.93474352 C84.9354609,4.89865206 84.9293801,4.85972483 84.90531,4.83059386 C84.3902102,4.21832786 83.9561887,3.53491011 83.6192075,2.79941753 C83.6032453,2.76564623 83.5703073,2.74321796 83.5320485,2.74321796 L81.9413962,2.74321796 C81.9109919,2.74321796 81.8831213,2.75920132 81.862345,2.78730111 C81.8471429,2.81153395 81.8456226,2.84375848 81.8549973,2.87443623 C82.0870836,3.46246938 82.4869003,4.1613549 83.0468464,4.9502113 L83.0468464,4.9502113 Z M77.3721348,14.72275 L73.5898383,14.72275 L73.5898383,9.97311262 L76.6540863,9.97311262 C76.7045067,9.97311262 76.7470728,9.93134963 76.7470728,9.87618124 L76.7470728,8.80374902 C76.7470728,8.75296316 76.7045067,8.71145797 76.6540863,8.71145797 L73.5898383,8.71145797 L73.5898383,3.96001606 L77.0351536,3.96001606 C77.0855741,3.96001606 77.1283935,3.91825308 77.1283935,3.86566265 L77.1283935,2.77750486 C77.1283935,2.72388324 77.0855741,2.68366704 77.0351536,2.68366704 L68.1791375,2.68366704 C68.1277035,2.68366704 68.0884313,2.72388324 68.0884313,2.77750486 L68.0884313,3.86566265 C68.0884313,3.91825308 68.1277035,3.96001606 68.1791375,3.96001606 L71.9839838,3.96001606 L71.9839838,14.72275 L70.1118383,14.72275 L70.1118383,7.42118795 C70.1118383,7.3706599 70.0712992,7.32502997 70.0193585,7.32502997 L68.6886631,7.32502997 C68.6390027,7.32502997 68.5956765,7.3706599 68.5956765,7.42118795 L68.5956765,14.9310493 C68.5956765,14.9524464 68.5832615,15.5012945 68.9118814,15.8462258 C69.085186,16.0233318 69.3142318,16.1166541 69.5959784,16.1166541 L77.3721348,16.1166541 C77.4240755,16.1166541 77.4641078,16.0725709 77.4641078,16.0184337 L77.4641078,14.8183923 C77.4641078,14.7639973 77.4240755,14.72275 77.3721348,14.72275 L77.3721348,14.72275 Z M88.6209704,4.98784954 L90.3481887,4.98784954 C90.3790997,4.98784954 90.4079838,4.97263957 90.4229326,4.9502113 C90.810841,4.39775402 91.1761995,3.70041528 91.5124205,2.87520962 C91.5225553,2.84375848 91.5202749,2.81230734 91.5032992,2.78730111 C91.4850566,2.7607481 91.4569326,2.74321796 91.4252615,2.74321796 L89.892124,2.74321796 C89.8584259,2.74321796 89.8237143,2.76564623 89.8082588,2.79941753 C89.4497412,3.55501822 89.0266146,4.23688919 88.548,4.83523419 C88.5257035,4.86230279 88.5224097,4.902519 88.5371051,4.93474352 C88.552814,4.96799924 88.5852453,4.98784954 88.6209704,4.98784954 L88.6209704,4.98784954 Z M31.0554717,7.62278459 L32.4778868,7.62278459 C32.530841,7.62278459 32.5696065,7.57870144 32.5696065,7.52714219 L32.5696065,5.25157506 C32.5696065,5.09560836 32.6326954,5.03296388 32.7862372,5.03296388 L42.2533801,5.03296388 C42.3661294,5.03296388 42.4679838,5.06415722 42.4679838,5.28225281 L42.4679838,7.52714219 C42.4679838,7.57870144 42.5097898,7.62278459 42.5594501,7.62278459 L43.9958005,7.62278459 C44.0492615,7.62278459 44.0905606,7.57870144 44.0905606,7.52714219 L44.0905606,5.25157506 C44.0905606,4.82311777 43.9519677,4.45601597 43.6740216,4.15903473 C43.4008895,3.85973334 43.0552938,3.71201611 42.6511698,3.71201611 L38.4918598,3.71201611 C38.3345175,3.4818041 38.1371429,3.08325116 37.896442,2.50604545 C37.8817466,2.47175855 37.8493154,2.44649452 37.8110566,2.44649452 L36.1426199,2.44649452 C36.1114555,2.44649452 36.0840916,2.46247789 36.0668625,2.49006208 C36.0552075,2.50604545 36.0498868,2.52228661 36.0498868,2.54033234 C36.0498868,2.55347995 36.0544474,2.56533858 36.0572345,2.57925957 C36.2814663,3.10903078 36.4497035,3.46865649 36.5738544,3.71201611 L32.5371752,3.71201611 C32.0755364,3.71201611 31.6952291,3.85354623 31.4058814,4.13351291 C31.1124798,4.41399518 30.963752,4.77362089 30.963752,5.20749191 L30.963752,7.52714219 C30.963752,7.57870144 31.0058113,7.62278459 31.0554717,7.62278459 L31.0554717,7.62278459 Z M65.6033854,4.89865206 C65.621628,4.9226271 65.649752,4.93732149 65.6809164,4.93732149 L67.393186,4.93732149 C67.4273908,4.93732149 67.4613423,4.91721338 67.4762911,4.88576225 C67.4902264,4.85044416 67.4861725,4.81100135 67.465903,4.78496393 C66.7171968,3.83550049 66.2707601,3.14048192 65.9249111,2.39132614 C65.9099623,2.35807042 65.8777844,2.33718893 65.8407925,2.33718893 L64.2473531,2.33718893 C64.2166954,2.33718893 64.1880647,2.35214111 64.1700755,2.3802409 C64.1538598,2.40266917 64.1495526,2.43747166 64.1609542,2.468665 C64.4062156,3.09098504 64.8268086,3.79605767 65.6033854,4.89865206 L65.6033854,4.89865206 Z M92.7478491,19.9549818 C92.5519946,19.8217012 92.2920377,19.6997636 92.0277736,19.6997636 C91.6543073,19.6997636 91.4493315,19.9147656 91.4493315,20.1800379 C91.4493315,20.4762457 91.7617358,20.7028486 92.2841833,21.1246032 C92.8828949,21.6123536 93.2006199,21.9915718 93.2006199,22.5515052 C93.2006199,23.1204614 92.6667709,23.7809353 91.6621617,23.7809353 C91.196469,23.7809353 90.6808625,23.6376006 90.3479353,23.3282452 L90.6732615,22.8077546 C90.909655,22.9864074 91.1825337,23.1707317 91.5843774,23.1707317 C91.9535364,23.1707317 92.2770889,22.9722286 92.2770889,22.5437713 C92.2770889,22.0439045 91.6778706,21.7146987 91.3236604,21.4282871 C90.8896388,21.071755 90.5275741,20.7964286 90.5275741,20.1911231 C90.5275741,19.5845286 91.1336334,19.0890443 91.9403612,19.0890443 C92.4511536,19.0890443 92.8573046,19.2764622 93.0681078,19.4857927 L92.7478491,19.9549818 Z M89.476345,19.7773602 L87.9789326,19.7773602 L87.9789326,21.0204535 L89.4441671,21.0204535 L89.4441671,21.6303994 L87.9789326,21.6303994 L87.9789326,23.0946818 L89.7494771,23.0946818 L89.7494771,23.7005029 L87.0809919,23.7005029 L87.0809919,19.1676722 L89.476345,19.1676722 L89.476345,19.7773602 Z M85.1259946,23.7005029 L86.0241887,23.7005029 L86.0241887,19.1676722 L85.1259946,19.1676722 L85.1259946,23.7005029 Z M82.2608949,23.7005029 L82.2608949,19.7773602 L80.882566,19.7773602 L80.882566,19.1676722 L84.5346307,19.1676722 L84.5346307,19.7773602 L83.1575687,19.7773602 L83.1575687,23.7005029 L82.2608949,23.7005029 Z M79.392248,23.7005029 L80.292469,23.7005029 L80.292469,19.1676722 L79.392248,19.1676722 L79.392248,23.7005029 Z M76.4002102,21.2787653 L76.7643019,21.2787653 C77.3825229,21.2787653 77.5783774,20.7964286 77.5783774,20.4646449 C77.5783774,19.9516304 77.2226469,19.7773602 76.8633693,19.7773602 L76.4002102,19.7773602 L76.4002102,21.2787653 Z M75.5020162,19.1676722 L77.051876,19.1676722 C77.9031968,19.1676722 78.4765714,19.5845286 78.4765714,20.3522458 C78.4765714,21.029992 78.1454178,21.4166863 77.7253315,21.6698422 L78.7834016,23.6056339 L77.838841,23.7809353 L76.936593,21.8887112 L76.4002102,21.8887112 L76.4002102,23.7005029 L75.5020162,23.7005029 L75.5020162,19.1676722 Z M71.7688733,19.1676722 L71.7688733,21.7714139 C71.7688733,22.6587484 72.0265499,23.1454677 72.737504,23.1454677 C73.4195741,23.1454677 73.6942264,22.5574345 73.6942264,21.8242621 L73.6942264,19.1676722 L74.4969003,19.1676722 L74.4969003,21.9874471 C74.4969003,23.1320623 73.7722642,23.7809353 72.7124205,23.7809353 C71.5015687,23.7809353 70.8734663,23.179239 70.8734663,21.9410438 L70.8734663,19.1676722 L71.7688733,19.1676722 Z M69.8475741,19.9902999 C69.6309434,19.872487 69.2681186,19.7394642 68.9207493,19.7394642 C68.0038059,19.7394642 67.3425121,20.3940087 67.3425121,21.423389 C67.3425121,22.4981414 68.0765229,23.1320623 68.9470997,23.1320623 C69.2914286,23.1320623 69.6106739,23.0366777 69.8475741,22.905975 L70.0953693,23.4692597 C69.8214771,23.6314135 69.3433693,23.7809353 68.9098544,23.7809353 C67.3635418,23.7809353 66.3870566,22.7417588 66.3870566,21.408179 C66.3870566,20.1684371 67.3559407,19.0890443 68.9207493,19.0890443 C69.3879623,19.0890443 69.8214771,19.2571275 70.1270404,19.4378426 L69.8475741,19.9902999 Z M65.5755148,19.7773602 L64.0773423,19.7773602 L64.0773423,21.0204535 L65.5400431,21.0204535 L65.5400431,21.6303994 L64.0773423,21.6303994 L64.0773423,23.0946818 L65.8478868,23.0946818 L65.8478868,23.7005029 L63.1788949,23.7005029 L63.1788949,19.1676722 L65.5755148,19.1676722 L65.5755148,19.7773602 Z M61.8547871,19.9549818 C61.6566523,19.8217012 61.3954286,19.6997636 61.1347116,19.6997636 C60.758965,19.6997636 60.5562695,19.9147656 60.5562695,20.1800379 C60.5562695,20.4762457 60.8669003,20.7028486 61.3896011,21.1246032 C61.9878059,21.6123536 62.3050243,21.9915718 62.3050243,22.5515052 C62.3050243,23.1204614 61.7711752,23.7809353 60.7655526,23.7809353 C60.3008733,23.7809353 59.7847601,23.6376006 59.4536065,23.3282452 L59.7758922,22.8077546 C60.0143127,22.9864074 60.2864313,23.1707317 60.689035,23.1707317 C61.0589542,23.1707317 61.3802264,22.9722286 61.3802264,22.5437713 C61.3802264,22.0439045 60.7825283,21.7146987 60.4285714,21.4282871 C59.9945499,21.071755 59.6312183,20.7964286 59.6312183,20.1911231 C59.6312183,19.5845286 60.2370243,19.0890443 61.0445121,19.0890443 C61.5547978,19.0890443 61.9627224,19.2764622 62.1722588,19.4857927 L61.8547871,19.9549818 Z M56.7531968,19.7773602 L55.2550243,19.7773602 L55.2550243,21.0204535 L56.7220323,21.0204535 L56.7220323,21.6303994 L55.2550243,21.6303994 L55.2550243,23.0946818 L57.0260755,23.0946818 L57.0260755,23.7005029 L54.358097,23.7005029 L54.358097,19.1676722 L56.7531968,19.1676722 L56.7531968,19.7773602 Z M53.2990135,19.9902999 C53.0831429,19.872487 52.7215849,19.7394642 52.3762426,19.7394642 C51.4590458,19.7394642 50.7995256,20.3940087 50.7995256,21.423389 C50.7995256,22.4981414 51.5312561,23.1320623 52.4015795,23.1320623 C52.7461617,23.1320623 53.0649003,23.0366777 53.2990135,22.905975 L53.5483288,23.4692597 C53.2751968,23.6314135 52.7975957,23.7809353 52.3643342,23.7809353 C50.8170081,23.7809353 49.8428032,22.7417588 49.8428032,21.408179 C49.8428032,20.1684371 50.8083935,19.0890443 52.3762426,19.0890443 C52.842442,19.0890443 53.2751968,19.2571275 53.5805067,19.4378426 L53.2990135,19.9902999 Z M49.0274609,23.7005029 L48.3760485,23.7005029 C47.5237143,22.6587484 46.6711267,21.6255012 45.8286739,20.4509817 L45.8180323,20.4509817 L45.8180323,23.7005029 L45.0971968,23.7005029 L45.0971968,19.1676722 L45.751903,19.1676722 C46.6060108,20.2053019 47.4550512,21.2339088 48.2954771,22.4014678 L48.3078922,22.4014678 L48.3078922,19.1676722 L49.0274609,19.1676722 L49.0274609,23.7005029 Z M44.0409003,19.7773602 L42.5432345,19.7773602 L42.5432345,21.0204535 L44.0087224,21.0204535 L44.0087224,21.6303994 L42.5432345,21.6303994 L42.5432345,23.0946818 L44.313779,23.0946818 L44.313779,23.7005029 L41.6463073,23.7005029 L41.6463073,19.1676722 L44.0409003,19.1676722 L44.0409003,19.7773602 Z M40.3201725,19.9549818 C40.1222911,19.8217012 39.8605606,19.6997636 39.6003504,19.6997636 C39.2248571,19.6997636 39.0198814,19.9147656 39.0198814,20.1800379 C39.0198814,20.4762457 39.3312722,20.7028486 39.8567601,21.1246032 C40.452938,21.6123536 40.7729434,21.9915718 40.7729434,22.5515052 C40.7729434,23.1204614 40.2370674,23.7809353 39.2319515,23.7809353 C38.765752,23.7809353 38.2501456,23.6376006 37.9192453,23.3282452 L38.2443181,22.8077546 C38.4817251,22.9864074 38.7533369,23.1707317 39.1546739,23.1707317 C39.5230728,23.1707317 39.8494124,22.9722286 39.8494124,22.5437713 C39.8494124,22.0439045 39.2504474,21.7146987 38.8942102,21.4282871 C38.4609488,21.071755 38.0983774,20.7964286 38.0983774,20.1911231 C38.0983774,19.5845286 38.7039299,19.0890443 39.5109111,19.0890443 C40.0224636,19.0890443 40.4293747,19.2764622 40.6389111,19.4857927 L40.3201725,19.9549818 Z M36.7780701,19.9549818 C36.5801887,19.8217012 36.321752,19.6997636 36.0605283,19.6997636 C35.6837682,19.6997636 35.4803127,19.9147656 35.4803127,20.1800379 C35.4803127,20.4762457 35.7922102,20.7028486 36.3156712,21.1246032 C36.9136226,21.6123536 37.2321078,21.9915718 37.2321078,22.5515052 C37.2321078,23.1204614 36.697752,23.7809353 35.6901024,23.7809353 C35.2261833,23.7809353 34.7100701,23.6376006 34.3781563,23.3282452 L34.700442,22.8077546 C34.9375957,22.9864074 35.2137682,23.1707317 35.6153585,23.1707317 C35.9837574,23.1707317 36.3083235,22.9722286 36.3083235,22.5437713 C36.3083235,22.0439045 35.708345,21.7146987 35.3513477,21.4282871 C34.9188464,21.071755 34.5580485,20.7964286 34.5580485,20.1911231 C34.5580485,19.5845286 35.1630943,19.0890443 35.9698221,19.0890443 C36.4796011,19.0890443 36.8865121,19.2764622 37.0983288,19.4857927 L36.7780701,19.9549818 Z M33.5068194,19.7773602 L32.0089003,19.7773602 L32.0089003,21.0204535 L33.4746415,21.0204535 L33.4746415,21.6303994 L32.0089003,21.6303994 L32.0089003,23.0946818 L33.7796981,23.0946818 L33.7796981,23.7005029 L31.1114663,23.7005029 L31.1114663,19.1676722 L33.5068194,19.1676722 L33.5068194,19.7773602 Z" id="Fill-1" fill="#FFFFFF" mask="url(#mask-2)"></path>
                <g id="编组-4" mask="url(#mask-2)">
                    <g transform="translate(0.000000, 1.000000)" id="编组">
                        <g transform="translate(5.574124, 0.000000)">
                            <mask id="mask-4" fill="white">
                                <use xlink:href="#path-3"></use>
                            </mask>
                            <g id="Clip-6"></g>
                            <polygon id="Fill-5" fill="#FF7C01" mask="url(#mask-4)" points="17.8130507 0.144726791 4.83851698 0.144726791 0.00929865229 5.05780693 0.00929865229 5.05806472 12.9866194 5.05806472 12.9866194 18.2605819 17.8130507 13.3464706"></polygon>
                        </g>
                        <g transform="translate(0.000000, 4.898128)">
                            <mask id="mask-6" fill="white">
                                <use xlink:href="#path-5"></use>
                            </mask>
                            <g id="Clip-10"></g>
                            <polygon id="Fill-9" fill="#FFFFFF" mask="url(#mask-6)" points="18.5605407 19.0446691 -2.53369272e-05 19.0446691 -2.53369272e-05 0.159550073 5.53558652 0.159550073 5.53558652 13.4102752 18.5605407 13.4102752"></polygon>
                        </g>
                    </g>
                </g>
            </g>
        </g>
    </g>
</svg>