<?xml version="1.0" encoding="UTF-8"?>
<svg width="31px" height="39px" viewBox="0 0 31 39" version="1.1" xmlns="http://www.w3.org/2000/svg" xmlns:xlink="http://www.w3.org/1999/xlink">
    <!-- Generator: Sketch 55.2 (78181) - https://sketchapp.com -->
    <title>BLANK</title>
    <desc>Created with Sketch.</desc>
    <g id="C-组件" stroke="none" stroke-width="1" fill="none" fill-rule="evenodd">
        <g id="C11-Transfer" transform="translate(-1614.000000, -500.000000)" stroke="#CCCCCC" stroke-width="2">
            <g id="1-copy" transform="translate(900.000000, 200.000000)">
                <g id="transfer-copy" transform="translate(80.000000, 150.000000)">
                    <g id="transfer">
                        <g id="BLANK" transform="translate(634.000000, 150.000000)">
                            <path d="M27,21.9814453 L27,3 C27,1.8954305 26.1045695,1 25,1 L3,1 C1.8954305,1 1,1.8954305 1,3 L1,36 C1,37.1045695 1.8954305,38 3,38 L11.9518565,38" id="路径-3" stroke-linecap="round" fill-rule="nonzero"></path>
                            <circle id="Oval-6" cx="21" cy="32" r="6"></circle>
                            <path d="M26.4763184,35.5473633 L30,38" id="Path-26" stroke-linecap="round"></path>
                            <path d="M6,7.5 L22,7.5" id="路径-2" stroke-linecap="round" stroke-linejoin="round" fill-rule="nonzero"></path>
                            <path d="M6,13.5 L22,13.5" id="路径-2-copy" stroke-linecap="round" stroke-linejoin="round" fill-rule="nonzero"></path>
                            <path d="M6,19.5 L22,19.5" id="路径-2-copy-2" stroke-linecap="round" stroke-linejoin="round" fill-rule="nonzero"></path>
                            <path d="M6,25.5 L10,25.5" id="路径-2-copy-3" stroke-linecap="round" stroke-linejoin="round" fill-rule="nonzero"></path>
                        </g>
                    </g>
                </g>
            </g>
        </g>
    </g>
</svg>