<?xml version="1.0" encoding="utf-8"?>
<svg width="13.038757px" height="16px" viewBox="0 0 13.038757 16" version="1.1" xmlns:xlink="http://www.w3.org/1999/xlink" xmlns="http://www.w3.org/2000/svg">
  <path d="M3.50977 1.57184L3.50977 2L2.2742 2C1.0182 2 0 3.01535 0 4.26782L0 13.7322C0 14.9846 1.0182 16 2.2742 16L10.7646 16C12.0206 16 13.0388 14.9846 13.0388 13.7322L13.0388 4.26782C13.0388 3.01535 12.0206 2 10.7646 2L9.52766 2L9.52766 1.57184C9.52251 1.41016 9.45828 1.25732 9.3491 1.14703C9.23992 1.03671 9.09476 0.977966 8.9456 0.983734L8.60031 0.983734C8.55098 0.620178 8.30435 0 7.83081 0L5.20661 0C4.73307 0 4.48644 0.620178 4.43711 0.983734L4.09182 0.983734C3.94266 0.977966 3.7975 1.03671 3.68832 1.14703C3.57914 1.25732 3.51491 1.41016 3.50977 1.57184ZM4.36816 3.06879L8.65961 3.06879L8.65961 1.89255L7.74213 1.89255L7.74213 1.10129C7.72979 1.03473 7.70992 0.970093 7.68294 0.908813L5.34484 0.908813C5.31675 0.973328 5.29684 1.04169 5.28564 1.11197L5.28564 1.89255L4.36816 1.89255L4.36816 3.06879ZM8.93573 3.99915L4.09182 3.99915C3.94266 4.00491 3.7975 3.94617 3.68832 3.83585C3.57914 3.72556 3.51491 3.57272 3.50977 3.41104L3.50977 3.17926L2.2742 3.17926C1.67132 3.17926 1.18259 3.66663 1.18259 4.26782L1.18259 6L11.8562 6L11.8562 4.26782C11.8562 3.66663 11.3674 3.17926 10.7646 3.17926L9.52766 3.17926L9.52766 3.41104C9.52257 3.57465 9.45697 3.72916 9.34563 3.83978C9.23428 3.95041 9.08656 4.00784 8.93573 3.99915ZM1.18259 13.7322L1.18259 7L11.8562 7L11.8562 13.7322C11.8562 14.3334 11.3674 14.8207 10.7646 14.8207L2.2742 14.8207C1.67132 14.8207 1.18259 14.3334 1.18259 13.7322ZM9.50196 9.00092C9.49071 9.00031 9.47941 9 9.46808 9C9.32092 9.00189 9.18076 9.05862 9.07909 9.15738L7.20395 10.935L6.40602 9.94437L6.36513 9.97598L6.35946 9.96896L6.34618 9.96896L6.34618 9.92584L6.20654 9.82401L6.15667 9.88879L6.15667 9.81473L5.7577 9.81473L5.7577 9.88879L5.70783 9.82401L3.22427 12.0645C3.07556 12.172 2.99834 12.3389 3.00993 12.5068C3.00628 12.5568 3.01135 12.6078 3.02571 12.6576C3.0716 12.817 3.20536 12.9415 3.37662 12.9843C3.45143 13.0029 3.52843 13.0047 3.60189 12.9911C3.60567 12.9909 3.60947 12.9906 3.61327 12.9904C3.77173 13.0194 3.93594 12.9821 4.0621 12.8885L5.93724 11.1664L6.73517 12.1571L6.79711 12.1111L6.79941 12.114L6.86492 12.114L6.86492 12.1663L6.9052 12.114L6.91479 12.114L6.91479 12.1756L6.96219 12.114L6.96466 12.114L6.96466 12.1848L7.0245 12.1293L7.0245 12.1385L7.09432 12.1385L7.09432 12.157L7.17411 12.157L7.17411 12.1385L7.22398 12.2033L7.22398 12.1293L7.28383 12.1848L7.28383 12.12L7.29019 12.114L7.44885 12.114L7.47238 12.0915L7.47325 12.0923L7.54307 12.0923L9.86704 9.87955C9.98273 9.77161 10.0367 9.6282 10.0289 9.48718C10.0364 9.3584 9.98627 9.22736 9.87902 9.13046C9.77448 9.03601 9.63674 8.99301 9.50196 9.00092ZM5.76776 9.96896L5.76776 9.93503L5.74688 9.96896L5.76776 9.96896Z" id="形状结合-5-Copy" fill="#FFFFFF" fill-rule="evenodd" stroke="none" />
</svg>