<?xml version="1.0" encoding="utf-8"?>
<svg width="15.057983px" height="15.051636px" viewBox="0 0 15.057983 15.051636" version="1.1" xmlns:xlink="http://www.w3.org/1999/xlink" xmlns="http://www.w3.org/2000/svg">
  <g id="系统中心">
    <path d="M11.8715 10.6017L11.8715 10.6017C11.148 10.6017 10.5615 11.1882 10.5615 11.9117C10.5615 12.6351 11.148 13.2217 11.8714 13.2217C12.5949 13.2217 13.1814 12.6352 13.1815 11.9117C13.1815 11.1882 12.5949 10.6017 11.8714 10.6017L11.8715 10.6017Z" id="形状" fill="#FFFFFF" stroke="none" />
    <path d="M11.8715 8.86166C10.8755 8.85791 9.94253 9.34872 9.38145 10.1717L5.38145 10.1717C5.13845 10.1717 4.94145 9.97467 4.94145 9.73166C4.94689 9.49257 5.1423 9.3016 5.38145 9.30166L9.72145 9.30166C10.4449 9.30166 11.0315 8.71515 11.0315 7.99166C11.0315 7.26817 10.445 6.68166 9.72146 6.68166L4.47145 6.68166C4.22845 6.68166 4.03145 6.87865 4.03145 7.12166C4.03689 7.36075 4.2323 7.55172 4.47145 7.55166L9.69145 7.55166C9.93446 7.55166 10.1315 7.74865 10.1315 7.99166C10.126 8.23075 9.9306 8.42172 9.69145 8.42166L5.35145 8.42166C4.62796 8.42166 4.04145 9.00816 4.04145 9.73166C4.04145 10.4551 4.62795 11.0417 5.35145 11.0417L8.97145 11.0417C8.88112 11.3232 8.83063 11.6161 8.82145 11.9117C8.82145 13.5961 10.187 14.9617 11.8714 14.9617C13.5559 14.9617 14.9214 13.5961 14.9215 11.9117C14.9215 10.2272 13.5559 8.86167 11.8715 8.86166L11.8715 8.86166ZM11.8715 14.0817C10.9888 14.0816 10.1933 13.5494 9.85646 12.7336C9.51963 11.9177 9.70798 10.9793 10.3335 10.3566C10.9591 9.73395 11.8984 9.54991 12.7126 9.89048C13.5269 10.2311 14.0555 11.029 14.0515 11.9116C14.046 13.1117 13.0715 14.0817 11.8715 14.0817L11.8715 14.0817Z" id="形状" fill="#FFFFFF" fill-rule="evenodd" stroke="none" />
    <path d="M7.55145 13.9517L3.09145 13.9517C2.50991 13.9517 2.03694 13.4832 2.03145 12.9017L2.03145 6.45166L7.55145 1.27166L14.1115 7.45166C14.2147 7.55548 14.355 7.61385 14.5015 7.61385C14.6479 7.61385 14.7882 7.55548 14.8915 7.45166C14.9978 7.3498 15.058 7.20893 15.058 7.06166C15.058 6.9144 14.9978 6.77352 14.8915 6.67166L7.93145 0.15166C7.82507 0.0477591 7.67993 -0.00666928 7.53145 0.00166011C7.3735 -0.0102584 7.21772 0.0440855 7.10145 0.15166L0.171453 6.65166C0.0643437 6.74913 0.00273252 6.88685 0.00145245 7.03166C-0.00953817 7.17866 0.0411897 7.3236 0.141452 7.43166C0.248515 7.54412 0.396201 7.60896 0.551453 7.61166L0.551453 7.61166C0.692851 7.60405 0.827196 7.54748 0.931453 7.45166L0.931453 12.8917C0.932035 14.0856 1.89957 15.0522 3.09251 15.0517L7.55145 15.0517C7.85521 15.0517 8.10145 14.8054 8.10145 14.5017C8.10145 14.1979 7.85521 13.9517 7.55146 13.9517L7.55145 13.9517Z" id="形状" fill="#FFFFFF" stroke="none" />
  </g>
</svg>