<?xml version="1.0" encoding="UTF-8"?>
<svg width="2px" height="15px" viewBox="0 0 2 15" version="1.1" xmlns="http://www.w3.org/2000/svg" xmlns:xlink="http://www.w3.org/1999/xlink">
    <!-- Generator: Sketch 63 (92445) - https://sketch.com -->
    <title>矩形-5-Copy</title>
    <desc>Created with Sketch.</desc>
    <g id="页面-1" stroke="none" stroke-width="1" fill="#FFFFFF" fill-rule="evenodd">
        <path d="M0.999,0 L1.001,0 C1.0666,0 1.13156667,0.00633333333 1.1959,0.019 C1.26023333,0.0316666667 1.3227,0.0506666667 1.3833,0.076 C1.4439,0.101333333 1.50146667,0.132 1.556,0.168 C1.61053333,0.204666667 1.661,0.246333333 1.7074,0.293 C1.7538,0.339 1.7952,0.389333333 1.8316,0.444 C1.86806667,0.498666667 1.89886667,0.556333333 1.924,0.617 C1.94906667,0.677666667 1.968,0.74 1.9808,0.804 C1.9936,0.868666667 2,0.933666667 2,0.999 L2,14.001 C2,14.0663333 1.9936,14.1313333 1.9808,14.196 C1.968,14.26 1.94906667,14.3223333 1.924,14.383 C1.89886667,14.4436667 1.86806667,14.5013333 1.8316,14.556 C1.7952,14.6106667 1.7538,14.661 1.7074,14.707 C1.661,14.7536667 1.61053333,14.7953333 1.556,14.832 C1.50146667,14.868 1.4439,14.8986667 1.3833,14.924 C1.3227,14.9493333 1.26023333,14.9683333 1.1959,14.981 C1.13156667,14.9936667 1.0666,15 1.001,15 L0.999,15 C0.9334,15 0.868433333,14.9936667 0.8041,14.981 C0.739766667,14.9683333 0.6773,14.9493333 0.6167,14.924 C0.5561,14.8986667 0.498533333,14.868 0.444,14.832 C0.389466667,14.7953333 0.339,14.7536667 0.2926,14.707 C0.2462,14.661 0.2048,14.6106667 0.1684,14.556 C0.131933333,14.5013333 0.101166667,14.4436667 0.0761,14.383 C0.0509666667,14.3223333 0.032,14.26 0.0192,14.196 C0.0064,14.1313333 0,14.0663333 0,14.001 L0,0.999 C0,0.933666667 0.0064,0.868666667 0.0192,0.804 C0.032,0.74 0.0509666667,0.677666667 0.0761,0.617 C0.101166667,0.556333333 0.131933333,0.498666667 0.1684,0.444 C0.2048,0.389333333 0.2462,0.339 0.2926,0.293 C0.339,0.246333333 0.389466667,0.204666667 0.444,0.168 C0.498533333,0.132 0.5561,0.101333333 0.6167,0.076 C0.6773,0.0506666667 0.739766667,0.0316666667 0.8041,0.019 C0.868433333,0.00633333333 0.9334,0 0.999,0 Z" id="矩形-5-Copy" fill="#D8D8D8" fill-rule="nonzero"></path>
    </g>
</svg>