<?xml version="1.0" encoding="UTF-8"?>
<svg width="10px" height="10px" viewBox="0 0 10 10" version="1.1" xmlns="http://www.w3.org/2000/svg" xmlns:xlink="http://www.w3.org/1999/xlink">
    <title>编组 47</title>
    <g id="页面-1" stroke="none" stroke-width="1" fill="none" fill-rule="evenodd">
        <g id="工作-待办-任务-表格筛选2" transform="translate(-660.000000, -271.000000)">
            <g id="编组-45" transform="translate(184.000000, 92.000000)">
                <g id="编组-20" transform="translate(390.000000, 53.000000)">
                    <g id="编组-33" transform="translate(0.000000, 107.000000)">
                        <g id="编组-46" transform="translate(86.000000, 19.000000)">
                            <rect id="矩形" x="0" y="0" width="10" height="10"></rect>
                            <path d="M4.18426083,9.98528842 L4.18420499,9.98528842 C3.87878541,9.98525491 3.57059639,9.7532812 3.57059639,9.23511762 L3.57059639,4.80565149 L0.23882052,1.12700384 C0.140728908,1.01869435 0.0719062063,0.90680023 0.0342508195,0.794425925 C-0.0154315103,0.646160631 -0.0109870133,0.498576529 0.047081792,0.36764254 C0.105150597,0.236697384 0.211550516,0.134339948 0.354790625,0.0716256379 C0.463356956,0.0240985542 0.592493046,3.55271368e-14 0.738614261,3.55271368e-14 L9.26139515,3.55271368e-14 C9.40751636,3.55271368e-14 9.53665245,0.0240985542 9.64520762,0.071636805 C9.78843656,0.134339948 9.89484764,0.236697384 9.95291645,0.36764254 C10.0109853,0.498576529 10.0154298,0.646160631 9.96575859,0.794425925 C9.9281032,0.90680023 9.8592805,1.01869435 9.76118889,1.12700384 L6.42937951,4.80569616 L6.42937951,7.47067464 C6.42937951,7.97436569 6.13614321,8.5955009 5.74728323,8.91548235 L4.70681307,9.77170688 C4.53460556,9.91342827 4.35879109,9.98528842 4.18426083,9.98528842 L4.18426083,9.98528842 Z" id="Fill-1-Copy-5" fill="#244FFF"></path>
                        </g>
                    </g>
                </g>
            </g>
        </g>
    </g>
</svg>